<svg width="138" height="20" viewBox="0 0 138 20" fill="none" xmlns="http://www.w3.org/2000/svg">
<g clipPath="url(#clip0_155_41040)">
<path d="M23.8692 7.94394H0V0H23.8692V7.94394Z" fill="#00A041"/>
<path d="M23.8692 17.6637H0V9.71973H23.8692V17.6637Z" fill="#008CD6"/>
<path d="M32.6914 0.616211V17.0461H36.0372V9.84987H42.9905V6.69098H36.0372V3.79378H43.1026V0.616211H32.6914Z" fill="#008CD6"/>
<path d="M52.8226 14.6905V9.34473C52.8226 7.58772 51.9067 5.34473 48.0563 5.34473C44.2058 5.34473 45.3086 5.68118 44.4675 6.01763V8.93351C45.4207 8.33538 46.4675 8.01763 47.6264 8.01763C48.7852 8.01763 49.7011 8.37277 49.7011 9.58772V9.66249C49.1965 9.47558 48.5422 9.36343 47.8693 9.36343C45.2338 9.36343 43.3086 10.7466 43.3086 13.4382C43.3086 16.1298 45.4768 17.1018 47.2151 17.1018C48.9535 17.1018 49.2338 16.7466 49.8507 16.2606C49.9067 16.5971 50.0002 16.8775 50.0936 17.027H53.5329C53.1217 16.6905 52.8226 16.0176 52.8226 14.6718M46.4301 13.1017C46.4301 12.1859 47.2151 11.5877 48.3179 11.5877C49.4208 11.5877 49.346 11.7186 49.7011 11.9055V13.8681C49.3834 14.1485 48.8413 14.4849 48.0376 14.4849C47.2338 14.4849 46.4301 13.9055 46.4301 13.1017Z" fill="#008CD6"/>
<path d="M120.598 14.6905V9.34473C120.598 7.58772 119.682 5.34473 115.832 5.34473C111.981 5.34473 113.084 5.68118 112.243 6.01763V8.93351C113.196 8.33538 114.262 8.01763 115.402 8.01763C116.542 8.01763 117.477 8.37277 117.477 9.58772V9.66249C116.953 9.47558 116.318 9.36343 115.645 9.36343C113.009 9.36343 111.084 10.7466 111.084 13.4382C111.084 16.1298 113.252 17.1018 114.991 17.1018C116.729 17.1018 117.009 16.7466 117.626 16.2606C117.682 16.5971 117.776 16.8775 117.869 17.027H121.308C120.897 16.6905 120.598 16.0176 120.598 14.6718M114.224 13.1017C114.224 12.1859 115.009 11.5877 116.112 11.5877C117.215 11.5877 117.14 11.7186 117.495 11.9055V13.8681C117.177 14.1485 116.635 14.4849 115.832 14.4849C115.028 14.4849 114.224 13.9055 114.224 13.1017Z" fill="#008CD6"/>
<path d="M66.6727 5.45717C65.3269 5.45717 64.3176 5.77493 63.4017 6.76558C62.7475 5.94315 61.7195 5.45717 60.4671 5.45717C59.2148 5.45717 58.4858 5.75623 57.6073 6.52259V5.56931H54.6914V17.0273H57.8316V9.30764C58.2054 8.84035 58.7475 8.44783 59.4765 8.44783C60.2054 8.44783 60.9531 9.10203 60.9531 10.2609V17.0273H64.1494V9.21418C64.5045 8.76558 65.0466 8.42914 65.7755 8.42914C66.5045 8.42914 67.2522 9.15811 67.2522 10.2422V17.0086H70.4484V9.06465C70.4484 6.91511 69.0653 5.43848 66.654 5.43848" fill="#008CD6"/>
<path d="M80.9722 0.616211H77.832V17.0275H80.9722V0.616211Z" fill="#008CD6"/>
<path d="M102.132 5.71902L97.9822 0.616211H94.543V17.0461H97.9822V5.71902L102.132 11.2144L106.281 5.71902V17.0461H109.702V0.616211H106.281L102.132 5.71902Z" fill="#008CD6"/>
<path d="M75.6832 5.56934H72.543V17.0273H75.6832V5.56934Z" fill="#008CD6"/>
<path d="M74.0921 0.373047C72.9706 0.373047 72.0547 1.28894 72.0547 2.41043C72.0547 3.53193 72.9706 4.44782 74.0921 4.44782C75.2136 4.44782 76.1295 3.53193 76.1295 2.41043C76.1295 1.28894 75.2136 0.373047 74.0921 0.373047Z" fill="#008CD6"/>
<path d="M125.326 6.78413V5.58787H122.316V17.0458H125.457V9.84956C125.905 9.27012 126.653 8.74675 127.718 8.74675C128.784 8.74675 129.139 9.06451 129.475 9.32619V5.86824C129.083 5.58787 128.466 5.45703 127.943 5.45703C127.045 5.45703 126.073 5.79348 125.307 6.80282" fill="#008CD6"/>
<path d="M136.224 14.1119C135.233 14.1119 134.859 13.3456 134.859 12.4858V8.5792H137.532V5.56985H134.859V1.2334L131.756 2.54181V5.55116H130.074V8.56051H131.756V12.9344C131.756 15.3082 132.71 17.1587 135.513 17.1587C138.317 17.1587 137.084 17.0278 137.57 16.8409V13.6633C137.345 13.925 136.897 14.0932 136.224 14.0932" fill="#008CD6"/>
<path d="M84.7477 19.9993H88.2617L93.5514 5.56934H90.1122L87.9439 11.7563L85.5701 5.56934H82L86.3178 15.9619L84.7477 19.9993Z" fill="#008CD6"/>
</g>
<defs>
<clipPath id="clip0_155_41040">
<rect width="137.57" height="20" fill="white"/>
</clipPath>
</defs>
</svg>
