<svg width="132" height="20" viewBox="0 0 132 20" fill="none" xmlns="http://www.w3.org/2000/svg">
<g clipPath="url(#clip0_155_41056)">
<path d="M76.3515 11.1787C78.9303 11.1787 84.7174 11.1787 85.1468 11.1787C85.9015 11.1787 85.9015 11.4187 85.9015 11.8134C85.9015 12.2081 85.9015 14.2402 85.9015 15.059C85.9015 15.8803 85.7708 16.155 84.5788 16.155C83.384 16.155 76.7809 16.155 76.4688 16.155C76.1542 16.155 75.7275 16.2804 75.7275 15.651C75.7275 15.0163 75.7275 13.5735 75.7275 13.1415C75.7275 12.7121 75.6341 12.5574 75.1621 12.5574C74.6927 12.5574 73.5993 12.5574 73.3273 12.5574C73.0526 12.5574 72.7806 12.5574 72.7806 13.1415C72.7806 13.7309 72.7806 16.075 72.7806 17.5658C72.7806 19.0512 73.402 19.9873 75.3194 19.9873C77.2342 19.9873 84.3574 19.9873 85.9202 19.9873C87.4856 19.9873 88.8751 19.1659 88.8751 17.1738C88.8751 15.1763 88.8751 12.1254 88.8751 10.72C88.8751 9.3092 87.8163 8.21313 85.9015 8.21313C83.984 8.21313 77.0822 8.21313 76.6075 8.21313C76.1381 8.21313 75.7275 8.13845 75.7275 7.47174C75.7275 6.80769 75.7275 4.85288 75.7275 4.49552C75.7275 4.14617 75.9168 3.87681 76.5062 3.87681C77.0929 3.87681 84.4321 3.87681 85.2535 3.87681C86.0775 3.87681 85.9015 4.06616 85.9015 4.65287C85.9015 5.23958 85.9015 5.90896 85.9015 6.37299C85.9015 6.84503 86.2722 6.84503 86.6989 6.84503C87.1309 6.84503 87.8777 6.84503 88.3417 6.84503C88.8164 6.84503 88.8751 6.61034 88.8751 6.25832C88.8751 5.90896 88.8751 3.61013 88.8751 3.61013C88.8751 0.991272 87.955 0.0392036 85.7628 0.0392036C83.5707 0.0392036 78.9303 0.0392036 76.5062 0.0392036C74.082 0.0392036 72.7806 0.0818748 72.7539 3.61013C72.7539 5.42892 72.7539 5.85829 72.7539 5.9463V5.96496C72.7539 6.06897 72.7539 7.19705 72.7539 8.75716C72.7539 10.4079 73.77 11.1787 76.3515 11.1787Z" fill="#007BC2"/>
<path d="M94.9791 10.3679C94.9791 10.3679 94.9791 5.5516 94.9791 4.81288C94.9791 4.06616 95.3898 3.87681 95.8619 3.87681C96.0939 3.87681 103.801 3.87681 104.388 3.87681C104.977 3.87681 105.148 4.02882 105.148 4.49552C105.148 4.96489 105.148 14.8243 105.148 15.4936C105.148 16.155 104.78 16.155 104.388 16.155C104.001 16.155 96.4059 16.155 95.8219 16.155C95.2325 16.155 94.9791 16.0377 94.9791 15.4563C94.9791 14.8643 94.9791 10.3679 94.9791 10.3679ZM95.0138 19.9873C97.2406 19.9873 102.654 19.9873 104.844 19.9873C107.033 19.9873 108.124 19.2566 108.124 16.6724C108.124 14.0882 108.124 5.99697 108.124 3.61013C108.124 1.21262 107.124 0.0392036 104.961 0.0392036C102.924 0.0392036 97.27 0.0392036 95.2325 0.0392036C93.2003 0.0392036 92.0029 0.871264 92.0029 3.61013C92.0029 6.34899 92.0029 11.112 92.0029 11.112C92.0029 11.112 92.0029 15.4216 92.0029 17.1018C92.0029 18.7846 92.7843 19.9873 95.0138 19.9873Z" fill="#007BC2"/>
<path d="M0.968803 3.87681H3.61166V16.155H1.04614C0.798124 16.155 0.600776 16.355 0.600776 16.6004V19.5473C0.600776 19.7953 0.798124 19.9873 1.04614 19.9873H16.5859C16.8313 19.9873 17.0286 19.7953 17.0286 19.5473V12.8055C17.0286 12.5601 16.8339 12.3601 16.5886 12.3601H14.4844C14.2391 12.3601 14.0391 12.5601 14.0391 12.8055V16.155H6.58521V3.87681H9.07339C9.32407 3.87681 9.52142 3.6768 9.52142 3.42611V0.48457C9.52142 0.239218 9.32407 0.0392036 9.07339 0.0392036H0.968803C0.723452 0.0392036 0.523438 0.239218 0.523438 0.48457V3.42611C0.523438 3.6768 0.723452 3.87681 0.968803 3.87681Z" fill="#007BC2"/>
<path d="M30.0529 7.02371L32.3224 11.112H32.3464L32.3251 11.12L32.3224 11.112H27.7488L27.7328 11.1067L30.0529 7.02371ZM19.2735 19.9873H27.3781C27.6234 19.9873 27.8261 19.7953 27.8261 19.5473V16.6004C27.8261 16.355 27.6234 16.155 27.3781 16.155H24.8739L24.8579 16.147L26.0286 14.0802H33.9705L33.9625 14.0882L35.112 16.163L35.1013 16.155H32.6531C32.4078 16.155 32.2051 16.355 32.2051 16.6004V19.5473C32.2051 19.7953 32.4078 19.9873 32.6531 19.9873H40.7657C41.0057 19.9873 41.2057 19.7953 41.2057 19.5473V16.6004C41.2057 16.355 41.0057 16.155 40.7657 16.155H38.5042V16.163L31.7224 3.87681H34.2692C34.5173 3.87681 34.7146 3.6768 34.7146 3.42611V0.48457C34.7146 0.239218 34.5173 0.0392036 34.2692 0.0392036H26.1593C25.914 0.0392036 25.7166 0.239218 25.7166 0.48457V3.42611C25.7166 3.6768 25.914 3.87681 26.1593 3.87681H28.4181L21.4416 16.147L21.4496 16.155H19.2735C19.0281 16.155 18.8281 16.355 18.8281 16.6004V19.5473C18.8281 19.7953 19.0281 19.9873 19.2735 19.9873Z" fill="#007BC2"/>
<path d="M37.9713 3.87681H40.4035L46.4866 16.155H43.9984C43.753 16.155 43.5557 16.355 43.5557 16.6004V19.5473C43.5557 19.7953 43.753 19.9873 43.9984 19.9873H52.111C52.3536 19.9873 52.5563 19.7953 52.5563 19.5473V16.6004C52.5563 16.355 52.3536 16.155 52.111 16.155H49.8521L54.2525 7.17838L58.6954 16.155H56.2846C56.0392 16.155 55.8392 16.355 55.8392 16.6004V19.5473C55.8392 19.7953 56.0392 19.9873 56.2846 19.9873H64.3918C64.6399 19.9873 64.8372 19.7953 64.8372 19.5473V16.6004C64.8372 16.355 64.6399 16.155 64.3918 16.155H62.117L68.1174 3.87681H70.499C70.7443 3.87681 70.939 3.6768 70.939 3.42611V0.48457C70.939 0.239218 70.7443 0.0392036 70.499 0.0392036H62.3864C62.141 0.0392036 61.941 0.239218 61.941 0.48457V3.42611C61.941 3.6768 62.141 3.87681 62.3864 3.87681H64.8159L60.3969 12.8855L55.9352 3.87681H58.2927C58.5381 3.87681 58.7328 3.6768 58.7328 3.42611V0.48457C58.7328 0.239218 58.5381 0.0392036 58.2927 0.0392036H50.1802C49.9348 0.0392036 49.7375 0.239218 49.7375 0.48457V3.42611C49.7375 3.6768 49.9348 3.87681 50.1802 3.87681H52.535L48.1613 12.8055L43.7317 3.87681H46.0839C46.3319 3.87681 46.5292 3.6768 46.5292 3.42611V0.48457C46.5292 0.239218 46.3319 0.0392036 46.0839 0.0392036H37.9713C37.7286 0.0392036 37.5312 0.239218 37.5312 0.48457V3.42611C37.5312 3.6768 37.7286 3.87681 37.9713 3.87681Z" fill="#007BC2"/>
<path d="M110.503 19.9854H118.61C118.861 19.9854 119.053 19.7933 119.053 19.5453V16.5984C119.053 16.3531 118.861 16.1531 118.61 16.1531H115.946V7.36844H115.951L125.355 16.1531H123.253C123.011 16.1531 122.811 16.3531 122.811 16.5984V19.5453C122.811 19.7933 123.011 19.9854 123.253 19.9854H131.363C131.611 19.9854 131.809 19.7933 131.809 19.5453V16.5984C131.809 16.3531 131.611 16.1531 131.363 16.1531H128.782V3.87486H131.363C131.611 3.87486 131.809 3.67484 131.809 3.42416V0.482615C131.809 0.237265 131.611 0.0372505 131.363 0.0372505H123.253C123.011 0.0372505 122.811 0.237265 122.811 0.482615V3.42416C122.811 3.67484 123.011 3.87486 123.253 3.87486H125.805V12.5021H125.795L116.567 3.87486H118.61C118.861 3.87486 119.053 3.67484 119.053 3.42416V0.482615C119.053 0.237265 118.861 0.0372505 118.61 0.0372505H110.503C110.255 0.0372505 110.058 0.237265 110.058 0.482615V3.42416C110.058 3.67484 110.255 3.87486 110.503 3.87486H112.972V16.1531H110.503C110.255 16.1531 110.058 16.3531 110.058 16.5984V19.5453C110.058 19.7933 110.255 19.9854 110.503 19.9854Z" fill="#007BC2"/>
</g>
<defs>
<clipPath id="clip0_155_41056">
<rect width="131.327" height="20" fill="white" transform="translate(0.5)"/>
</clipPath>
</defs>
</svg>
