<svg width="108" height="20" viewBox="0 0 108 20" fill="none" xmlns="http://www.w3.org/2000/svg">
<g clip-path="url(#clip0_155_41028)">
<path d="M3.23316 5.2449C6.54314 5.44859 11.4826 6.26336 14.538 7.0272C16.8295 7.63827 17.5934 2.95338 15.4037 2.44415C11.9919 1.62939 6.95052 0.86556 3.89516 0.610946C0.992559 0.407255 0.839789 5.09215 3.23316 5.19399" fill="#023886"/>
<path d="M3.6902 6.72173C1.24591 6.51804 0.838536 10.8974 3.28283 11.152C5.98173 11.4066 10.6157 12.2723 13.4674 13.0361C15.5552 13.5963 16.8792 9.26786 14.6386 8.65679C11.6851 7.84203 6.64373 6.97635 3.74113 6.72173" fill="#023886"/>
<path d="M15.811 15.2258C11.9918 14.0546 6.18665 13.0871 3.02944 12.6797C0.0249939 12.3232 -0.331467 16.9572 2.11283 17.3137C5.21911 17.7211 10.0568 18.2812 14.3852 19.707C17.0332 20.6237 18.1026 15.8878 15.811 15.2258Z" fill="#023886"/>
<path d="M34.6009 13.5449H19.3241C17.0326 13.5449 17.0326 18.4844 19.3241 18.4844H34.6009C36.8925 18.4844 36.8925 13.5449 34.6009 13.5449Z" fill="#023886"/>
<path d="M20.5975 6.92584H33.2264C35.5179 6.92584 35.5179 1.98633 33.2264 1.98633H20.5975C18.306 1.98633 18.306 6.92584 20.5975 6.92584Z" fill="#023886"/>
<path d="M55.6327 15.6841C54.5124 14.5129 51.8644 12.6797 49.9294 11.3557C51.2534 9.62434 53.2393 6.05975 53.2393 3.76823C53.2393 1.47671 51.9663 1.42578 50.9478 1.42578H39.4393C37.3514 1.42578 37.3514 5.95792 39.4393 5.95792H47.3323C47.4342 5.95792 47.4851 6.11068 47.4341 6.16161C45.8555 9.82804 42.0873 12.7816 37.7588 14.8694C35.671 15.8369 37.4533 20.369 40.0504 19.2997C43.1057 18.0266 44.6334 16.7026 46.7212 14.8185C48.3508 16.0406 50.9478 18.1284 52.2718 19.2997C53.9523 20.7255 57.1095 17.3646 55.5818 15.7351" fill="#023886"/>
<path d="M70.1457 9.52236C67.4977 8.35114 64.7988 7.48545 61.9981 6.67069V2.13856C61.9981 -0.152959 57.0586 -0.152959 57.0586 2.13856V18.2811C57.0586 20.5726 61.9981 20.5726 61.9981 18.2811V11.712C63.9332 12.2722 65.7155 12.9342 68.1597 14.1054C70.7059 15.3276 72.8446 10.7954 70.0948 9.57327" fill="#023886"/>
<path d="M77.6823 10.9482C78.0897 13.0361 82.2653 12.0685 81.8579 9.92978C81.6033 8.55486 81.196 6.82349 80.7376 5.39766C80.1775 3.71721 76.0527 4.27736 76.5111 6.1615C76.7657 7.12903 77.3767 9.77701 77.6314 10.9482" fill="#023886"/>
<path d="M76.7145 10.7441C76.409 9.36921 75.8488 7.48506 75.3905 6.05923C74.8304 4.48062 70.9093 5.04078 71.3167 6.97585C71.5204 7.94338 72.2333 10.4895 72.4879 11.6607C72.9462 13.6976 77.1219 12.832 76.6636 10.6932" fill="#023886"/>
<path d="M83.1312 5.60169C83.1312 11.1013 82.4183 13.5966 76.6641 15.3789C74.2198 16.1427 75.8493 20.7257 78.9556 19.5545C85.932 16.9065 87.6124 12.7818 87.6124 5.65261C87.6124 -1.47657 83.1312 3.66662 83.1312 5.55076" fill="#023886"/>
<path d="M104.569 0C103.551 0 102.685 0.61107 102.278 1.47676H89.3942C87.2045 1.47676 87.2045 6.21258 89.3942 6.21258H99.7825C100.037 6.21258 100.088 6.31442 100.037 6.61996C98.9677 11.2539 96.1669 13.4436 91.9403 14.8185C89.0378 15.7351 90.9728 20.5728 93.468 19.8599C100.037 17.9757 105.18 12.3742 105.384 4.83766C106.351 4.4812 107.013 3.56459 107.013 2.49521C107.013 1.42583 105.893 0 104.518 0M104.569 3.46274C104.009 3.46274 103.551 3.00444 103.551 2.44429C103.551 1.88414 104.009 1.42583 104.569 1.42583C105.129 1.42583 105.537 1.88414 105.537 2.44429C105.537 3.00444 105.078 3.46274 104.569 3.46274Z" fill="#023886"/>
</g>
<defs>
<clipPath id="clip0_155_41028">
<rect width="106.514" height="20" fill="white" transform="translate(0.5)"/>
</clipPath>
</defs>
</svg>
