<svg width="49" height="48" viewBox="0 0 49 48" fill="none" xmlns="http://www.w3.org/2000/svg">
<circle cx="24.8613" cy="24" r="23.5" fill="white" stroke="#D1D1D1"/>
<path d="M24.8613 10C25.9659 10 26.8613 10.8954 26.8613 12V22H37.3613C38.4659 22 39.3613 22.8954 39.3613 24C39.3613 25.1046 38.4659 26 37.3613 26H26.8613V36C26.8613 37.1046 25.9659 38 24.8613 38C23.7568 38 22.8613 37.1046 22.8613 36V26H13.3613C12.2568 26 11.3613 25.1046 11.3613 24C11.3613 22.8954 12.2568 22 13.3613 22H22.8613V12C22.8613 10.8954 23.7568 10 24.8613 10Z" fill="#333333"/>
</svg>
