<svg width="63" height="41" viewBox="0 0 63 41" fill="none" xmlns="http://www.w3.org/2000/svg">
<mask id="mask0_667_25748" style="mask-type:luminance" maskUnits="userSpaceOnUse" x="0" y="0" width="63" height="41">
<path d="M62.728 0.819336H0.246704V40.8193H62.728V0.819336Z" fill="white"/>
</mask>
<g mask="url(#mask0_667_25748)">
<path d="M57.1321 0.819336H5.84149C5.62816 0.819336 5.41348 0.819336 5.20148 0.820582C5.02015 0.821865 4.84015 0.823866 4.66148 0.828773C4.26815 0.83938 3.8735 0.86252 3.4855 0.932128C3.09216 1.00294 2.72682 1.11845 2.36949 1.30032C2.01749 1.47891 1.69613 1.7125 1.41746 1.99123C1.1388 2.26996 0.905496 2.59094 0.72683 2.94248C0.545496 3.2997 0.429495 3.66598 0.358828 4.05976C0.289495 4.44718 0.265491 4.84266 0.254824 5.23446C0.250824 5.41428 0.248142 5.59411 0.246808 5.77391C0.245475 5.9876 0.246808 6.20115 0.246808 6.41522V35.2239C0.246808 35.438 0.245475 35.6511 0.246808 35.8652C0.248142 36.0451 0.250824 36.2248 0.254824 36.4047C0.265491 36.7961 0.289495 37.1916 0.358828 37.5789C0.429495 37.9728 0.545496 38.3389 0.72683 38.6963C0.905496 39.0477 1.1388 39.3692 1.41746 39.6475C1.69613 39.9267 2.01749 40.1603 2.36949 40.3384C2.72682 40.5207 3.09216 40.6363 3.4855 40.7071C3.8735 40.7761 4.26815 40.7997 4.66148 40.8104C4.84015 40.8144 5.02015 40.8168 5.20148 40.8177C5.41348 40.8193 5.62816 40.8193 5.84149 40.8193H57.1321C57.3455 40.8193 57.5588 40.8193 57.7722 40.8177C57.9522 40.8168 58.1321 40.8144 58.3135 40.8104C58.7041 40.7997 59.1001 40.7761 59.4881 40.7071C59.8815 40.6363 60.2468 40.5207 60.6042 40.3384C60.9562 40.1603 61.2761 39.9267 61.5561 39.6475C61.8335 39.3692 62.0681 39.0477 62.2468 38.6963C62.4295 38.3389 62.5441 37.9728 62.6148 37.5789C62.6841 37.1916 62.7068 36.7961 62.7175 36.4047C62.7228 36.2248 62.7255 36.0451 62.7255 35.8652C62.7282 35.6511 62.7281 35.438 62.7281 35.2239V6.41522C62.7281 6.20115 62.7282 5.9876 62.7255 5.77391C62.7255 5.59411 62.7228 5.41428 62.7175 5.23446C62.7068 4.84266 62.6841 4.44718 62.6148 4.05976C62.5441 3.66598 62.4295 3.2997 62.2468 2.94248C62.0681 2.59094 61.8335 2.26996 61.5561 1.99123C61.2761 1.7125 60.9562 1.47891 60.6042 1.30032C60.2468 1.11845 59.8815 1.00294 59.4881 0.932128C59.1001 0.86252 58.7041 0.83938 58.3135 0.828773C58.1321 0.823866 57.9522 0.821865 57.7722 0.820582C57.5588 0.819336 57.3455 0.819336 57.1321 0.819336Z" fill="black"/>
<path d="M57.1321 2.15234L57.7627 2.15356C57.9334 2.15476 58.1054 2.15661 58.2774 2.16129C58.5761 2.16937 58.9254 2.18556 59.2521 2.244C59.5347 2.29504 59.7721 2.37264 60.0001 2.48876C60.2254 2.60317 60.4321 2.7531 60.6121 2.93298C60.7934 3.11405 60.9428 3.32069 61.0588 3.54836C61.1748 3.77465 61.2521 4.01118 61.3027 4.29664C61.3601 4.61908 61.3774 4.96976 61.3854 5.27058C61.3894 5.44037 61.3921 5.61016 61.3921 5.784C61.3948 5.99421 61.3947 6.20432 61.3947 6.41496V35.2235C61.3947 35.4342 61.3948 35.6439 61.3921 35.8587C61.3921 36.0285 61.3894 36.1982 61.3854 36.3683C61.3774 36.6687 61.3601 37.0191 61.3014 37.3454C61.2521 37.627 61.1748 37.8635 61.0588 38.091C60.9428 38.3181 60.7934 38.5245 60.6134 38.7045C60.4321 38.8855 60.2267 39.0351 59.9987 39.1506C59.7721 39.2661 59.5348 39.3437 59.2548 39.3942C58.9214 39.4534 58.5574 39.4697 58.2828 39.4771C58.1108 39.481 57.9387 39.4834 57.7627 39.4842C57.5521 39.4858 57.3414 39.4858 57.1321 39.4858H5.84143C5.83876 39.4858 5.83608 39.4858 5.83341 39.4858C5.62541 39.4858 5.41875 39.4858 5.20675 39.4842C5.03475 39.4834 4.86276 39.4811 4.69743 39.4773C4.41609 39.4697 4.05206 39.4534 3.72139 39.3945C3.43873 39.3437 3.20142 39.2661 2.97209 39.149C2.74675 39.0346 2.5414 38.8853 2.36007 38.7037C2.18007 38.5242 2.03075 38.3185 1.91475 38.091C1.79875 37.8638 1.7214 37.6265 1.67074 37.3417C1.61207 37.0161 1.59609 36.6669 1.58809 36.3686C1.58276 36.1978 1.58141 36.027 1.58008 35.8573V35.3559V35.2235V6.41496V6.28261V5.78241C1.58141 5.6116 1.58276 5.44082 1.58809 5.27016C1.59609 4.97153 1.61208 4.62229 1.67208 4.29396C1.72141 4.01164 1.79876 3.77434 1.9161 3.54601C2.03076 3.32032 2.18007 3.11428 2.36007 2.93354C2.54007 2.75341 2.74676 2.60366 2.97343 2.48816C3.20143 2.37261 3.43873 2.29504 3.72139 2.2441C4.04806 2.18553 4.39743 2.16937 4.69743 2.16125C4.86809 2.15661 5.03876 2.15476 5.20809 2.15358L5.84143 2.15234H57.1321Z" fill="white"/>
<path d="M17.3027 14.2739C17.8374 13.6047 18.2014 12.7062 18.1054 11.7881C17.3214 11.827 16.3667 12.3048 15.8134 12.9744C15.316 13.5479 14.8761 14.484 14.9907 15.3636C15.8707 15.4399 16.748 14.9243 17.3027 14.2739Z" fill="black"/>
<path d="M18.0947 15.5354C16.8187 15.4594 15.7334 16.26 15.1227 16.26C14.5134 16.26 13.58 15.5738 12.5693 15.5922C11.256 15.6115 10.036 16.3547 9.36935 17.5366C7.99735 19.901 9.00669 23.4082 10.3414 25.3339C10.9894 26.2866 11.7693 27.3355 12.7987 27.2979C13.7707 27.2598 14.152 26.6684 15.3333 26.6684C16.5133 26.6684 16.8573 27.2979 17.8853 27.2788C18.952 27.2598 19.62 26.3256 20.268 25.372C21.0107 24.286 21.3147 23.2374 21.3347 23.1798C21.3147 23.1607 19.276 22.3787 19.2573 20.034C19.2387 18.0707 20.8573 17.1368 20.9347 17.079C20.02 15.7263 18.5907 15.5738 18.0947 15.5354Z" fill="black"/>
<path d="M29.2121 12.8789C31.9868 12.8789 33.9188 14.7917 33.9188 17.5765C33.9188 20.3711 31.9468 22.2938 29.1428 22.2938H26.0694V27.1797H23.8508V12.8789H29.2121ZM26.0694 20.4306H28.6175C30.5495 20.4306 31.6494 19.3902 31.6494 17.5863C31.6494 15.7827 30.5494 14.7521 28.6268 14.7521H26.0694V20.4306Z" fill="black"/>
<path d="M34.4987 24.2175C34.4987 22.3937 35.8961 21.274 38.3734 21.1352L41.228 20.9668V20.1641C41.228 19.0045 40.4454 18.3108 39.1374 18.3108C37.8974 18.3108 37.1254 18.9053 36.9374 19.8369H34.9147C35.0334 17.9539 36.6387 16.5664 39.216 16.5664C41.7427 16.5664 43.3587 17.9044 43.3587 19.9955V27.1805H41.3067V25.466H41.2574C40.6534 26.6256 39.3347 27.3589 37.9681 27.3589C35.9254 27.3589 34.4987 26.0904 34.4987 24.2175ZM41.228 23.276V22.4533L38.6614 22.6119C37.3827 22.7012 36.6587 23.266 36.6587 24.158C36.6587 25.0696 37.412 25.6643 38.5614 25.6643C40.0587 25.6643 41.228 24.6336 41.228 23.276Z" fill="black"/>
<path d="M45.2947 31.0151V29.2807C45.4533 29.3203 45.8106 29.3203 45.988 29.3203C46.98 29.3203 47.5147 28.9042 47.8413 27.8338C47.8413 27.8139 48.0307 27.1995 48.0307 27.1896L44.264 16.7539H46.5827L49.22 25.2374H49.2586L51.896 16.7539H54.1546L50.2493 27.7247C49.3587 30.252 48.328 31.0646 46.1666 31.0646C45.988 31.0646 45.4533 31.0447 45.2947 31.0151Z" fill="black"/>
</g>
</svg>
