<svg width="20" height="20" viewBox="0 0 20 20" fill="none" xmlns="http://www.w3.org/2000/svg">
<mask id="mask0_286_19983" style="mask-type:luminance" maskUnits="userSpaceOnUse" x="0" y="0" width="20" height="20">
<path d="M20 0H0V20H20V0Z" fill="white"/>
</mask>
<g mask="url(#mask0_286_19983)">
<mask id="mask1_286_19983" style="mask-type:luminance" maskUnits="userSpaceOnUse" x="0" y="0" width="20" height="20">
<path d="M20 0H0V20H20V0Z" fill="white"/>
</mask>
<g mask="url(#mask1_286_19983)">
<mask id="mask2_286_19983" style="mask-type:luminance" maskUnits="userSpaceOnUse" x="0" y="0" width="20" height="20">
<path d="M20 0H0V20H20V0Z" fill="white"/>
</mask>
<g mask="url(#mask2_286_19983)">
<path d="M17.1006 11.0016C17.1006 11.0016 17.0006 10.9016 17.0006 10.8016C16.9006 1.90156 12.6006 0.601562 10.0006 0.601562C7.40063 0.601562 3.10063 1.90156 2.90063 10.9016C2.90063 11.0016 2.90063 11.0016 2.80063 11.1016C2.10063 11.7016 0.100625 13.3016 0.900626 15.4016C1.10063 16.1016 1.80062 16.5016 2.60063 16.5016H6.50063C6.60063 18.4016 8.10063 19.8016 10.0006 19.8016C11.9006 19.8016 13.4006 18.3016 13.5006 16.5016H17.4006C18.2006 16.5016 18.8006 16.1016 19.1006 15.4016C19.8006 13.2016 17.9006 11.6016 17.1006 11.0016ZM10.0006 17.9016C9.10063 17.9016 8.40063 17.2016 8.30063 16.4016H11.7006C11.6006 17.3016 10.9006 17.9016 10.0006 17.9016ZM17.4006 14.6016H2.60063C2.50063 14.2016 2.60063 13.6016 4.00063 12.4016C4.50063 12.0016 4.70063 11.5016 4.70063 10.9016C4.80062 7.00156 5.80063 2.40156 10.0006 2.40156C14.2006 2.40156 15.2006 7.00156 15.3006 10.9016C15.3006 11.5016 15.6006 12.0016 16.0006 12.4016C17.4006 13.5016 17.5006 14.2016 17.4006 14.6016Z" fill="#222222"/>
</g>
</g>
</g>
</svg>
