<svg width="81" height="81" viewBox="0 0 81 81" fill="none" xmlns="http://www.w3.org/2000/svg">
<path d="M30.7924 36.6177C31.0963 35.1533 30.82 33.6476 30.0049 32.3904C29.1899 31.1333 27.9189 30.263 26.4546 29.9591C23.4154 29.3236 20.4315 31.2715 19.796 34.2968C19.1605 37.336 21.1084 40.32 24.1337 40.9554C24.5206 41.0383 24.9212 41.0798 25.308 41.0798C26.3855 41.0798 27.4492 40.762 28.3748 40.168C29.6319 39.353 30.5023 38.082 30.8062 36.6177H30.7924ZM28.513 36.1342L22.0478 34.7665C22.3793 33.2055 23.7469 32.1418 25.2804 32.1418C26.8138 32.1418 25.7362 32.1694 25.9573 32.2108C26.8276 32.3904 27.5598 32.9016 28.0433 33.6337C28.5268 34.3797 28.6925 35.25 28.513 36.1204V36.1342Z" fill="white"/>
<path d="M33.9692 29.4223C33.0712 30.6241 32.6982 32.1023 32.9054 33.5942C33.3061 36.3986 35.7236 38.4155 38.4727 38.4155C38.7352 38.4155 39.0115 38.4017 39.2739 38.3603C40.7659 38.153 42.0783 37.3656 42.9762 36.1638C43.8742 34.9619 44.2472 33.4837 44.04 31.9918C43.8327 30.4998 43.0453 29.1874 41.8434 28.2895C40.6416 27.3915 39.1634 27.0185 37.6714 27.2257C36.1795 27.433 34.8671 28.2204 33.9692 29.4223ZM35.8341 30.8175C36.3591 30.113 37.1327 29.6571 38.003 29.5328C38.1688 29.5051 38.3207 29.5051 38.4865 29.5051C39.191 29.5051 39.8818 29.7262 40.462 30.1682C41.1665 30.6932 41.6224 31.4668 41.7467 32.3371L35.1986 33.2765C35.0743 32.4062 35.2953 31.5359 35.8203 30.8313L35.8341 30.8175Z" fill="white"/>
<path d="M35.4199 38.8822C32.3945 38.1915 29.383 40.0979 28.6922 43.1233C28.0015 46.1486 29.9079 49.1602 32.9333 49.8509C33.3478 49.9476 33.7622 49.9891 34.1766 49.9891C36.7461 49.9891 39.067 48.2208 39.661 45.6099C40.3517 42.5845 38.4453 39.5729 35.4199 38.8822ZM37.4092 45.0987L30.9578 43.6344C31.3032 42.101 32.6708 41.0649 34.1766 41.0649C35.6824 41.0649 34.6601 41.0925 34.9088 41.1478C36.6909 41.5484 37.8098 43.3305 37.3954 45.0987H37.4092Z" fill="white"/>
<path d="M29.7144 28.728C29.7972 28.728 29.8801 28.728 29.9768 28.728C33.0713 28.5898 35.475 25.9513 35.3369 22.8568C35.2678 21.351 34.6185 19.9696 33.5134 18.9611C32.4082 17.9526 30.9715 17.4277 29.4657 17.4968C27.9599 17.5658 26.5785 18.2151 25.57 19.3203C24.5615 20.4255 24.0366 21.8622 24.1057 23.3679C24.2438 26.3795 26.7304 28.7418 29.7144 28.7418V28.728ZM27.283 20.8675C27.877 20.2182 28.6921 19.8314 29.5762 19.79C29.6315 19.79 29.6729 19.79 29.7282 19.79C30.557 19.79 31.3445 20.0939 31.9523 20.6603C32.6016 21.2543 32.9884 22.0694 33.0298 22.9535L26.4265 23.2574C26.3851 22.3733 26.689 21.5306 27.283 20.8813V20.8675Z" fill="white"/>
<path d="M44.3323 27.6262C45.1612 28.0683 46.0729 28.3032 46.9985 28.3032C47.9241 28.3032 48.0898 28.2203 48.6148 28.0683C50.0515 27.6401 51.2395 26.673 51.9579 25.3468C53.4361 22.6116 52.4138 19.1994 49.6785 17.7212C46.9432 16.2431 43.531 17.2653 42.0529 20.0006C41.3345 21.3268 41.1826 22.8464 41.6108 24.2831C42.0391 25.7198 43.0061 26.9079 44.3323 27.6262ZM47.0123 19.3651C47.5373 19.3651 48.076 19.4895 48.5733 19.7658C50.1758 20.6361 50.7837 22.6392 49.9134 24.2417L44.0974 21.1058C44.6915 20.0006 45.8381 19.3651 47.0123 19.3651Z" fill="white"/>
<path d="M58.518 35.3068C59.112 33.9253 59.1258 32.3919 58.5732 30.9966C58.0207 29.6014 56.9431 28.51 55.5617 27.916C52.7159 26.7003 49.4004 28.0265 48.1709 30.8723C47.5769 32.2538 47.563 33.7872 48.1156 35.1824C48.6682 36.5777 49.7457 37.6691 51.1272 38.2631C51.8456 38.567 52.5915 38.719 53.3375 38.719C55.5202 38.719 57.6062 37.4342 58.518 35.3068ZM56.3767 34.395L50.2983 31.7979C50.6437 30.9828 51.293 30.3612 52.108 30.0296C52.5087 29.8639 52.9231 29.7948 53.3375 29.7948C53.752 29.7948 54.2217 29.8777 54.6361 30.0573C55.4512 30.4026 56.0728 31.0519 56.4044 31.867C56.7359 32.682 56.7221 33.58 56.3767 34.395Z" fill="white"/>
<path d="M45.7958 38.3587C42.7704 39.0633 40.8916 42.0887 41.5824 45.1002C41.9277 46.5646 42.8119 47.8079 44.0828 48.6091C44.9807 49.1755 46.003 49.4656 47.0529 49.4656C48.1028 49.4656 47.9094 49.4104 48.3377 49.3137C49.802 48.9683 51.0453 48.0842 51.8466 46.8132C52.6478 45.5423 52.8965 44.0365 52.5511 42.5722C51.8466 39.5468 48.8212 37.668 45.8096 38.3587H45.7958ZM43.8341 44.5891C43.4197 42.807 44.5387 41.0388 46.3069 40.6243C46.5556 40.5691 46.8043 40.5414 47.0529 40.5414C48.5587 40.5414 49.9264 41.5775 50.2717 43.0971L43.8341 44.5891Z" fill="white"/>
<path d="M59.555 74.9811H56.5434L54.0015 53.168C60.6049 48.5401 64.9288 40.873 64.9288 32.2113C64.9288 23.5496 59.403 13.9071 51.3215 9.61074V5.65978C51.3215 5.3006 51.0314 5.0105 50.6722 5.0105H45.2569C44.5109 2.45481 42.1486 0.589844 39.3443 0.589844C36.5399 0.589844 34.1915 2.45481 33.4317 5.0105H28.0164C27.6572 5.0105 27.3671 5.3006 27.3671 5.65978V9.61074C19.2856 13.9071 13.7598 22.4306 13.7598 32.2113C13.7598 41.992 18.0837 48.5401 24.6871 53.168L22.1452 74.9811H19.1336C18.6087 74.9811 18.1804 75.4094 18.1804 75.9343V79.6366C18.1804 80.1616 18.6087 80.5898 19.1336 80.5898H59.555C60.0799 80.5898 60.5082 80.1616 60.5082 79.6366V75.9343C60.5082 75.4094 60.0799 74.9811 59.555 74.9811ZM44.359 74.9811H34.3296V69.0823H44.359V74.9811ZM34.6059 61.3738C34.5092 61.0008 34.4539 60.6002 34.4539 60.1858C34.4539 57.4919 36.6366 55.3092 39.3305 55.3092C42.0243 55.3092 41.8447 55.8342 42.715 56.6769L34.5921 61.3738H34.6059ZM44.0827 59.0115C44.1794 59.3845 44.2346 59.7851 44.2346 60.1996C44.2346 62.8934 42.0519 65.0761 39.3581 65.0761C36.6643 65.0761 36.8439 64.5512 35.9735 63.7085L44.0965 59.0115H44.0827ZM28.5413 51.1096C21.9932 47.3521 17.5726 40.279 17.5726 32.2113C17.5726 24.1436 22.0899 16.9048 28.7624 13.1887H49.94C56.6125 16.9186 61.1298 24.0469 61.1298 32.2113C61.1298 40.3757 56.7092 47.3521 50.1611 51.1096H28.5551H28.5413Z" fill="white"/>
</svg>
