<svg width="32" height="32" viewBox="0 0 32 32" fill="none" xmlns="http://www.w3.org/2000/svg">
<circle cx="16" cy="16" r="15.5" fill="white" stroke="#D1D1D1"/>
<path d="M9.49873 9.63604C10.0194 9.11534 10.8646 9.11534 11.3853 9.63604L16.0989 14.3496L21.0486 9.39988C21.5693 8.87947 22.4138 8.87997 22.9344 9.40057C23.4548 9.92119 23.4548 10.7651 22.9344 11.2857L17.9847 16.2355L22.699 20.9497C23.2194 21.4705 23.2189 22.315 22.6983 22.8356C22.1777 23.356 21.3338 23.3559 20.8131 22.8356L16.0989 18.1213L11.6207 22.5994C11.1001 23.12 10.2556 23.1206 9.73489 22.6001C9.21419 22.0794 9.21419 21.2343 9.73489 20.7136L14.213 16.2355L9.49942 11.5219C8.9788 11.0013 8.97826 10.1568 9.49873 9.63604Z" fill="#333333"/>
</svg>
