<svg width="26" height="21" viewBox="0 0 26 21" fill="none" xmlns="http://www.w3.org/2000/svg">
<mask id="mask0_2_78885" style="mask-type:alpha" maskUnits="userSpaceOnUse" x="0" y="0" width="20" height="20">
<mask id="mask1_2_78885" style="mask-type:alpha" maskUnits="userSpaceOnUse" x="0" y="0" width="20" height="19">
<path d="M0.742676 4.88953C0.742676 3.79001 1.63401 2.89868 2.73352 2.89868H17.2667C18.3662 2.89868 19.2576 3.79001 19.2576 4.88953V17.83H0.742676V4.88953Z" stroke="black"/>
<path d="M2.7334 8.98681C2.7334 8.3271 3.2682 7.7923 3.92791 7.7923H16.0721C16.7318 7.7923 17.2666 8.3271 17.2666 8.98681V17.8331H2.7334V8.98681Z" stroke="black"/>
<path d="M5.03809 1.42076C5.03809 1.31081 5.12722 1.22168 5.23717 1.22168H14.9652C15.0752 1.22168 15.1643 1.31081 15.1643 1.42076V2.89514H5.03809V1.42076Z" stroke="black"/>
</mask>
<g mask="url(#mask1_2_78885)">
<path d="M21.6465 18.228H15.1641V7.08051H5.03809V18.228H-1.44727V-2.27789H21.6465V18.228Z" fill="#ACACAC"/>
</g>
<path d="M3.53027 4.29181C3.96979 4.29204 4.32602 4.64817 4.32617 5.08771C4.32617 5.52737 3.96988 5.88435 3.53027 5.88458C3.09047 5.88458 2.7334 5.52751 2.7334 5.08771C2.73355 4.64803 3.09056 4.29181 3.53027 4.29181ZM6.71582 4.29181C7.15533 4.29205 7.51157 4.64818 7.51172 5.08771C7.51172 5.52736 7.15542 5.88434 6.71582 5.88458C6.27601 5.88458 5.91895 5.52751 5.91895 5.08771C5.91909 4.64803 6.27611 4.29181 6.71582 4.29181ZM9.90039 4.29181C10.3401 4.29181 10.6971 4.64803 10.6973 5.08771C10.6973 5.52751 10.3402 5.88458 9.90039 5.88458C9.46071 5.88443 9.10449 5.52742 9.10449 5.08771C9.10464 4.64812 9.4608 4.29196 9.90039 4.29181Z" fill="#ACACAC"/>
<path d="M5.03809 7.7926H15.1643V18.5099C15.1643 18.9032 14.8455 19.222 14.4522 19.222H5.7502C5.35691 19.222 5.03809 18.9032 5.03809 18.5099V7.7926Z" stroke="#ACACAC"/>
<g clip-path="url(#clip0_2_78885)">
<path d="M9.97546 14.8627L12.5838 11.9105C12.7024 11.7801 12.8921 11.7682 13.0225 11.8868L16.4371 14.9576C16.5675 15.0761 16.5794 15.2658 16.4608 15.3962C16.3422 15.5266 16.1525 15.5385 16.0221 15.4199L12.8328 12.5626L10.3786 15.3251L13.9947 19.2851C14.1133 19.4155 14.1014 19.6052 13.971 19.7237C13.8406 19.8423 13.6509 19.8304 13.5323 19.7L8.13775 13.7956L4.15407 17.6845C4.03551 17.803 3.83395 17.803 3.71539 17.6845C3.59682 17.5659 3.59682 17.3644 3.71539 17.2458L7.9362 13.1435C8.05476 13.025 8.25631 13.025 8.37487 13.1554L9.95175 14.8746L9.97546 14.8627Z" fill="#ACACAC" stroke="#ACACAC" stroke-width="0.2"/>
<path d="M7.06787 10.8709C7.06787 11.4865 7.56672 11.9748 8.17171 11.9748C8.78731 11.9748 9.27555 11.4865 9.27555 10.8709C9.27555 10.2553 8.78731 9.76709 8.17171 9.76709C7.55611 9.76709 7.06787 10.2553 7.06787 10.8709Z" fill="#ACACAC"/>
</g>
</mask>
<g mask="url(#mask0_2_78885)">
<rect y="0.5" width="20" height="20" fill="#767676"/>
</g>
<defs>
<clipPath id="clip0_2_78885">
<rect width="9.96956" height="10.6817" fill="white" transform="translate(5.01514 8.34314)"/>
</clipPath>
</defs>
</svg>
