<svg width="20" height="21" viewBox="0 0 20 21" fill="none" xmlns="http://www.w3.org/2000/svg">
<mask id="mask0_2_57445" style="mask-type:alpha" maskUnits="userSpaceOnUse" x="0" y="0" width="20" height="20">
<mask id="mask1_2_57445" style="mask-type:alpha" maskUnits="userSpaceOnUse" x="0" y="0" width="20" height="19">
<path d="M0.742188 5.1261C0.742188 4.02659 1.63352 3.13525 2.73304 3.13525H17.2662C18.3657 3.13525 19.2571 4.02659 19.2571 5.1261V18.0666H0.742188V5.1261Z" stroke="black"/>
<path d="M2.73242 9.22332C2.73242 8.56361 3.26722 8.02881 3.92693 8.02881H16.0711C16.7308 8.02881 17.2656 8.56361 17.2656 9.22332V18.0696H2.73242V9.22332Z" stroke="black"/>
<path d="M5.03809 1.65709C5.03809 1.54714 5.12722 1.45801 5.23717 1.45801H14.9652C15.0752 1.45801 15.1643 1.54714 15.1643 1.65709V3.13147H5.03809V1.65709Z" stroke="black"/>
</mask>
<g mask="url(#mask1_2_57445)">
<path d="M21.6465 18.4644H15.1641V7.31689H5.03809V18.4644H-1.44727V-2.0415H21.6465V18.4644Z" fill="#ACACAC"/>
</g>
<path d="M3.5293 4.52832C3.96882 4.52855 4.32505 4.88468 4.3252 5.32422C4.3252 5.76388 3.96891 6.12086 3.5293 6.12109C3.08949 6.12109 2.73242 5.76402 2.73242 5.32422C2.73257 4.88454 3.08958 4.52832 3.5293 4.52832ZM6.71484 4.52832C7.15435 4.52856 7.51059 4.88469 7.51074 5.32422C7.51074 5.76388 7.15444 6.12085 6.71484 6.12109C6.27504 6.12109 5.91797 5.76402 5.91797 5.32422C5.91812 4.88454 6.27513 4.52832 6.71484 4.52832ZM9.89941 4.52832C10.3391 4.52832 10.6961 4.88454 10.6963 5.32422C10.6963 5.76402 10.3392 6.12109 9.89941 6.12109C9.45974 6.12094 9.10352 5.76393 9.10352 5.32422C9.10366 4.88463 9.45983 4.52847 9.89941 4.52832Z" fill="#ACACAC"/>
<path d="M5.03809 8.0293H15.1643V18.7466C15.1643 19.1399 14.8455 19.4587 14.4522 19.4587H5.7502C5.35691 19.4587 5.03809 19.1399 5.03809 18.7466V8.0293Z" stroke="#ACACAC"/>
<g clip-path="url(#clip0_2_57445)">
<path d="M9.97497 15.0994L12.5833 12.1472C12.7019 12.0168 12.8916 12.0049 13.022 12.1235L16.4366 15.1942C16.567 15.3128 16.5789 15.5025 16.4603 15.6329C16.3418 15.7633 16.152 15.7752 16.0216 15.6566L12.8323 12.7993L10.3781 15.5618L13.9942 19.5218C14.1128 19.6522 14.1009 19.8419 13.9705 19.9604C13.8401 20.079 13.6504 20.0671 13.5318 19.9367L8.13726 14.0323L4.15358 17.9212C4.03502 18.0397 3.83346 18.0397 3.7149 17.9212C3.59634 17.8026 3.59634 17.6011 3.7149 17.4825L7.93571 13.3802C8.05427 13.2617 8.25582 13.2617 8.37438 13.3921L9.95126 15.1113L9.97497 15.0994Z" fill="#ACACAC" stroke="#ACACAC" stroke-width="0.2"/>
<path d="M7.06738 11.1073C7.06738 11.7229 7.56623 12.2111 8.17122 12.2111C8.78682 12.2111 9.27506 11.7229 9.27506 11.1073C9.27506 10.4917 8.78682 10.0034 8.17122 10.0034C7.55562 10.0034 7.06738 10.4917 7.06738 11.1073Z" fill="#ACACAC"/>
</g>
</mask>
<g mask="url(#mask0_2_57445)">
<rect y="0.736328" width="20" height="20" fill="url(#paint0_linear_2_57445)"/>
</g>
<defs>
<linearGradient id="paint0_linear_2_57445" x1="20" y1="10.6462" x2="-2.31107e-07" y2="10.6462" gradientUnits="userSpaceOnUse">
<stop stop-color="#FF2AA1"/>
<stop offset="1" stop-color="#AB31D3"/>
</linearGradient>
<clipPath id="clip0_2_57445">
<rect width="9.96956" height="10.6817" fill="white" transform="translate(5.01465 8.57959)"/>
</clipPath>
</defs>
</svg>
