<svg width="20" height="21" viewBox="0 0 20 21" fill="none" xmlns="http://www.w3.org/2000/svg">
<mask id="mask0_2_78921" style="mask-type:alpha" maskUnits="userSpaceOnUse" x="0" y="0" width="20" height="20">
<mask id="mask1_2_78921" style="mask-type:alpha" maskUnits="userSpaceOnUse" x="0" y="0" width="20" height="19">
<path d="M0.742676 5.03894C0.742676 3.93943 1.63401 3.0481 2.73352 3.0481H17.2667C18.3662 3.0481 19.2576 3.93943 19.2576 5.03894V17.9795H0.742676V5.03894Z" stroke="black"/>
<path d="M2.7334 9.13616C2.7334 8.47645 3.2682 7.94165 3.92791 7.94165H16.0721C16.7318 7.94165 17.2666 8.47645 17.2666 9.13616V17.9824H2.7334V9.13616Z" stroke="black"/>
<path d="M5.03809 1.57018C5.03809 1.46023 5.12722 1.37109 5.23717 1.37109H14.9652C15.0752 1.37109 15.1643 1.46023 15.1643 1.57018V3.04455H5.03809V1.57018Z" stroke="black"/>
</mask>
<g mask="url(#mask1_2_78921)">
<path d="M21.6465 18.3774H15.1641V7.22998H5.03809V18.3774H-1.44727V-2.12842H21.6465V18.3774Z" fill="white"/>
</g>
<path d="M3.53027 4.44128C3.96979 4.44151 4.32602 4.79764 4.32617 5.23718C4.32617 5.67685 3.96988 6.03383 3.53027 6.03406C3.09047 6.03406 2.7334 5.67699 2.7334 5.23718C2.73355 4.7975 3.09056 4.44128 3.53027 4.44128ZM6.71582 4.44128C7.15533 4.44153 7.51157 4.79765 7.51172 5.23718C7.51172 5.67684 7.15542 6.03382 6.71582 6.03406C6.27601 6.03406 5.91895 5.67699 5.91895 5.23718C5.91909 4.7975 6.27611 4.44128 6.71582 4.44128ZM9.90039 4.44128C10.3401 4.44128 10.6971 4.7975 10.6973 5.23718C10.6973 5.67699 10.3402 6.03406 9.90039 6.03406C9.46071 6.03391 9.10449 5.6769 9.10449 5.23718C9.10464 4.7976 9.4608 4.44144 9.90039 4.44128Z" fill="white"/>
<path d="M5.03809 7.94202H15.1643V18.6593C15.1643 19.0526 14.8455 19.3714 14.4522 19.3714H5.7502C5.35691 19.3714 5.03809 19.0526 5.03809 18.6593V7.94202Z" stroke="white"/>
<g clip-path="url(#clip0_2_78921)">
<path d="M9.97546 15.0121L12.5838 12.0599C12.7024 11.9295 12.8921 11.9176 13.0225 12.0362L16.4371 15.107C16.5675 15.2255 16.5794 15.4152 16.4608 15.5456C16.3422 15.6761 16.1525 15.6879 16.0221 15.5694L12.8328 12.712L10.3786 15.4745L13.9947 19.4345C14.1133 19.5649 14.1014 19.7546 13.971 19.8731C13.8406 19.9917 13.6509 19.9799 13.5323 19.8494L8.13775 13.9451L4.15407 17.8339C4.03551 17.9525 3.83395 17.9525 3.71539 17.8339C3.59682 17.7153 3.59682 17.5138 3.71539 17.3952L7.9362 13.293C8.05476 13.1744 8.25631 13.1744 8.37487 13.3048L9.95175 15.024L9.97546 15.0121Z" fill="white" stroke="white" strokeWidth="0.2"/>
<path d="M7.06787 11.0203C7.06787 11.6359 7.56672 12.1242 8.17171 12.1242C8.78731 12.1242 9.27555 11.6359 9.27555 11.0203C9.27555 10.4047 8.78731 9.9165 8.17171 9.9165C7.55611 9.9165 7.06787 10.4047 7.06787 11.0203Z" fill="white"/>
</g>
</mask>
<g mask="url(#mask0_2_78921)">
<rect y="0.649414" width="20" height="20" fill="white"/>
</g>
<defs>
<clipPath id="clip0_2_78921">
<rect width="9.96956" height="10.6817" fill="white" transform="translate(5.01514 8.49255)"/>
</clipPath>
</defs>
</svg>
