<svg width="120" height="120" viewBox="0 0 120 120" fill="none" xmlns="http://www.w3.org/2000/svg">
<rect width="120" height="120" fill="white"/>
<path d="M110.571 42.0007H9.42773V8.14355H110.571V42.0007Z" fill="#00A041"/>
<path d="M110.571 83.1438H9.42773V49.2866H110.571V83.1438Z" fill="#008CD6"/>
<path d="M9.42773 93.4277V108.856H12.5955V102.099H19.1787V99.1323H12.5955V96.4116H19.2849V93.4277H9.42773Z" fill="#008CD6"/>
<path d="M28.8853 106.571V101.505C28.8853 99.8397 28.0023 97.7139 24.2901 97.7139C20.5779 97.7139 21.6411 98.0327 20.8302 98.3516V101.115C21.7492 100.548 22.7583 100.247 23.8756 100.247C24.9929 100.247 25.8759 100.584 25.8759 101.735V101.806C25.3893 101.629 24.7586 101.523 24.1099 101.523C21.569 101.523 19.7129 102.834 19.7129 105.385C19.7129 107.936 21.8033 108.857 23.4791 108.857C25.155 108.857 25.4254 108.52 26.02 108.06C26.0741 108.378 26.1642 108.644 26.2543 108.786H29.57C29.1736 108.467 28.8853 107.829 28.8853 106.554M22.7223 105.066C22.7223 104.198 23.4791 103.631 24.5423 103.631C25.6056 103.631 25.5335 103.755 25.8759 103.932V105.792C25.5695 106.058 25.0469 106.377 24.272 106.377C23.4972 106.377 22.7223 105.827 22.7223 105.066Z" fill="#008CD6"/>
<path d="M94.0278 106.571V101.505C94.0278 99.8397 93.1448 97.7139 89.4326 97.7139C85.7205 97.7139 86.7837 98.0327 85.9727 98.3516V101.115C86.8918 100.548 87.9189 100.247 89.0182 100.247C90.1174 100.247 91.0184 100.584 91.0184 101.735V101.806C90.5139 101.629 89.9012 101.523 89.2524 101.523C86.7116 101.523 84.8555 102.834 84.8555 105.385C84.8555 107.936 86.9458 108.857 88.6217 108.857C90.2976 108.857 90.5679 108.52 91.1626 108.06C91.2167 108.378 91.3068 108.644 91.3969 108.786H94.7126C94.3162 108.467 94.0278 107.829 94.0278 106.554M87.8829 105.066C87.8829 104.198 88.6398 103.631 89.703 103.631C90.7662 103.631 90.6941 103.755 91.0365 103.932V105.792C90.7301 106.058 90.2075 106.377 89.4326 106.377C88.6578 106.377 87.8829 105.827 87.8829 105.066Z" fill="#008CD6"/>
<path d="M42.2612 97.7318C40.98 97.7318 40.0192 98.0374 39.1473 98.9899C38.5245 98.1991 37.5459 97.7318 36.3537 97.7318C35.1615 97.7318 34.4676 98.0194 33.6313 98.7563V97.8397H30.8555V108.857H33.8448V101.434C34.2007 100.985 34.7167 100.607 35.4106 100.607C36.1046 100.607 36.8163 101.236 36.8163 102.351V108.857H39.859V101.344C40.1971 100.913 40.7131 100.589 41.4071 100.589C42.101 100.589 42.8128 101.29 42.8128 102.333V108.839H45.8555V101.201C45.8555 99.1337 44.5387 97.7139 42.2434 97.7139" fill="#008CD6"/>
<path d="M56.1426 93.4277H53.1426V109.285H56.1426V93.4277Z" fill="#008CD6"/>
<path d="M76.2947 98.3526L72.306 93.4277H69V109.285H72.306V98.3526L76.2947 103.656L80.2834 98.3526V109.285H83.5714V93.4277H80.2834L76.2947 98.3526Z" fill="#008CD6"/>
<path d="M51 98.1431H48V109.286H51V98.1431Z" fill="#008CD6"/>
<path d="M49.4989 93C48.4373 93 47.5703 93.867 47.5703 94.9286C47.5703 95.9902 48.4373 96.8571 49.4989 96.8571C50.5605 96.8571 51.4275 95.9902 51.4275 94.9286C51.4275 93.867 50.5605 93 49.4989 93Z" fill="#008CD6"/>
<path d="M98.8825 98.9899V97.8397H96V108.857H99.0078V101.937C99.4375 101.38 100.154 100.877 101.174 100.877C102.195 100.877 102.535 101.183 102.857 101.434V98.1093C102.481 97.8397 101.89 97.7139 101.389 97.7139C100.53 97.7139 99.5987 98.0374 98.8646 99.0079" fill="#008CD6"/>
<path d="M109.263 106.334C108.3 106.334 107.936 105.591 107.936 104.758V100.974H110.535V98.0581H107.936V93.8569L104.92 95.1245V98.04H103.285V100.956H104.92V105.193C104.92 107.493 105.847 109.286 108.572 109.286C111.298 109.286 110.098 109.159 110.571 108.978V105.899C110.353 106.153 109.917 106.316 109.263 106.316" fill="#008CD6"/>
<path d="M59.6505 111.857H63.0402L68.1429 98.1431H64.8252L62.7337 104.023L60.4438 98.1431H57L61.165 108.02L59.6505 111.857Z" fill="#008CD6"/>
</svg>
