<svg width="20" height="20" viewBox="0 0 20 20" fill="none" xmlns="http://www.w3.org/2000/svg">
<mask id="mask0_646_28570" style="mask-type:alpha" maskUnits="userSpaceOnUse" x="0" y="2" width="20" height="16">
<rect x="2.7793" y="7.0791" width="14.5465" height="8.73837" stroke="#FE7878"/>
<rect x="1.20898" y="5.40479" width="17.5814" height="1.67442" rx="0.837209" stroke="#FE7878"/>
<rect x="4.03516" y="2.78809" width="11.9302" height="2.61628" rx="0.209302" stroke="#FE7878"/>
<path d="M10.0035 9.69466C10.243 8.93464 10.9258 8.56885 11.5931 8.56885C12.391 8.56885 13 9.22867 13 10.0241C13 10.985 12.4707 11.6947 11.9268 12.3471C11.4046 12.971 10.0035 14.1073 10.0035 14.1073H9.98894C9.98894 14.1073 8.59492 12.971 8.07317 12.3471C7.52928 11.6947 7 10.985 7 10.0241C7 9.21379 7.63107 8.56885 8.41393 8.56885C9.07376 8.56885 9.74952 8.93464 9.98894 9.69466H10.0035Z" stroke="#FE7878" stroke-miterlimit="10" stroke-linecap="round" stroke-linejoin="round"/>
<rect x="1" y="15.8174" width="18" height="1.5" rx="0.75" stroke="#FE7878"/>
</mask>
<g mask="url(#mask0_646_28570)">
<rect width="20" height="20" fill="#FFf"/>
</g>
</svg>
