<svg width="17" height="17" viewBox="0 0 17 17" fill="none" xmlns="http://www.w3.org/2000/svg">
<mask id="mask0_345_5407" style="mask-type:alpha" maskUnits="userSpaceOnUse" x="0" y="0" width="17" height="17">
<path d="M8.49967 12.4414V10.4414M8.49967 10.4414V8.44141M8.49967 10.4414H6.49967M8.49967 10.4414H10.4997M9.16634 2.44199C9.10268 2.44141 9.0312 2.44141 8.94948 2.44141H5.96647C5.21973 2.44141 4.84609 2.44141 4.56087 2.58673C4.30999 2.71456 4.10616 2.91839 3.97833 3.16927C3.83301 3.45449 3.83301 3.82813 3.83301 4.57487V12.3082C3.83301 13.0549 3.83301 13.4281 3.97833 13.7133C4.10616 13.9642 4.30999 14.1684 4.56087 14.2962C4.84581 14.4414 5.21901 14.4414 5.9643 14.4414L11.0351 14.4414C11.7803 14.4414 12.153 14.4414 12.4379 14.2962C12.6888 14.1684 12.8933 13.9642 13.0212 13.7133C13.1663 13.4284 13.1663 13.0557 13.1663 12.3105V6.65853C13.1663 6.57671 13.1663 6.50514 13.1657 6.44141M9.16634 2.44199C9.35677 2.44372 9.47723 2.45064 9.59224 2.47825C9.72828 2.51091 9.85824 2.56492 9.97754 2.63802C10.1121 2.72045 10.2276 2.83595 10.458 3.06641L12.5417 5.15006C12.7723 5.38066 12.8869 5.49565 12.9694 5.6302C13.0425 5.7495 13.0966 5.87958 13.1292 6.01562C13.1568 6.13058 13.1639 6.25108 13.1657 6.44141M9.16634 2.44199V4.30807C9.16634 5.05481 9.16634 5.42792 9.31167 5.71313C9.4395 5.96402 9.64332 6.16839 9.89421 6.29622C10.1791 6.44141 10.5523 6.44141 11.2976 6.44141H13.1657M13.1657 6.44141H13.1665" stroke="#FF2AA1" strokeWidth="1.33333" strokeLinecap="round" strokeLinejoin="round"/>
</mask>
<g mask="url(#mask0_345_5407)">
<rect x="0.5" y="0.441406" width="16" height="16" fill="white"/>
</g>
</svg>
