<svg width="17" height="16" viewBox="0 0 17 16" fill="none" xmlns="http://www.w3.org/2000/svg">
<g clip-path="url(#clip0_345_10784)">
<path fill-rule="evenodd" clip-rule="evenodd" d="M4.83428 2.20924C3.33286 2.20924 2.09987 3.44752 2.09987 5.03923C2.09987 7.05041 3.19939 8.55848 4.45608 10.0659C5.02871 10.7506 6.10508 11.742 7.06396 12.5813C7.53838 12.9964 7.97572 13.3672 8.2945 13.6342C8.36677 13.6947 8.43292 13.7498 8.49198 13.799C8.55158 13.7496 8.61838 13.6943 8.6914 13.6334C9.01171 13.3664 9.45109 12.9957 9.92759 12.5804C10.8908 11.7412 11.9711 10.7499 12.5439 10.0656C13.8005 8.55831 14.8999 7.05029 14.8999 5.03923C14.8999 3.47092 13.7074 2.20924 12.1818 2.20924C10.8249 2.20924 9.48684 2.94574 9.01675 4.43802C8.94679 4.66008 8.74087 4.81111 8.50805 4.81111H8.4743C8.24148 4.81111 8.03556 4.66008 7.96561 4.43802C7.49443 2.94229 6.16968 2.20924 4.83428 2.20924ZM8.4743 14.4759C8.13733 14.8894 8.1373 14.8892 8.13726 14.8892L8.12749 14.8812L8.09969 14.8585L7.9941 14.7716C7.90276 14.6963 7.77119 14.5873 7.60963 14.4519C7.28666 14.1814 6.84321 13.8055 6.36148 13.384C5.40815 12.5496 4.27088 11.5072 3.63761 10.7499C2.38047 9.24199 1.0332 7.46914 1.0332 5.03923C1.0332 2.88538 2.71714 1.14258 4.83428 1.14258C6.21676 1.14258 7.65404 1.76529 8.49201 3.06408C9.33573 1.76345 10.7882 1.14258 12.1818 1.14258C14.3444 1.14258 15.9665 2.93074 15.9665 5.03923C15.9665 7.46914 14.6198 9.24138 13.3626 10.7493C12.7285 11.5071 11.5857 12.5505 10.6283 13.3847C10.1444 13.8063 9.69887 14.1823 9.37432 14.4528C9.21199 14.588 9.07976 14.6971 8.98797 14.7724L8.88183 14.8594L8.8539 14.8821L8.84473 14.8896C8.84469 14.8896 8.844 14.8901 8.50805 14.4759L8.84473 14.8896C8.74973 14.9666 8.63038 15.0092 8.50805 15.0092H8.4743C8.35152 15.0092 8.23242 14.9668 8.13726 14.8892L8.4743 14.4759Z" fill="#363636"/>
<path d="M8.13726 14.8892C8.1373 14.8892 8.13733 14.8894 8.4743 14.4759L8.13726 14.8892ZM8.13726 14.8892L8.12749 14.8812L8.09969 14.8585L7.9941 14.7716C7.90276 14.6963 7.77119 14.5873 7.60963 14.4519C7.28666 14.1814 6.84321 13.8055 6.36148 13.384C5.40815 12.5496 4.27088 11.5072 3.63761 10.7499C2.38047 9.24199 1.0332 7.46914 1.0332 5.03923C1.0332 2.88538 2.71714 1.14258 4.83428 1.14258C6.21676 1.14258 7.65404 1.76529 8.49201 3.06408C9.33573 1.76345 10.7882 1.14258 12.1818 1.14258C14.3444 1.14258 15.9665 2.93074 15.9665 5.03923C15.9665 7.46914 14.6198 9.24138 13.3626 10.7493C12.7285 11.5071 11.5857 12.5505 10.6283 13.3847C10.1444 13.8063 9.69887 14.1823 9.37432 14.4528C9.21199 14.588 9.07976 14.6971 8.98797 14.7724L8.88183 14.8594L8.8539 14.8821L8.84473 14.8896M8.13726 14.8892C8.23242 14.9668 8.35152 15.0092 8.4743 15.0092H8.50805C8.63038 15.0092 8.74973 14.9666 8.84473 14.8896M8.84473 14.8896C8.84469 14.8896 8.844 14.8901 8.50805 14.4759L8.84473 14.8896ZM4.83428 2.20924C3.33286 2.20924 2.09987 3.44752 2.09987 5.03923C2.09987 7.05041 3.19939 8.55848 4.45608 10.0659C5.02871 10.7506 6.10508 11.742 7.06396 12.5813C7.53838 12.9964 7.97572 13.3672 8.2945 13.6342C8.36677 13.6947 8.43292 13.7498 8.49198 13.799C8.55158 13.7496 8.61838 13.6943 8.6914 13.6334C9.01171 13.3664 9.45109 12.9957 9.92759 12.5804C10.8908 11.7412 11.9711 10.7499 12.5439 10.0656C13.8005 8.55831 14.8999 7.05029 14.8999 5.03923C14.8999 3.47092 13.7074 2.20924 12.1818 2.20924C10.8249 2.20924 9.48684 2.94574 9.01674 4.43802C8.94679 4.66008 8.74087 4.81111 8.50805 4.81111H8.4743C8.24148 4.81111 8.03556 4.66008 7.96561 4.43802C7.49443 2.94229 6.16968 2.20924 4.83428 2.20924Z" stroke="#363636" stroke-width="0.2"/>
</g>
<defs>
<clipPath id="clip0_345_10784">
<rect width="16" height="14.9333" fill="white" transform="translate(0.5 0.609375)"/>
</clipPath>
</defs>
</svg>
