<svg width="21" height="20" viewBox="0 0 21 20" fill="none" xmlns="http://www.w3.org/2000/svg">
<path d="M9.92676 2.13623L9.49763 1.68184L9.49755 1.68191L9.92676 2.13623ZM10.6133 2.13623L11.0425 1.68191L11.0425 1.68188L10.6133 2.13623ZM18.8828 9.94873L19.3125 9.49489L19.312 9.49441L18.8828 9.94873ZM18.5391 10.812V11.437H18.5392L18.5391 10.812ZM17.2695 10.812V10.187H16.6445V10.812H17.2695ZM17.2695 17.812L17.8945 17.8121V17.812H17.2695ZM16.2695 18.812V19.437V18.812ZM12.2695 18.812H11.6445V19.437H12.2695V18.812ZM12.2695 13.812H12.8945H12.2695ZM10.2695 11.812V11.187H10.2694L10.2695 11.812ZM8.26953 13.812H7.64453H8.26953ZM8.26953 18.812V19.437H8.89453V18.812H8.26953ZM4.26953 18.812L4.26925 19.437H4.26953V18.812ZM3.26953 17.812H2.64453V17.8121L3.26953 17.812ZM3.26953 10.812H3.89453V10.187H3.26953V10.812ZM2.00098 10.812L2.00093 11.437H2.00098V10.812ZM1.65723 9.94873L1.22802 9.49441L1.22756 9.49485L1.65723 9.94873ZM9.92676 2.13623L10.3559 2.59062C10.3078 2.63607 10.2323 2.63614 10.1841 2.59058L10.6133 2.13623L11.0425 1.68188C10.6088 1.27229 9.93116 1.27241 9.49763 1.68184L9.92676 2.13623ZM10.6133 2.13623L10.1841 2.59055L18.4536 10.403L18.8828 9.94873L19.312 9.49441L11.0425 1.68191L10.6133 2.13623ZM18.8828 9.94873L18.4531 10.4026C18.4393 10.3895 18.4235 10.3646 18.4175 10.3334C18.4121 10.3057 18.4161 10.2827 18.4228 10.2657C18.4296 10.2487 18.4426 10.2292 18.4655 10.2128C18.4914 10.1942 18.5199 10.187 18.5389 10.187L18.5391 10.812L18.5392 11.437C19.5565 11.4368 20.0508 10.1939 19.3125 9.49489L18.8828 9.94873ZM18.5391 10.812V10.187H17.2695V10.812V11.437H18.5391V10.812ZM17.2695 10.812H16.6445V17.812H17.2695H17.8945V10.812H17.2695ZM17.2695 17.812L16.6445 17.8119C16.6445 18.0191 16.4765 18.187 16.2695 18.187V18.812V19.437C17.167 19.437 17.8944 18.7093 17.8945 17.8121L17.2695 17.812ZM16.2695 18.812V18.187H12.2695V18.812V19.437H16.2695V18.812ZM12.2695 18.812H12.8945V13.812H12.2695H11.6445V18.812H12.2695ZM12.2695 13.812H12.8945C12.8945 12.3623 11.7193 11.187 10.2695 11.187V11.812V12.437C11.0289 12.437 11.6445 13.0526 11.6445 13.812H12.2695ZM10.2695 11.812L10.2694 11.187C8.8201 11.1873 7.64453 12.3623 7.64453 13.812H8.26953H8.89453C8.89453 13.0529 9.51024 12.4372 10.2697 12.437L10.2695 11.812ZM8.26953 13.812H7.64453V18.812H8.26953H8.89453V13.812H8.26953ZM8.26953 18.812V18.187H4.26953V18.812V19.437H8.26953V18.812ZM4.26953 18.812L4.26981 18.187C4.0626 18.1869 3.89457 18.0187 3.89453 17.8119L3.26953 17.812L2.64453 17.8121C2.6447 18.7094 3.37244 19.4366 4.26925 19.437L4.26953 18.812ZM3.26953 17.812H3.89453V10.812H3.26953H2.64453V17.812H3.26953ZM3.26953 10.812V10.187H2.00098V10.812V11.437H3.26953V10.812ZM2.00098 10.812L2.00103 10.187C2.02 10.187 2.04853 10.1942 2.07445 10.2128C2.09738 10.2292 2.11039 10.2487 2.11717 10.2657C2.12394 10.2827 2.12786 10.3058 2.12251 10.3334C2.11647 10.3647 2.10072 10.3895 2.0869 10.4026L1.65723 9.94873L1.22756 9.49485C0.489195 10.1938 0.983434 11.4369 2.00093 11.437L2.00098 10.812ZM1.65723 9.94873L2.08644 10.403L10.356 2.59055L9.92676 2.13623L9.49755 1.68191L1.22802 9.49441L1.65723 9.94873Z" fill="black"/>
</svg>
