<svg width="21" height="19" viewBox="0 0 21 19" fill="none" xmlns="http://www.w3.org/2000/svg">
<mask id="mask0_537_29449" style="mask-type:luminance" maskUnits="userSpaceOnUse" x="0" y="0" width="21" height="20">
<path d="M20.4399 0.5H0.439941V19.5H20.4399V0.5Z" fill="white"/>
</mask>
<g mask="url(#mask0_537_29449)">
<path d="M0.439941 0.5V2H3.93994L3.63994 0.5H0.439941Z" fill="black"/>
<path d="M6.23994 6L5.43994 2H3.93994L4.83994 6.3L6.23994 6Z" fill="black"/>
<path d="M5.14014 0.5H3.64014L3.94014 2H5.44014L5.14014 0.5Z" fill="black"/>
<path d="M18.6399 6L17.2399 13H7.63994L6.23994 6H18.5399M20.4399 4.5H4.43994L6.43994 14.5H18.4399L20.4399 4.5Z" fill="black"/>
<path d="M8.43994 19.5C9.26837 19.5 9.93994 18.8284 9.93994 18C9.93994 17.1716 9.26837 16.5 8.43994 16.5C7.61151 16.5 6.93994 17.1716 6.93994 18C6.93994 18.8284 7.61151 19.5 8.43994 19.5Z" fill="black"/>
<path d="M16.4399 19.5C17.2683 19.5 17.9399 18.8284 17.9399 18C17.9399 17.1716 17.2683 16.5 16.4399 16.5C15.6115 16.5 14.9399 17.1716 14.9399 18C14.9399 18.8284 15.6115 19.5 16.4399 19.5Z" fill="black"/>
</g>
</svg>
