<svg width="14" height="16" viewBox="0 0 14 16" fill="none" xmlns="http://www.w3.org/2000/svg">
<g clip-path="url(#clip0_537_29425)">
<path d="M6.97602 5.64758C6.8202 5.64758 6.6748 5.70835 6.56673 5.81859L3.99729 8.52605C3.87663 8.64932 3.815 8.82206 3.83149 8.98873C3.84408 9.1146 3.90051 9.21789 3.99035 9.27953C4.22299 9.5139 4.51683 9.50869 4.73644 9.28474L6.4183 7.48005V12.3525C6.4183 12.6545 6.64096 12.882 6.93566 12.882C7.2308 12.882 7.45346 12.6545 7.45346 12.3525V7.56209L9.13575 9.36808C9.24513 9.47919 9.37273 9.53822 9.50468 9.53822C9.63748 9.53822 9.76509 9.47919 9.87447 9.36722C9.99513 9.24396 10.0568 9.07121 10.0403 8.90454C10.0272 8.77868 9.97083 8.67538 9.88141 8.61461L7.38445 5.81731C7.27768 5.70837 7.13227 5.64758 6.97602 5.64758Z" fill="white"/>
<path d="M12.7651 3.68576L9.63313 0.485669C9.37966 0.226123 9.05761 0.0885315 8.70257 0.0885315H2.19911C1.5026 0.0885404 0.901365 0.582843 0.7538 1.22059C0.731231 1.31809 0.717773 1.41834 0.717773 1.52127V14.5677C0.717773 14.6755 0.731605 14.7796 0.7538 14.8806C0.894102 15.5201 1.45167 16 2.11881 16H11.7529C12.5255 16 13.154 15.3576 13.154 14.5677V4.63932C13.154 4.31684 12.9908 3.91579 12.7651 3.68576ZM12.0385 14.5677C12.0385 14.6727 11.937 14.776 11.8337 14.776H2.19911C2.09364 14.776 1.99424 14.6745 1.99424 14.5677V1.43923C1.99424 1.33202 2.09364 1.2309 2.19911 1.2309H8.66612V4.67707H12.0385V14.5677Z" fill="white"/>
</g>
<defs>
<clipPath id="clip0_537_29425">
<rect width="12.4444" height="16" fill="white" transform="translate(0.717773)"/>
</clipPath>
</defs>
</svg>
