<svg width="17" height="20" viewBox="0 0 17 20" fill="none" xmlns="http://www.w3.org/2000/svg">
<g clipPath="url(#clip0_537_29467)">
<path d="M12.8399 10.6C13.8399 9.5 14.4399 8.1 14.4399 6.5C14.4399 3.2 11.7399 0.5 8.43994 0.5C5.13994 0.5 2.43994 3.2 2.43994 6.5C2.43994 9.8 3.03994 9.5 4.03994 10.6C1.83994 11.9 0.439941 14.3 0.439941 17V19.5H16.4399V17C16.4399 14.3 14.9399 11.9 12.8399 10.6ZM14.9399 18H1.93994V17C1.93994 14.6 3.33994 12.6 5.33994 11.6C6.23994 12.2 7.33994 12.5 8.43994 12.5C9.53994 12.5 10.6399 12.2 11.5399 11.6C13.5399 12.6 14.9399 14.6 14.9399 17V18ZM3.93994 6.5C3.93994 4 5.93994 2 8.43994 2C10.9399 2 12.9399 4 12.9399 6.5C12.9399 9 12.3399 9.1 11.3399 9.9C11.1399 10.1 10.9399 10.2 10.7399 10.3C10.0399 10.7 9.23994 11 8.43994 11C7.63994 11 6.83994 10.8 6.13994 10.4C5.93994 10.3 5.73994 10.1 5.53994 9.9C4.53994 9.1 3.93994 7.9 3.93994 6.5Z" fill="#222222"/>
</g>
<defs>
<clipPath id="clip0_537_29467">
<rect width="16" height="19" fill="white" transform="translate(0.439941 0.5)"/>
</clipPath>
</defs>
</svg>
