<svg width="48" height="48" viewBox="0 0 48 48" fill="none" xmlns="http://www.w3.org/2000/svg">
<path d="M0 4C0 1.79086 1.79086 0 4 0H44C46.2091 0 48 1.79086 48 4V44C48 46.2091 46.2091 48 44 48H4C1.79086 48 0 46.2091 0 44V4Z" fill="#06C755"/>
<path d="M36 22.3088C36 16.9442 30.6129 12.5693 24 12.5693C17.3871 12.5693 12 16.933 12 22.3088C12 27.6846 16.2737 31.1485 22.0319 31.9133C22.4255 32.0033 22.9541 32.172 23.089 32.5094C23.2128 32.813 23.1678 33.2854 23.1228 33.589C23.1228 33.589 22.9766 34.4325 22.9541 34.6125C22.8978 34.9161 22.7179 35.7933 23.9888 35.2647C25.2709 34.7249 30.8941 31.1935 33.4133 28.3032C35.1565 26.3913 35.9888 24.4569 35.9888 22.3088H36Z" fill="white"/>
<path d="M32.0071 25.4134H28.6331C28.5094 25.4134 28.4082 25.3122 28.4082 25.1884V19.9588C28.4082 19.8239 28.5094 19.7227 28.6331 19.7227H32.0071C32.1308 19.7227 32.232 19.8239 32.232 19.9476V20.8023C32.232 20.926 32.1308 21.0272 32.0071 21.0272H29.7128V21.9157H32.0071C32.1308 21.9157 32.232 22.0169 32.232 22.1407V22.9954C32.232 23.1191 32.1308 23.2203 32.0071 23.2203H29.7128V24.1088H32.0071C32.1308 24.1088 32.232 24.21 32.232 24.3337V25.1884C32.232 25.3122 32.1308 25.4134 32.0071 25.4134Z" fill="#06C755"/>
<path d="M19.5344 25.4134C19.6581 25.4134 19.7594 25.3122 19.7594 25.1884V24.3337C19.7594 24.21 19.6581 24.1088 19.5344 24.1088H17.2401V19.9476C17.2401 19.8239 17.1389 19.7227 17.0152 19.7227H16.1605C16.0368 19.7227 15.9355 19.8239 15.9355 19.9476V25.1772C15.9355 25.3122 16.0368 25.4134 16.1605 25.4134H19.5344Z" fill="#06C755"/>
<path d="M21.5582 19.7227H20.7034C20.5792 19.7227 20.4785 19.8234 20.4785 19.9476V25.1884C20.4785 25.3127 20.5792 25.4134 20.7034 25.4134H21.5582C21.6824 25.4134 21.7831 25.3127 21.7831 25.1884V19.9476C21.7831 19.8234 21.6824 19.7227 21.5582 19.7227Z" fill="#06C755"/>
<path d="M27.3509 19.7227H26.4962C26.3724 19.7227 26.2712 19.8239 26.2712 19.9476V23.0629L23.8757 19.8239C23.8757 19.8239 23.8645 19.8126 23.8532 19.8014C23.8532 19.8014 23.8532 19.8014 23.842 19.7901C23.842 19.7901 23.842 19.7901 23.8307 19.7901C23.8307 19.7901 23.8307 19.7901 23.8195 19.7901C23.8195 19.7901 23.8195 19.7901 23.8082 19.7901C23.8082 19.7901 23.8082 19.7901 23.797 19.7901C23.797 19.7901 23.797 19.7901 23.7857 19.7901C23.7857 19.7901 23.7858 19.7901 23.7745 19.7901C23.7745 19.7901 23.7745 19.7901 23.7633 19.7901C23.7633 19.7901 23.7633 19.7901 23.752 19.7901H22.9085C22.7848 19.7901 22.6836 19.8914 22.6836 20.0151V25.2559C22.6836 25.3796 22.7848 25.4809 22.9085 25.4809H23.7633C23.887 25.4809 23.9882 25.3796 23.9882 25.2559V22.1519L26.3837 25.3909C26.3949 25.4134 26.4174 25.4359 26.4399 25.4471C26.4399 25.4471 26.4399 25.4471 26.4512 25.4471C26.4512 25.4471 26.4512 25.4471 26.4624 25.4471C26.4849 25.4471 26.4962 25.4471 26.5187 25.4471H27.3621C27.4858 25.4471 27.5871 25.3459 27.5871 25.2222V19.9813C27.5871 19.8576 27.4858 19.7564 27.3621 19.7564L27.3509 19.7227Z" fill="#06C755"/>
</svg>
