<svg width="81" height="80" viewBox="0 0 81 80" fill="none" xmlns="http://www.w3.org/2000/svg">
<path d="M62.4258 28C66.2918 28 69.4258 31.134 69.4258 35V69C69.4258 72.866 66.2918 76 62.4258 76H16.4258C12.5598 76 9.42578 72.866 9.42578 69V35C9.42578 31.134 12.5598 28 16.4258 28H62.4258ZM39.4258 42C35.0075 42 31.4258 45.5817 31.4258 50C31.4258 52.9606 33.0353 55.5433 35.4258 56.9268V63C35.4258 65.2091 37.2166 67 39.4258 67C41.6349 67 43.4258 65.2091 43.4258 63V56.9268C45.8163 55.5433 47.4258 52.9606 47.4258 50C47.4258 45.5817 43.8441 42 39.4258 42Z" fill="#CDD9EC"/>
<path d="M39.4258 9.16211C49.2772 9.16211 57.2637 17.1486 57.2637 27V33.8379H21.5879V27C21.5879 17.1486 29.5744 9.16211 39.4258 9.16211Z" stroke="#CDD9EC" stroke-width="8.32502"/>
</svg>
