<?xml version="1.0" encoding="UTF-8"?>
<svg id="_レイヤー_1" data-name="レイヤー_1" xmlns="http://www.w3.org/2000/svg" version="1.1" viewBox="0 0 804.0734 149.5355">
  <!-- Generator: Adobe Illustrator 29.1.0, SVG Export Plug-In . SVG Version: 2.1.0 Build 142)  -->
  <defs>
    <style>
      .st0 {
        fill: #ea2ce2;
      }

      .st1 {
        fill: #333;
      }

      .st2 {
        fill: #ff8d4e;
      }
    </style>
  </defs>
  <path class="st1" d="M165.4284,149.5355c-4.119-.0259-7.5855-1.3591-10.5937-4.0723-2.9556-2.6542-4.3924-5.907-4.3924-9.9469V52.2486c0-4.6759-.9195-8.7279-2.729-12.0387-1.7332-3.1701-3.7255-5.7397-5.9228-7.6411-2.2124-1.8957-4.5479-3.3078-6.9538-4.2073-2.4326-.9054-4.909-1.3654-7.356-1.3654-2.4678,0-4.9119.4629-7.2624,1.38-2.3124.8995-4.5917,2.3087-6.7775,4.1868-2.2038,1.8986-4.1953,4.471-5.9285,7.647-1.7951,3.2785-2.8024,7.2896-2.9909,11.9157l-.0029,44.936c-.89,8.7223-5.5256,13.2752-14.5688,14.0313-3.9248-.0122-7.4294-1.3447-10.467-4.0845-2.9556-2.6542-4.3924-5.9069-4.3924-9.9468v-44.813c0-4.6759-.9195-8.728-2.729-12.0387-1.7391-3.176-3.7309-5.7456-5.9226-7.6412-2.2122-1.8956-4.5478-3.3078-6.9538-4.2073-2.4384-.9053-4.912-1.3654-7.3563-1.3654-2.4648,0-4.9091.4629-7.2653,1.38-2.3121.9024-4.5889,2.3087-6.7746,4.1868-2.2033,1.8986-4.1952,4.471-5.9285,7.647-1.795,3.2785-2.8027,7.2896-2.9907,11.9158l-.0029,44.936c-.7433,8.7396-5.294,13.278-14.3072,14.0313-3.922-.0122-7.4268-1.3454-10.4704-4.0845-2.9525-2.6578-4.3891-5.9098-4.3891-9.9468v-46.9045c.3261-8.7724,2.3943-16.4897,6.1459-22.8271,3.8015-6.4311,8.3111-11.6463,13.4052-15.502,5.15-3.8938,10.579-6.8735,16.1315-8.857,5.5084-1.9718,11.1284-2.9709,16.7074-2.9709,5.7464,0,11.4575.9991,16.9688,2.9709,5.4911,1.963,10.8671,4.8607,15.9847,8.6168.8958.8878,1.8829,1.7784,2.9376,2.6486l2.1066,1.7374,1.9361-1.9249c.8137-.8087,1.7124-1.6203,2.6909-2.4377,5.0263-3.7122,10.4613-6.6538,16.02-8.6403,5.5084-1.9718,11.1311-2.9709,16.71-2.9709,5.7465,0,11.4549.9991,16.9661,2.9709,5.5436,1.9806,10.9196,4.9574,15.9819,8.8424,5.0177,3.8587,9.5389,9.0885,13.4399,15.543,3.8075,6.3022,5.7379,13.9756,5.7379,22.8007v85.3594c-.8871,8.6813-5.4817,13.2313-14.4422,14.0191Z"/>
  <path class="st2" d="M14.1769,149.5229c-7.8159,0-14.1769-6.3438-14.1769-14.1391s6.361-14.1412,14.1769-14.1412,14.1796,6.3438,14.1796,14.1412-6.361,14.1391-14.1796,14.1391Z"/>
  <path class="st0" d="M87.2302,149.5229c-7.8156,0-14.1769-6.3438-14.1769-14.1391s6.3613-14.1412,14.1769-14.1412,14.1797,6.3438,14.1797,14.1412-6.3606,14.1391-14.1797,14.1391Z"/>
  <path class="st1" d="M206.8829,141.7141v-5.2261c0-2.4448,1.3138-3.9622,3.9369-4.8036,10.9708-3.5404,19.4102-10.5382,25.0371-18.0379-4.969-4.0482-10.0341-7.5886-15.1916-10.6205-2.1566-1.2668-3.0933-2.7813-3.0933-5.0578v-5.8992c0-3.3721,2.5307-4.7213,5.7201-2.7813,7.7843,4.5494,14.2519,8.9312,19.5055,13.0617,3.7484-7.5849,6.3752-15.3382,7.5929-20.0602.5626-2.5271,2.1566-3.7903,4.9726-3.7903h5.7194c3.2818,0,4.8737,1.768,4.2186,4.6353-2.3458,9.7762-5.1575,17.4471-10.5967,27.3086,3.0933,2.9496,5.2499,4.8043,8.3469,8.0075,1.5947,1.6864,2.2498,3.1179,2.2498,5.2268v9.1854c0,3.8763-2.8124,4.8036-5.7201,1.854-3.9369-4.2135-7.9699-8.0075-12.7533-12.4752-2.9048,3.3721-6.7493,7.0808-10.3157,10.0305-6.7486,5.6486-15.0031,10.2839-24.3784,12.983-3.1894,1.0097-5.2507-.5085-5.2507-3.5404Z"/>
  <path class="st1" d="M282.1506,105.595c0-2.6961,1.6872-4.2135,4.6873-4.2135h51.7614c2.9973,0,4.6881,1.5174,4.6881,4.2135v4.467c0,2.699-1.6908,4.2135-4.6881,4.2135h-14.8175c-1.1252,12.2239-6.5637,19.473-14.626,24.3589-6.0011,3.7116-13.6929,5.9852-19.4131,6.9978-3.0934.5048-4.969-1.0949-4.969-3.9622v-5.0578c0-2.6131,1.5023-3.9593,4.3139-4.4678,2.2498-.4189,4.969-1.0949,7.5034-2.1046,7.3112-2.8673,11.0625-7.4174,12.0022-15.7643h-21.7553c-3.0002,0-4.6873-1.5145-4.6873-4.2135v-4.467ZM284.7737,83.8484c0-2.6983,1.6871-4.2128,4.688-4.2128h46.6039c3.0002,0,4.6873,1.5145,4.6873,4.2128v4.4678c0,2.6954-1.6871,4.2135-4.6873,4.2135h-46.6039c-3.0009,0-4.688-1.5182-4.688-4.2135v-4.4678ZM322.4681,73.3138v-1.9399c0-2.6954,1.3138-4.2135,3.5635-4.2135,2.2527,0,3.5628,1.5181,3.5628,4.2135v1.9399c0,2.6954-1.2177,4.2135-3.5628,4.2135-2.2498,0-3.5635-1.5181-3.5635-4.2135ZM333.6274,71.3739c0-2.6954,1.313-4.2135,3.5628-4.2135,2.2526,0,3.5628,1.5181,3.5628,4.2135v1.9399c0,2.6954-1.217,4.2135-3.5628,4.2135-2.2498,0-3.5628-1.5181-3.5628-4.2135v-1.9399Z"/>
  <path class="st1" d="M368.1745,143.3601v-20.7435c-3.2972,2.4115-6.5945,4.343-9.6614,5.7891-2.2993,1.103-4.598,2.0684-6.4403,2.6867-2.2232.7576-3.6781-.2055-3.6781-2.4121v-3.374c0-1.7236.8438-2.6194,2.6046-3.3102,2.1476-.8952,5.5989-2.4115,9.0473-4.34,6.2101-3.5848,12.9557-8.683,19.1658-17.6411.9955-1.3788,2.2231-1.9988,3.9113-1.9988h4.8278c2.5314,0,3.6025,1.5158,2.2993,3.5145-3.6031,5.3763-8.2012,10.2666-11.8037,13.9188v27.9107c0,1.8612-1.1526,2.8945-3.2217,2.8945h-3.8328c-2.0691,0-3.2181-1.0333-3.2181-2.8945Z"/>
  <path class="st1" d="M410.0279,96.406v-13.4019c0-2.6954,1.6872-4.2135,4.6873-4.2135h5.1582c3.0002,0,4.6873,1.5181,4.6873,4.2135v13.4019c0,16.5234-2.0641,30.0935-8.1584,44.5051-.936,2.2765-2.7192,3.2898-5.346,3.2898h-6.6562c-3.4704,0-4.969-1.9399-3.6552-4.8896,6.4676-14.92,9.2829-30.1758,9.2829-42.9053ZM439.2829,83.0041c0-2.6954,1.6872-4.2135,4.6881-4.2135h5.1575c.3734,0,.7511,0,1.1245.0859-.3734-.676-.5627-1.5174-.5627-2.6131v-4.8896c0-2.6954,1.3138-4.2135,3.5635-4.2135s3.5628,1.5181,3.5628,4.2135v4.8896c0,2.6954-1.2177,4.2135-3.5628,4.2135h-.0925c.3734.6731.6544,1.5174.6544,2.5271v13.4019c0,12.7294,2.8124,27.9853,9.2836,42.9053,1.313,2.9496-.1885,4.8896-3.6559,4.8896h-6.6598c-2.6232,0-4.4064-1.0133-5.3424-3.2898-6.0971-14.4115-8.1584-27.9817-8.1584-44.5051v-13.4019ZM460.8497,76.2634v-4.8896c0-2.6954,1.313-4.2135,3.5628-4.2135s3.5628,1.5181,3.5628,4.2135v4.8896c0,2.6954-1.2169,4.2135-3.5628,4.2135-2.2498,0-3.5628-1.5181-3.5628-4.2135Z"/>
  <path class="st1" d="M480.5559,89.4465v-4.7213c0-2.699,1.6871-4.2128,4.688-4.2128h19.8789c3.0009,0,4.6881,1.5138,4.6881,4.2128v4.7213c0,2.6961-1.6872,4.2135-4.6881,4.2135h-19.8789c-3.0009,0-4.688-1.5174-4.688-4.2135ZM480.5559,135.3837c0-2.6131,1.4986-4.1305,4.4988-4.467,23.069-2.8673,36.104-15.5108,41.8234-32.6213.8436-2.4448,2.5315-3.6228,5.2507-3.6228h5.4385c3.2818,0,5.0621,1.6005,4.2186,4.2959-6.8454,24.1083-25.6922,41.4702-56.261,45.6007-3.0933.4225-4.969-1.0956-4.969-3.9593v-5.2261Z"/>
  <path class="st1" d="M578.3048,140.9977v-16.1832c-6.7522,4.2995-14.067,7.1632-20.349,9.2714-3.1858,1.0956-5.3432-.2542-5.3432-3.3721v-4.7177c0-2.3624,1.2177-3.8806,3.656-4.8903,14.0663-5.3944,28.0373-14.4144,35.8216-24.6132h-31.2267c-3.0009,0-4.6881-1.5174-4.6881-4.2128v-4.5537c0-2.6954,1.6872-4.2128,4.6881-4.2128h17.0672v-5.0578c0-2.6961,1.6879-4.2135,4.6881-4.2135h5.4392c3.0002,0,4.6873,1.5174,4.6873,4.2135v5.0578h17.9115c3.3743,0,5.1575,1.9399,3.8437,4.8036-3.6589,8.0934-10.5959,15.7614-18.0032,22.4226,4.969,3.6228,10.6892,6.7407,16.6902,9.1031,2.5307.9266,3.7513,2.4448,3.7513,4.8036v5.8993c0,3.1179-2.2526,4.636-5.4384,3.2862-6.9407-2.6954-13.035-6.0675-19.1285-10.198v17.3641c0,2.6961-1.6908,4.2135-4.6917,4.2135h-4.6873c-3.0009,0-4.6881-1.5174-4.6881-4.2135Z"/>
  <path class="st1" d="M632.227,120.9962l-3.2967-17.849c-.3814-1.9964.7682-3.1697,2.9914-3.1697h1.3038c1.9905,0,3.2187.8284,3.524,2.6194l3.5269,17.849c.3844,1.9988-.7653,3.1697-2.9884,3.1697h-1.5335c-1.9179,0-3.1431-.8284-3.5275-2.6194ZM633.147,139.4658c0-1.7939.9979-2.7569,2.9128-3.24,7.8976-1.9988,13.5698-6.6169,17.4811-12.4054,4.2166-6.2691,6.3612-13.8485,7.1295-20.9484.2297-1.8612,1.3793-2.7569,3.3722-2.7569h3.5252c2.1493,0,3.2949,1.1036,3.0646,3.0321-1.1455,9.9939-4.1333,19.3648-9.502,26.8774-5.4448,7.6473-13.3401,13.4357-24.3808,15.7799-2.2232.4127-3.6025-.62-3.6025-2.6867v-3.6521ZM644.7989,99.9775h1.3038c1.9173,0,3.1431.8284,3.4513,2.6194l3.527,17.849c.3814,1.9988-.7682,3.1697-2.9914,3.1697h-1.4556c-1.9934,0-3.221-.8284-3.5269-2.6194l-3.3728-17.849c-.3838-1.9964.8414-3.1697,3.0646-3.1697Z"/>
  <path class="st1" d="M679.0966,83.9413c0-2.699,1.69-4.2164,4.6873-4.2164h40.6982c-.7511-1.3462-1.1267-2.8637-1.1267-4.4678,0-5.645,5.0629-10.198,11.4403-10.198,6.2835,0,11.3464,4.553,11.3464,10.198,0,5.1438-4.124,9.3573-9.5624,10.2016v6.6583c0,12.8118-3.9435,25.7911-13.9754,35.7385-7.309,7.2491-17.8176,12.8941-32.2551,15.7614-3.1851.5908-5.1568-.9274-5.1568-3.7946v-4.9719c0-2.5271,1.4011-4.0453,4.3118-4.5501,9.8442-1.854,17.3482-5.3944,22.6928-10.7888,6.0957-6.1535,9.3746-14.8369,9.938-26.2989h-38.3509c-2.9972,0-4.6873-1.5181-4.6873-4.2135v-5.0578ZM739.8585,75.2571c0-2.5271-2.3473-4.6353-5.1568-4.6353s-5.1568,2.1082-5.1568,4.6353c0,2.5307,2.3473,4.6389,5.1568,4.6389s5.1568-2.1082,5.1568-4.6389Z"/>
  <path class="st1" d="M752.8739,81.178c0-2.699,1.69-4.2172,4.6873-4.2172h5.1568c3.0045,0,4.6873,1.5181,4.6873,4.2172v31.1032c0,2.6954-1.6828,4.2128-4.6873,4.2128h-5.1568c-2.9973,0-4.6873-1.5174-4.6873-4.2128v-31.1032ZM762.9058,141.8627v-5.3085c0-2.5271,1.4084-4.0452,4.3118-4.5494,14.4448-2.7849,22.3172-9.6939,22.3172-25.2899v-25.5369c0-2.699,1.69-4.2172,4.6946-4.2172h5.1568c2.9973,0,4.6873,1.5181,4.6873,4.2172v25.5369c0,22.3367-12.0036,34.0528-36.0108,38.9424-3.1851.6731-5.1568-.8414-5.1568-3.7946Z"/>
  <g>
    <path d="M239.7762,41.4324c.2446-1.7637.4897-3.7725.7349-5.9775h-18.2266c-.2939.9312-.5391,1.7642-.7842,2.499l-4.1646-.2451c1.666-4.8018,4.2627-13.6211,5.5366-19.4023l4.1646.2451c-.3428,1.3228-.686,2.7925-1.127,4.2627h19.0596v3.4785h-19.9902c-.4902,1.9106-1.0781,3.7725-1.5679,5.5366h21.6562c-.3433,3.6255-.7349,6.8105-1.127,9.603h9.7012v3.5767h-10.2402c-1.127,6.5166-2.4009,10.2402-4.0176,11.2202-.9312.5391-2.1069.833-3.626.8818-1.6655.0493-5.2915,0-7.4473-.0981l-.6367-4.0176c2.0088.147,5.4873.1963,7.0063.147.7837,0,1.3721-.147,1.8618-.4409.9307-.5879,1.8618-3.0864,2.6948-7.6924h-30.0835v-3.5767h30.6226ZM252.1229,13.9456v10.2891h-4.1157v-6.6631h-33.2681v6.6631h-3.9194v-10.2891h41.3032Z"/>
    <path d="M287.4032,48.0471h-14.6987l3.5767,1.5186c-3.7725,2.9888-9.2114,5.6348-13.915,7.5947l-3.7236-2.3032c4.7529-1.6167,9.9463-4.1157,13.6699-6.8101h-14.4536v-3.1851h45.0762v3.1851h-14.6987c5.3403,2.4497,9.897,4.8506,13.8657,7.2021l-4.1157,1.9111c-3.6743-2.3032-8.2803-4.7529-13.7676-7.3984l3.1846-1.7148ZM278.1429,21.344v-2.8418h-20.0884v-3.1357h20.0884v-3.2827h4.2139v3.2827h20.3823v3.1357h-20.3823v2.8418h13.1797v20.8232h-30.2793v-20.8232h12.8857ZM269.2747,27.6155h22.0483v-3.3315h-22.0483v3.3315ZM269.2747,33.4461h22.0483v-3.3809h-22.0483v3.3809ZM269.2747,39.2766h22.0483v-3.3809h-22.0483v3.3809Z"/>
    <path d="M346.7889,32.1233c-4.1646,1.4209-9.064,3.2339-13.5229,5.1934.4409,2.5967.6372,5.7817.6372,9.7505h-4.0176c.0488-.833.0488-1.519.0488-2.2539.0488-2.2539-.0981-4.2139-.2939-5.7817-5.1445,2.5972-9.0151,5.4878-9.0151,8.4272,0,2.8418,3.5273,4.4097,11.1221,4.4097,3.5767,0,9.2603-.3428,12.543-1.0288l.3916,3.9199c-3.4297.6367-8.917.8325-12.8857.8325-9.75,0-15.3359-2.6943-15.3359-7.9863,0-4.8506,5.5859-8.8682,12.2983-12.2485-.7349-1.96-1.813-2.8911-3.1851-2.8911-3.3804,0-6.957,1.666-10.436,4.606-1.0776.9307-3.1846,3.1357-4.6055,4.8506l-3.2827-2.646c4.1157-3.9194,8.1821-9.8481,11.0732-15.8745h-9.7993v-3.7236h11.4648c.8818-2.2051,1.5679-4.3608,2.0088-6.3696l4.312.833c-.4902,1.9106-1.127,3.7725-1.813,5.5366h15.7275v3.7236h-17.3447c-1.7148,3.6743-3.5767,6.7612-5.0464,8.6724,2.8418-1.813,5.7324-2.9888,8.5742-2.9888,2.793,0,4.7036,1.4697,5.9287,4.6055,4.4585-2.0088,9.1621-3.7729,12.8857-5.3408l1.5679,3.7729Z"/>
    <path d="M389.8602,20.2664v32.3862h-33.1211v-4.1646h28.5645v-24.0571h-28.5156v-4.1646h33.0723Z"/>
    <path d="M415.5365,26.5867l-2.8906,3.5767c-2.6943-2.4009-8.5742-6.6636-12.6411-8.8193l2.7441-3.5278c4.2134,2.4502,9.7505,6.2715,12.7876,8.7705ZM434.3997,26.6848l2.8418,3.3315c-6.7119,10.9263-20.4795,21.3623-33.856,25.3311l-2.2046-4.2139c13.082-3.3315,26.7031-13.4736,33.2188-24.4487Z"/>
    <path d="M478.8919,26.9788c-7.1045,3.1846-16.6592,6.3203-26.2129,8.5254v7.6431c0,5.0957,2.0088,6.8594,7.0557,7.2515,1.5674.0981,4.3604.1958,7.3984.1958,4.3115,0,9.3574-.1958,12.7871-.6855v4.4097c-3.8213.2939-8.623.4409-12.9834.4409-3.1357,0-5.9287-.0493-7.8887-.147-6.8594-.4409-10.8281-3.626-10.8281-10.2402V15.3177h4.459v16.1685c8.7207-2.0088,18.0791-5.2915,23.959-8.2803l2.2539,3.7729ZM475.7074,14.2888c2.0088,1.9106,3.5762,3.8218,5.1445,6.1733l-1.96,1.519c-1.5195-2.3027-3.1357-4.3608-5.0469-6.1245l1.8623-1.5679ZM480.8031,11.3489c2.0088,1.813,3.5762,3.8218,5.1934,6.1245l-2.0088,1.519c-1.4697-2.3027-3.0869-4.312-5.0469-6.1245l1.8623-1.519Z"/>
    <path d="M530.6829,46.8709v4.4097h-39.7852v-4.4097h39.7852ZM524.9505,20.5603v4.3604h-28.4668v-4.3604h28.4668Z"/>
    <path d="M563.4652,18.5022c3.7725-.2939,8.5254-.7837,11.9062-1.1758l.4902,4.2139c-2.1562.0977-5.7822.5386-7.4971.8325-1.0781.1963-2.6455.9312-3.7236,1.6172-6.1729,3.9688-10.4355,9.3579-10.4355,15.5806,0,6.8105,5.9277,10.877,17.9316,11.4653l-.5381,4.2134c-13.5234-.5879-21.7549-5.7812-21.7549-15.4829,0-6.5654,4.1162-12.6406,10.5342-17.1484-5.4385.4902-16.1191,1.1758-22.5869,1.4697l-.2939-4.1152c6.6631-.1963,21.3623-1.0781,25.9678-1.4702ZM569.1976,28.3504c1.6172,2.0088,3.2832,4.606,4.4102,7.0068l-2.3027,1.2734c-.9805-2.3027-2.6953-4.9482-4.3125-6.957l2.2051-1.3232ZM574.7347,25.803c1.6162,1.9595,3.2334,4.5562,4.4092,6.9082l-2.3027,1.2739c-1.0293-2.3521-2.6455-4.9487-4.2627-6.9575l2.1562-1.2246Z"/>
    <path d="M590.3665,46.5281c-1.2734,3.6748-3.3311,7.6924-5.4385,10.5342l-3.2334-1.3721c2.0576-2.7925,4.1152-6.5654,5.3408-10.2891l3.3311,1.127ZM600.1663,13.4558v31.6025h-16.2666V13.4558h16.2666ZM587.6234,23.01h8.6719v-5.9775h-8.6719v5.9775ZM587.6234,32.2215h8.6719v-6.0757h-8.6719v6.0757ZM587.6234,41.4817h8.6719v-6.1738h-8.6719v6.1738ZM596.638,45.303c1.8135,2.793,3.1357,5.2915,4.0176,7.5947l-3.4297,1.3716c-.7832-2.3516-1.959-4.8994-3.625-7.6924l3.0371-1.2739ZM616.972,42.0203c1.96-3.8706,3.3311-8.3291,4.2139-13.3267h-13.0332v3.4297c0,9.1621-1.2256,17.8833-4.998,24.8896-1.5186-.8325-2.5479-1.3228-3.6748-1.8125,3.8223-6.6636,4.8018-14.5029,4.8018-23.0771V13.4558h23.0771v3.6748h-19.2061v7.937h14.6982l2.793.4902c-1.0781,7.8394-3.2334,14.6499-6.418,20.2354,2.4004,3.5273,5.291,6.2715,8.623,8.2314l-2.8418,3.1357c-2.9893-1.96-5.7324-4.606-8.0352-7.8398-2.3027,3.0869-4.9492,5.7329-7.9863,7.8398-.7842-.8823-1.5684-1.7153-2.8418-2.9888,3.4297-2.1069,6.2715-4.9487,8.5742-8.3296-2.3516-4.2134-4.165-9.2603-5.4385-15.0908l3.5273-1.1758c.9307,4.7524,2.3516,8.8682,4.165,12.4448Z"/>
    <path d="M649.557,38.2967c-.9795,9.7505-3.9688,15.6299-15.9238,18.9126-1.0283-1.4209-1.7637-2.3027-2.498-3.2339,11.3174-2.5967,13.7676-7.5942,14.4043-15.7769l4.0176.0981ZM651.4681,24.8719v-4.6055h-20.0889v-3.332h20.0889v-4.8506h4.2139v4.8506h20.4307v3.332h-20.4307v4.6055h16.7559v3.3315h-37.2363v-3.3315h16.2666ZM674.8392,32.0252v9.4565h-4.165v-6.0757h-33.9541v6.0757h-3.9688v-9.4565h42.0879ZM659.6995,38.0027v12.1509c0,2.1069.5391,2.5479,2.5967,2.5972,1.9111.0488,5.291.0488,7.3496,0,2.2539-.0493,2.4492-.3921,2.5479-4.9976l3.9189.6367c-.4893,7.2021-1.2734,7.9863-6.124,8.1333-2.3516.0488-5.9775.0488-8.1338,0-4.9971-.147-6.1729-1.3228-6.1729-6.3203v-12.2002h4.0176Z"/>
  </g>
</svg>