<svg width="203" height="37" viewBox="0 0 203 37" fill="none" xmlns="http://www.w3.org/2000/svg">
<path d="M66.8531 11.2271C69.0547 12.1197 70.7803 13.3693 72.0002 15.0057C73.22 16.642 73.8448 18.5462 73.8448 20.6585C73.8448 23.9313 72.9225 26.49 71.0778 28.3346C69.2332 30.209 66.5555 31.3693 63.0448 31.8453L61.7952 27.68C66.4663 27.085 68.7869 24.7346 68.7869 20.6288C68.7869 16.523 67.6266 16.6718 65.3059 15.5412C63.2828 20.5395 60.9919 24.2883 58.4332 26.847C55.8448 29.4057 53.3159 30.6552 50.8167 30.6552C48.3175 30.6552 47.4249 29.9709 46.2646 28.5726C45.0745 27.1743 44.4795 25.2106 44.4795 22.6817C44.4795 20.1528 44.9258 18.8734 45.8481 17.1776C46.7704 15.4817 48.0497 14.0536 49.6861 12.923C49.4481 12.1495 48.9721 10.4536 48.2878 7.89491L53.1076 7.00235C53.4944 8.57921 53.8514 9.8288 54.1489 10.8106C55.934 10.2751 57.8382 9.97756 59.8613 9.97756C61.8845 9.97756 61.4977 10.0073 62.1522 10.0966C62.5687 8.78747 62.9853 7.41888 63.3423 5.93127L68.1621 6.85359C67.8349 8.10318 67.3886 9.56103 66.8828 11.2271H66.8531ZM54.0299 24.9726C52.9291 22.3544 52.0068 19.9445 51.2332 17.7131C49.9241 19.1114 49.2696 20.7776 49.2696 22.7412C49.2696 24.7048 49.4778 24.8238 49.8646 25.4189C50.2514 26.0139 50.7572 26.3412 51.3522 26.3412C52.1258 26.3412 53.0183 25.8949 54.0002 24.9726H54.0299ZM60.4861 14.5296C60.3969 14.5296 60.2778 14.5296 60.1588 14.5296C60.0101 14.5296 59.9208 14.5296 59.8316 14.5296C58.1952 14.5296 56.7373 14.7379 55.458 15.1544C55.9935 16.7908 56.6481 18.6652 57.4216 20.7181C58.5522 18.9032 59.5638 16.8503 60.5159 14.5594L60.4861 14.5296Z" fill="white"/>
<path d="M78.8135 13.7259V9.67966H85.8647C86.0432 8.81685 86.2217 7.65652 86.43 6.22842L91.5474 6.49619C91.4581 7.23999 91.2796 8.31107 91.0118 9.67966H105.799V13.7259H90.03C89.6135 15.0945 89.1375 16.3739 88.6019 17.6532H88.6317C90.7441 17.0879 92.7374 16.7607 94.5821 16.7607C97.6465 16.7607 99.997 17.3855 101.633 18.635C103.27 19.8846 104.073 21.64 104.073 23.8714C104.073 26.1028 102.942 28.0962 100.711 29.4945C98.4796 30.9226 95.4449 31.6069 91.6366 31.6069C87.8284 31.6069 85.835 31.3392 83.187 30.7739L84.0201 26.7276C86.8465 27.2631 89.3755 27.5607 91.6366 27.5607C93.8978 27.5607 95.5341 27.2036 96.8135 26.4598C98.0928 25.716 98.7176 24.764 98.7176 23.5739C98.7176 21.6995 97.2598 20.7474 94.3143 20.7474C91.3689 20.7474 91.3986 20.9259 90.1193 21.283C88.8399 21.64 87.4713 22.235 86.0135 23.0681L81.3722 21.402C82.949 18.4565 84.0796 15.8978 84.8234 13.6962H78.8135V13.7259Z" fill="white"/>
<path d="M123.471 12.477L127.904 11.4059C128.529 13.2803 128.886 14.3514 128.975 14.6191C129.838 14.4704 130.612 14.4109 131.326 14.4109C133.23 14.4109 134.777 14.9464 135.967 15.958C137.157 16.9993 137.752 18.3977 137.752 20.1233C137.752 21.8489 137.068 23.6638 135.729 24.7646C134.39 25.8654 132.546 26.4307 130.225 26.4307C127.904 26.4307 128.231 26.3415 127.309 26.1629L127.785 22.5332C128.856 22.6819 129.63 22.7415 130.136 22.7415C131.028 22.7415 131.742 22.5332 132.278 22.0869C132.813 21.6406 133.081 21.0753 133.081 20.3315C133.081 19.5877 132.843 19.1415 132.397 18.7547C131.921 18.3679 131.266 18.1596 130.403 18.1596C129.541 18.1596 130.344 18.1596 130.255 18.1596C130.165 18.1596 130.106 18.1596 130.076 18.1596C130.314 18.8737 130.582 19.7662 130.879 20.8076L126.684 21.8489C126.506 21.2836 126.208 20.391 125.822 19.1712C125.584 19.2605 125.167 19.3795 124.602 19.558C124.036 19.7365 123.56 19.8853 123.233 20.0043C124.512 23.8423 125.673 27.591 126.714 31.191L122.162 32.1431C121.329 29.1679 120.228 25.6274 118.889 21.5216C118.473 21.6704 117.759 21.9381 116.777 22.2654C115.795 22.6224 115.022 22.8902 114.427 23.0687L112.909 19.5282C113.534 19.32 114.367 19.0224 115.438 18.6654C116.509 18.3084 117.223 18.0406 117.67 17.8919C116.777 15.3332 116.241 13.8158 116.063 13.3696L120.496 12.2092L121.984 16.434C122.281 16.3448 122.727 16.196 123.322 16.0175C123.917 15.839 124.334 15.72 124.602 15.6307C124.483 15.3332 124.304 14.8274 124.066 14.0836C123.828 13.3398 123.62 12.8043 123.501 12.4175L123.471 12.477Z" fill="white"/>
<path d="M176.341 6.6453L171.551 6.05026L169.319 1.79572L167.296 6.16927L162.566 6.97257L164.41 8.6982H144.655V13.1908H164.618C164.113 17.6536 162.506 20.956 159.799 23.0387C157.091 25.1213 152.926 26.4007 147.273 26.847L148.255 31.2205C155.842 30.6255 161.435 28.6023 165.035 25.1213C167.98 22.2651 169.736 18.2189 170.271 12.9825L173.871 14.7676L172.949 10.037L176.311 6.61555L176.341 6.6453ZM171.461 11.5841L170.42 11.0784L169.528 10.6321L167.653 11.6734L167.98 9.56101L167.028 8.66844L166.433 8.10315L168.546 7.74613L169.438 5.81224L170.42 7.71638L172.532 7.98415L171.045 9.5015L171.461 11.5841Z" fill="white"/>
<path d="M180.684 20.9559V7.5675H186.307V20.9559H180.684ZM197.077 7.5675H202.849V15.8386C202.849 20.9559 201.392 24.794 198.476 27.3824C195.56 30.0006 191.038 31.4882 184.909 31.9344L183.868 27.6502C188.896 27.1444 192.377 26.0733 194.251 24.3774C196.125 22.6816 197.077 19.8849 197.077 15.9576V7.5675Z" fill="white"/>
<path d="M26.8364 31.7262H0.892562C0.386777 31.7262 0 31.3394 0 30.8336V1.5576C0 1.05182 0.386777 0.665039 0.892562 0.665039H26.8364C27.3422 0.665039 27.7289 1.05182 27.7289 1.5576V30.8336C27.7289 31.3394 27.3124 31.7262 26.8364 31.7262ZM1.81488 29.9411H25.9736V2.45016H1.81488V29.9411Z" fill="white"/>
<path d="M29.8713 34.0163H3.0052C2.67792 34.0163 2.41016 33.7485 2.41016 33.4213C2.41016 33.094 2.67792 32.8262 3.0052 32.8262H29.2763V3.69895C29.2763 3.37168 29.544 3.10391 29.8713 3.10391C30.1986 3.10391 30.4664 3.37168 30.4664 3.69895V33.4213C30.4664 33.7485 30.1986 34.0163 29.8713 34.0163Z" fill="white"/>
<path d="M32.4001 36.6651H5.53401C5.20673 36.6651 4.93896 36.3973 4.93896 36.07C4.93896 35.7427 5.20673 35.475 5.53401 35.475H31.8051V6.31794C31.8051 5.99067 32.0729 5.7229 32.4001 5.7229C32.7274 5.7229 32.9952 5.99067 32.9952 6.31794V36.0403C32.9952 36.3675 32.7274 36.6353 32.4001 36.6353V36.6651Z" fill="white"/>
<path d="M23.6826 25.0017H4.076C3.74873 25.0017 3.48096 24.7339 3.48096 24.4067V4.80006C3.48096 4.47279 3.74873 4.20502 4.076 4.20502H23.6826C24.0099 4.20502 24.2777 4.47279 24.2777 4.80006V24.4067C24.2777 24.7339 24.0099 25.0017 23.6826 25.0017ZM4.67104 23.8116H23.0876V5.3951H4.67104V23.8116Z" fill="white"/>
<path d="M13.8646 19.9733C13.3589 19.7056 12.8531 19.3783 12.3175 18.9915C11.8118 18.6047 11.3357 18.1584 10.8597 17.7122C10.3837 17.2659 9.99688 16.7601 9.63986 16.2543C9.28283 15.7485 9.01506 15.2427 8.8068 14.7072C8.59853 14.2014 8.50928 13.6956 8.50928 13.1898C8.50928 12.6841 8.65804 12.0295 8.92581 11.5535C9.19358 11.0775 9.58035 10.7204 10.0266 10.4229C10.5027 10.1551 11.0085 10.0064 11.5737 10.0064C12.139 10.0064 12.4068 10.0956 12.8233 10.2444C13.2101 10.3932 13.5671 10.6907 13.8646 11.0775C14.1622 10.6907 14.5192 10.3932 14.9357 10.2444C15.3523 10.0956 15.7688 10.0064 16.1853 10.0064C16.6018 10.0064 17.2861 10.1551 17.7324 10.4229C18.2085 10.6907 18.5655 11.0775 18.8332 11.5535C19.101 12.0295 19.2498 12.5651 19.2498 13.1898C19.2498 13.8146 19.1308 14.1717 18.9225 14.7072C18.7142 15.213 18.4465 15.7485 18.0597 16.2543C17.7027 16.7601 17.2861 17.2659 16.8399 17.7122C16.3936 18.1882 15.8878 18.6047 15.382 18.9915C14.8762 19.3783 14.3704 19.7056 13.8349 19.9733H13.8646Z" fill="white"/>
</svg>
