<svg width="120" height="120" viewBox="0 0 120 120" fill="none" xmlns="http://www.w3.org/2000/svg">
<rect width="120" height="120" fill="#FCCF00"/>
<path d="M21.0297 65.0251C21.0297 64.968 20.9725 64.9109 20.9154 64.9109H16.1154C13.5439 64.9109 11.4297 62.7966 11.4297 60.2251C11.4297 57.6537 11.8297 57.7109 12.8011 56.7394L39.0868 29.4251C40.9154 27.5966 43.8868 27.5966 45.7725 29.4251L51.8868 35.368H64.2297C65.0297 30.2823 71.6582 28.0537 76.1725 28.0537C83.7154 28.0537 90.0011 33.3109 91.6011 40.3394C91.6011 40.4537 91.6582 40.568 91.6582 40.6823C91.6582 40.7394 91.6582 40.7966 91.7725 40.8537C97.2011 43.8251 100.973 49.4251 101.487 55.8823C101.487 55.9394 101.487 56.0537 101.601 56.0537C101.601 56.0537 101.658 56.0537 101.715 56.1108C106.058 58.7394 108.915 63.4251 108.915 68.8537C108.915 74.2823 105.144 80.3966 99.7154 82.6251C99.7154 82.6251 99.6582 82.6823 99.6582 82.7394V87.5966C99.6582 90.168 97.5439 92.2823 94.9725 92.2823H25.7725C23.144 92.2823 21.0868 90.168 21.0868 87.5966V64.968L21.0297 65.0251Z" fill="white"/>
<path d="M58.7434 63.825C60.4006 63.825 61.772 62.4535 61.772 60.7964V49.7678C61.772 48.1107 60.4006 46.7393 58.7434 46.7393C57.0863 46.7393 55.7148 48.1107 55.7148 49.7678V60.7964C55.7148 62.4535 57.0863 63.825 58.7434 63.825Z" fill="#023886"/>
<path d="M82.5735 63.825C84.2307 63.825 85.6021 62.4535 85.6021 60.7964V49.7678C85.6021 48.1107 84.2307 46.7393 82.5735 46.7393C80.9164 46.7393 79.5449 48.1107 79.5449 49.7678V60.7964C79.5449 62.4535 80.9164 63.825 82.5735 63.825Z" fill="#023886"/>
<path d="M49.0287 70.7962C49.0287 70.6819 48.9716 70.6248 48.8573 70.6248H48.0573C46.6858 70.6248 45.543 69.4819 45.543 68.1105C45.543 66.739 46.6858 65.5962 48.0573 65.5962H55.2001C56.5716 65.5962 57.7144 66.739 57.7144 68.1105C57.7144 69.4819 56.5716 70.6248 55.2001 70.6248H54.8001C54.6858 70.6248 54.6287 70.6819 54.6287 70.7962V79.8248C54.6287 81.3676 53.3715 82.6248 51.8287 82.6248C50.2858 82.6248 49.0287 81.3676 49.0287 79.8248V70.7962Z" fill="#023886"/>
<path d="M74.6858 46.7393C73.0858 46.7393 71.7715 48.0535 71.7715 49.6535V51.825C71.7715 51.825 71.7715 51.8821 71.7144 51.8821L69.0858 48.1107C68.5715 47.3678 67.6572 46.8536 66.6858 46.8536C65.0858 46.8536 63.7715 48.1678 63.7715 49.7678V60.9107C63.7715 62.5107 65.0858 63.825 66.6858 63.825C68.2858 63.825 69.6001 62.5107 69.6001 60.9107V58.7393C69.6001 58.7393 69.6 58.6821 69.6572 58.6821L72.2286 62.4535C72.7429 63.2535 73.6572 63.7678 74.6858 63.7678C76.2858 63.7678 77.6001 62.4536 77.6001 60.8536V49.7107C77.6001 48.1107 76.2858 46.7964 74.6858 46.7964" fill="#023886"/>
<path d="M50.7433 46.7393C49.829 46.7393 48.9719 47.1393 48.4004 47.825L45.1433 51.4821C45.1433 51.4821 45.1433 51.5393 45.029 51.5393C44.9147 51.5393 44.8576 51.4821 44.8576 51.4821L41.5433 47.825C40.9719 47.1393 40.1719 46.6821 39.2004 46.6821C37.5433 46.6821 36.1719 48.0536 36.1719 49.7107V60.8536C36.1719 62.4536 37.4861 63.7679 39.0861 63.7679C40.6861 63.7679 42.0005 62.4536 42.0005 60.8536V56.8536C42.0576 56.8536 42.1147 56.7964 42.1719 56.7964C42.229 56.7964 42.1719 56.7964 42.229 56.7964L44.8576 59.7107C44.8576 59.7107 44.9147 59.825 45.029 59.825C45.1433 59.825 45.2004 59.7107 45.2004 59.7107L47.6576 56.7393C47.6576 56.7393 47.6576 56.7393 47.7147 56.7393C47.7147 56.7393 47.829 56.7393 47.829 56.7964V60.8536C47.8861 62.4536 49.2004 63.7679 50.8004 63.7679C52.4004 63.7679 53.7147 62.4536 53.7147 60.8536V49.7107C53.7147 48.0536 52.3433 46.6821 50.6861 46.6821" fill="#023886"/>
<path d="M82.9154 72.5691H81.4297C81.4297 72.5691 81.3154 72.5691 81.3154 72.4548V69.9977C81.3154 69.9977 81.3154 69.9405 81.4297 69.9405H82.9154C83.6582 69.9405 84.2297 70.512 84.2297 71.2548C84.2297 71.9977 83.6582 72.5691 82.9154 72.5691ZM82.9154 65.5977H77.2011C76.2297 65.5977 75.4297 66.3977 75.4297 67.3691V79.712C75.4297 81.312 76.7439 82.6263 78.4011 82.6263C80.0582 82.6263 81.3154 81.312 81.3154 79.712V76.8548C81.3154 76.8548 81.3154 76.7405 81.4297 76.7405H82.744C86.8583 76.7405 88.8011 73.9977 88.8011 71.1977C88.8011 68.3977 86.1725 65.5405 82.9154 65.5405" fill="#023886"/>
<path d="M94.8016 61.1974C98.8016 61.5974 101.944 64.9689 101.944 69.026C101.944 73.0831 98.9159 76.3403 95.0301 76.7974C93.6587 76.9689 92.6301 78.0546 92.6301 79.4832V85.1403C92.6301 85.2546 92.5158 85.3689 92.4015 85.3689H28.2301C28.1158 85.3689 28.0016 85.2546 28.0016 85.1403V60.3403C28.0016 58.9689 26.8587 57.8831 25.5444 57.8831H21.7159C21.7159 57.8831 21.7158 57.8831 21.6587 57.8831V57.7689L42.2873 36.3974H42.4015L48.6301 42.3974C49.4873 43.2546 51.0873 43.3117 52.0016 42.3974C52.9159 41.4831 52.9159 39.9403 52.0016 39.026L44.0016 31.1974C43.0873 30.2831 41.5444 30.2831 40.6301 31.1974L14.173 58.6831C13.8301 59.1403 13.6016 59.6546 13.6016 60.2832C13.6016 61.6546 14.7444 62.7403 16.0587 62.7403H23.0301C23.1444 62.7403 23.2587 62.8546 23.2587 62.9689V87.7689C23.2587 89.1403 24.3444 90.226 25.7159 90.226H94.9158C96.2873 90.226 97.373 89.1403 97.373 87.7689V81.426C97.373 81.3689 97.373 81.3117 97.4873 81.3117C102.744 79.826 106.63 74.9689 106.63 69.1974C106.63 63.426 103.773 59.9974 99.6587 57.8831C99.6016 57.8831 99.4873 57.826 99.4301 57.7689C99.3159 57.7689 99.2587 57.6546 99.2587 57.5403C99.2587 50.9689 95.3158 45.3117 89.773 42.6831C89.7158 42.6831 89.6587 42.5689 89.6016 42.4546C88.7444 35.7117 83.0301 30.5117 76.0587 30.5117C69.0873 30.5117 70.2301 31.4831 67.9444 33.1974C66.8587 33.9974 66.573 35.4832 67.373 36.5689C68.1158 37.6546 69.6587 37.9403 70.7444 37.1403C72.2301 35.9974 74.1158 35.3117 76.1158 35.3117C79.6015 35.3117 82.573 37.3117 84.0016 40.1689C84.573 41.3689 85.1444 43.026 85.1444 45.8831C85.1444 48.7403 85.2016 46.0546 85.3158 46.1117C85.4873 46.1117 85.6016 46.1689 85.773 46.226C90.173 47.426 93.6016 51.1974 94.3444 55.7689C94.4587 56.3974 94.6301 58.0546 94.6301 61.1403C94.6301 64.226 94.6873 61.3117 94.8016 61.3689" fill="#023886"/>
<path d="M45.3148 77.2534C45.3148 80.4534 42.7434 83.0249 39.5434 83.0249C36.3434 83.0249 35.6577 82.1677 34.3434 80.7392C33.9434 80.3392 33.7148 79.7106 33.7148 79.082C33.7148 77.7106 34.8006 76.6249 36.172 76.6249C37.5434 76.6249 37.372 76.9106 37.7148 77.082C37.8863 77.1963 38.7434 77.7677 39.0863 77.7677C39.4291 77.7677 39.5434 77.5392 39.5434 77.3106C39.5434 77.082 39.0863 76.682 38.8577 76.5677C36.4006 75.3106 34.1148 73.6535 34.1148 70.6249C34.1148 67.5963 36.2863 65.1392 39.772 65.1392C43.2577 65.1392 43.2577 65.9963 44.4577 67.2534C44.8006 67.6534 45.0291 68.1677 45.0291 68.7392C45.0291 69.9392 44.0577 70.9106 42.8577 70.9106C41.6577 70.9106 40.972 70.2249 40.8577 70.1677C40.572 69.9963 40.4577 69.882 40.172 69.882C39.8863 69.882 39.6577 70.1106 39.6577 70.3963C39.6577 70.682 40.1148 71.082 41.2005 71.6534C44.172 73.082 45.2577 75.1963 45.2577 77.3677" fill="#023886"/>
<path d="M65.4289 77.5406C63.5432 77.5406 61.9432 75.9978 61.9432 74.0549C61.9432 72.112 63.4861 70.5692 65.4289 70.5692C67.3718 70.5692 68.9146 72.112 68.9146 74.0549C68.9146 75.9978 67.3718 77.5406 65.4289 77.5406ZM65.4289 65.1978C60.5718 65.1978 56.6289 69.1977 56.6289 74.112C56.6289 79.0263 60.5718 83.0263 65.4289 83.0263C70.2861 83.0263 74.2289 79.0263 74.2289 74.112C74.2289 69.1977 70.2861 65.1978 65.4289 65.1978Z" fill="#023886"/>
</svg>
