<svg xmlns="http://www.w3.org/2000/svg" width="19" height="20" viewBox="0 0 19 20" fill="none">
  <path d="M7.64746 12.1343C8.05279 12.1454 8.43983 12.1672 8.66016 12.2026C9.22573 12.2936 9.55488 12.375 10.0811 12.4683C10.3784 12.521 10.6782 12.6464 10.9072 12.8599C11.1456 13.0821 11.3055 13.4026 11.2715 13.7847C11.2582 13.9333 11.2015 14.1117 11.1963 14.1323C11.1853 14.1766 11.1694 14.2173 11.1523 14.2554C11.5593 14.1328 11.9529 14.0128 12.3896 13.8882C12.5597 13.8397 12.7262 13.7766 12.9189 13.7036C13.1049 13.6332 13.3152 13.5544 13.54 13.4937C14.075 13.3491 14.6019 13.2424 15.2139 13.2192C15.4214 13.2114 15.6732 13.191 16.21 13.2544C16.625 13.3035 16.9716 13.5726 17.1592 13.9028C17.354 14.2459 17.4053 14.7113 17.1387 15.1304C16.8742 15.546 16.4943 15.763 16.4561 15.7925C16.1379 16.0378 15.5694 16.2804 15.0557 16.4888C14.5019 16.7133 13.9605 16.9165 13.5781 17.0991C12.39 17.6666 11.0532 17.9911 9.75098 18.0659C8.94172 18.1124 8.13605 18.0998 7.3418 18.064C6.60569 18.0307 5.80463 17.9829 5.04883 17.855C4.18313 17.7085 3.34247 17.36 2.60547 17.0034L2.32324 16.8667V16.5532C2.32326 15.8835 2.32233 13.8322 2.32227 13.0464V12.6401L2.71875 12.5562C2.99399 12.4982 3.17081 12.4659 3.56543 12.3843C3.83115 12.3293 4.14236 12.2454 4.42773 12.2026C4.72825 12.1577 5.03067 12.1491 5.31055 12.1489C5.6045 12.1488 5.85109 12.1564 6.1084 12.1489C6.61037 12.1343 7.12692 12.12 7.64746 12.1343Z" stroke="#FF2AA1" stroke-linecap="round"/>
  <circle cx="9.76988" cy="7.11412" r="3.36265" stroke="#FF2AA1"/>
  <path d="M9.83582 6.91373L10.5001 5.3999H11.2879L10.325 7.27931H10.8141V7.72728H10.1963V8.07226H10.8141V8.52023H10.1963V9.07633H9.47539V8.52023H8.85235V8.07226H9.47539V7.72728H8.85235V7.27931H9.33122L8.38379 5.3999H9.17674L9.83582 6.91373Z" fill="#FF2AA1"/>
  <rect x="7.03125" y="0.82959" width="0.720568" height="1.92152" rx="0.360284" fill="#FF2AA1"/>
  <rect x="9.43359" y="0.108887" width="0.720568" height="1.92152" rx="0.360284" fill="#FF2AA1"/>
  <rect x="11.835" y="0.82959" width="0.720568" height="1.92152" rx="0.360284" fill="#FF2AA1"/>
</svg>