<svg width="36" height="40" viewBox="0 0 36 40" fill="none" xmlns="http://www.w3.org/2000/svg">
<mask id="mask0_443_17296" style="mask-type:alpha" maskUnits="userSpaceOnUse" x="0" y="0" width="36" height="40">
<path d="M4.06354 23.9892C3.15134 24.1777 2.79615 24.244 2.17188 24.3754C2.17202 26.1344 2.1737 30.7343 2.17365 32.235C3.79408 33.0191 5.56504 33.7453 7.3483 34.0471C8.96875 34.3213 10.7044 34.4257 12.3509 34.5001C14.111 34.5796 15.874 34.6079 17.6346 34.5067C20.4177 34.3468 23.2699 33.6529 25.7922 32.4481C27.5874 31.5906 30.9072 30.516 32.04 29.6426C32.276 29.4606 32.8555 29.1576 33.3091 28.4446C33.9832 27.3848 33.0997 26.0815 32.04 25.9564C30.9281 25.8252 30.4371 25.8658 29.9825 25.883C28.7236 25.9305 27.6319 26.1489 26.4822 26.4596C25.5943 26.6995 24.7905 27.0929 23.9199 27.3414C22.6123 27.7145 21.4978 28.0619 20.2078 28.4446C19.3202 28.7079 18.3152 28.7603 17.3692 28.7691C15.3202 28.7883 13.2978 28.728 11.265 28.4446C10.4302 28.3282 9.26465 28.0549 9.29034 27.653C9.33351 26.9775 9.89321 26.7888 10.2984 26.6242C10.7036 26.4596 11.5866 26.494 12.3509 26.5258C12.9512 26.5508 13.7568 26.7254 14.0939 26.804C14.9979 27.0146 16.0592 27.0223 16.9325 27.0223C17.9987 27.0223 19.6624 27.2935 19.8495 26.5405C19.8987 26.3425 19.9696 26.152 19.9894 25.9305C20.0717 25.0068 19.2526 24.3627 18.2425 24.1837C16.9504 23.9548 16.3726 23.8015 15.0766 23.593C14.6649 23.5268 13.8654 23.4776 12.9535 23.4526C11.8233 23.4216 10.697 23.4532 9.56788 23.486C8.37774 23.5205 7.11483 23.4163 5.9349 23.593C5.32421 23.6844 4.77281 23.8425 4.06354 23.9892Z" fill="#F86A84"/>
<path d="M17.7627 9.11707C21.1392 9.11714 23.8768 11.8539 23.877 15.2303C23.877 18.6069 21.1393 21.3445 17.7627 21.3446C14.3861 21.3446 11.6484 18.607 11.6484 15.2303C11.6486 11.8538 14.3862 9.11707 17.7627 9.11707ZM15.2432 12.1132L16.9658 15.5302H16.0947V16.3446H17.2275V16.9716H16.0947V17.786H17.2275V18.7977H18.5381V17.786H19.6621V16.9716H18.5381V16.3446H19.6621V15.5302H18.7725L20.5234 12.1132H19.0908L17.8828 14.8651L16.6846 12.1132H15.2432Z" fill="#F86A84"/>
<rect x="12.7842" y="5.62378" width="1.31012" height="3.49366" rx="0.655062" fill="#F86A84"/>
<rect x="17.1514" y="4.31372" width="1.31012" height="3.49366" rx="0.655062" fill="#F86A84"/>
<rect x="21.5176" y="5.62378" width="1.31012" height="3.49366" rx="0.655062" fill="#F86A84"/>
</mask>
<g mask="url(#mask0_443_17296)">
<rect width="35.0877" height="40" fill="#F86A84"/>
</g>
</svg>
