<svg width="32" height="32" viewBox="0 0 32 32" fill="none" xmlns="http://www.w3.org/2000/svg">
<path d="M17.165 23.1631C17.165 18.5909 13.4588 14.8839 8.88672 14.8838C4.3145 14.8838 0.607421 18.5909 0.607422 23.1631C0.607565 27.7352 4.31459 31.4414 8.88672 31.4414C13.4588 31.4413 17.1649 27.7351 17.165 23.1631ZM13.2617 23.7813C13.5594 24.079 13.5594 24.5625 13.2617 24.8604L9.53027 28.5918C9.3874 28.7346 9.19318 28.8143 8.99121 28.8145C8.7891 28.8143 8.5941 28.7337 8.45117 28.5908L4.33496 24.4746L4.28223 24.417C4.03839 24.1175 4.05606 23.6756 4.33496 23.3965C4.61411 23.1174 5.05594 23.1007 5.35547 23.3447L5.41309 23.3965L8.19922 26.1826L8.19922 18.1357L8.2041 18.0576C8.24335 17.6734 8.56836 17.3733 8.96289 17.373C9.35742 17.3732 9.68141 17.6734 9.7207 18.0576L9.72559 18.1357L9.72559 26.2383L12.1826 23.7813L12.2412 23.7295C12.5406 23.4855 12.9826 23.5025 13.2617 23.7813Z" fill="#F86A84"/>
<path d="M24.5723 0.940674C26.9786 0.940674 28.9295 2.89084 28.9297 5.29712V9.65454H21.958C20.5142 9.65454 19.3439 10.825 19.3438 12.2688V15.7542C19.3438 17.198 20.5141 18.3684 21.958 18.3684H28.9297V23.5979C28.9296 26.0043 26.9787 27.9553 24.5723 27.9553H16.6807C17.5396 26.5613 18.0361 24.9198 18.0361 23.1624C18.0358 18.1092 13.939 14.013 8.88574 14.0129C4.80683 14.0131 1.35273 16.6826 0.171875 20.3694V5.29712C0.172052 2.89084 2.12297 0.940674 4.5293 0.940674H24.5723ZM4.09375 3.55396C3.13125 3.55396 2.35071 4.33465 2.35059 5.29712V9.43677C2.35076 9.91785 2.74057 10.3078 3.22168 10.3079C3.70278 10.3078 4.09358 9.91785 4.09375 9.43677V5.29712H12.3721C12.8531 5.297 13.243 4.90705 13.2432 4.42603C13.243 3.94492 12.8532 3.55408 12.3721 3.55396H4.09375Z" fill="#F86A84"/>
<path d="M29.8018 10.5265C30.7642 10.5266 31.5449 11.3072 31.5449 12.2697V15.756C31.5447 16.7183 30.7641 17.4981 29.8018 17.4982H22.3945C21.4321 17.4982 20.6516 16.7184 20.6514 15.756V12.2697C20.6514 11.3071 21.432 10.5265 22.3945 10.5265H29.8018ZM24.1367 12.2697C23.1744 12.2699 22.3946 13.0505 22.3945 14.0128C22.3945 14.9752 23.1743 15.7557 24.1367 15.756C25.0993 15.756 25.8799 14.9754 25.8799 14.0128C25.8798 13.0503 25.0992 12.2697 24.1367 12.2697Z" fill="#F86A84"/>
</svg>
