<svg width="56" height="36" viewBox="0 0 56 36" fill="none" xmlns="http://www.w3.org/2000/svg">
<mask id="mask0_2_57566" style="mask-type:alpha" maskUnits="userSpaceOnUse" x="16" y="3" width="21" height="22">
<g clipPath="url(#clip0_2_57566)">
<mask id="mask1_2_57566" style="mask-type:alpha" maskUnits="userSpaceOnUse" x="16" y="7" width="21" height="19">
<rect x="16.5" y="7" width="20" height="19" fill="#D9D9D9"/>
</mask>
<g mask="url(#mask1_2_57566)">
<path d="M37.5 29H15.5V21L20.5136 14.9179C20.6957 14.6971 21.0257 14.6738 21.2369 14.8671L23.8673 17.2733C24.0826 17.4702 24.42 17.4418 24.5993 17.2116L29.7874 10.5488C29.9974 10.2791 30.4101 10.2949 30.5988 10.5799L37.5 21V29Z" stroke="black" strokeMiterlimit="10" strokeLinejoin="round"/>
</g>
<path d="M22 6.5C23.0943 6.5 24 7.40567 24 8.5C24 9.59432 23.0943 10.5 22 10.5C20.9057 10.5 20 9.59432 20 8.5C20 7.40567 20.9057 6.5 22 6.5Z" stroke="black" strokeMiterlimit="10"/>
</g>
<rect x="16.5" y="4" width="20" height="20" rx="3" stroke="black" strokeMiterlimit="10"/>
</mask>
<g mask="url(#mask0_2_57566)">
<path d="M35.9873 3C36.8227 3.00011 37.4999 3.67731 37.5 4.5127V17C36.6643 16.3722 35.6257 16 34.5 16C31.7386 16 29.5 18.2386 29.5 21C29.5 22.6357 30.2857 24.0878 31.5 25H17.0127C16.1773 24.9999 15.5001 24.3227 15.5 23.4873V4.5127C15.5001 3.67731 16.1773 3.00011 17.0127 3H35.9873Z" fill="#ACACAC"/>
</g>
<rect x="30" y="16.5" width="9" height="9" rx="4.5" stroke="#ACACAC"/>
<path d="M34.5 18.8574L34.5 23.1431" stroke="#ACACAC" strokeWidth="0.857143" strokeMiterlimit="10" strokeLinecap="round" strokeLinejoin="round"/>
<path d="M32.3574 21.3571L34.5003 23.5L36.6431 21.3571" stroke="#ACACAC" strokeWidth="0.857143" strokeMiterlimit="10" strokeLinecap="round" strokeLinejoin="round"/>
<defs>
<clipPath id="clip0_2_57566">
<rect x="16.5" y="4" width="20" height="20" rx="3" fill="white"/>
</clipPath>
</defs>
</svg>
