<svg width="16" height="16" viewBox="0 0 16 16" fill="none" xmlns="http://www.w3.org/2000/svg">
<path d="M14.1748 1.99951H1.82521C1.36946 1.99951 1 2.36898 1 2.82473V13.1743C1 13.63 1.36946 13.9995 1.82521 13.9995H14.1748C14.6305 13.9995 15 13.63 15 13.1743V2.82473C15 2.36898 14.6305 1.99951 14.1748 1.99951Z" stroke="#FF2AA1" stroke-width="1.2" stroke-miterlimit="10"/>
<path d="M4.03679 11.9269C4.01993 11.9602 4.0441 11.9995 4.08139 11.9995H11.9222C11.9586 11.9995 11.9828 11.9618 11.9676 11.9287L9.78684 7.15822C9.75471 7.08795 9.65843 7.0791 9.61404 7.14235L7.25876 10.4983C7.22228 10.5503 7.1472 10.5555 7.10384 10.5091L5.67873 8.98371C5.63131 8.93295 5.54785 8.94482 5.51645 9.00678L4.03679 11.9269Z" fill="#FF2AA1" stroke="#FF2AA1" stroke-width="0.955962" stroke-miterlimit="10"/>
<path d="M7 5.9995C7 6.54496 6.54546 6.99951 6 6.99951C5.45455 6.99951 5 6.54496 5 5.9995C5 5.45405 5.45455 4.99951 6 4.99951C6.54546 4.99951 7 5.45405 7 5.9995Z" fill="#FF2AA1" stroke="#FF2AA1" stroke-width="0.52" stroke-miterlimit="10"/>
</svg>
