<svg width="16" height="17" viewBox="0 0 16 17" fill="none" xmlns="http://www.w3.org/2000/svg">
<mask id="mask0_345_5373" style="mask-type:alpha" maskUnits="userSpaceOnUse" x="0" y="0" width="16" height="17">
<g clip-path="url(#clip0_345_5373)">
<g clip-path="url(#clip1_345_5373)">
<mask id="mask1_345_5373" style="mask-type:alpha" maskUnits="userSpaceOnUse" x="0" y="0" width="16" height="17">
<path d="M11.6152 7.30713C11.8029 7.11993 12.1292 7.16999 12.2227 7.43115C12.4812 8.15629 12.5499 8.93905 12.418 9.70264C12.2602 10.6151 11.8237 11.4561 11.1689 12.1108C10.5142 12.7656 9.67321 13.2021 8.76074 13.3599C7.99728 13.4918 7.21527 13.423 6.49023 13.1646C6.22835 13.0712 6.17846 12.7449 6.36621 12.5571C6.4772 12.4461 6.64108 12.4149 6.78516 12.4644C7.41165 12.6795 8.0857 12.7244 8.7373 12.5923C9.4554 12.4467 10.1147 12.0928 10.6328 11.5747C11.1511 11.0564 11.5058 10.3965 11.6514 9.67822C11.7834 9.0267 11.7386 8.35248 11.5234 7.72607C11.4741 7.58214 11.5044 7.41799 11.6152 7.30713Z" fill="#FF2AA1" stroke="#FF2AA1" stroke-width="0.15"/>
<path d="M7.35254 4.50586C8.16689 4.38676 8.99593 4.49413 9.74902 4.8125C9.9954 4.91685 10.0349 5.23102 9.85352 5.41211C9.73677 5.52841 9.56194 5.55478 9.41406 5.49414C8.96602 5.31047 8.48562 5.21584 8 5.2168C7.36997 5.21682 6.74977 5.37708 6.19824 5.68164C5.64681 5.9862 5.18125 6.42584 4.8457 6.95898C4.51025 7.49211 4.31533 8.10162 4.2793 8.73047C4.2474 9.28722 4.34089 9.84314 4.55176 10.3574C4.61247 10.5055 4.58544 10.6802 4.46875 10.7969C4.28759 10.9778 3.97425 10.9376 3.87012 10.6914C3.55167 9.93826 3.44437 9.10936 3.56348 8.29492C3.70326 7.33964 4.14739 6.45515 4.83008 5.77246C5.51277 5.08977 6.39725 4.64564 7.35254 4.50586Z" fill="#FF2AA1" stroke="#FF2AA1" stroke-width="0.15"/>
<path d="M8.70151 6.68602L6.40039 6.68506V11.5011H7.20039V10.0451H8.70151C9.64119 10.0451 10.3145 9.31562 10.3145 8.36506C10.3145 7.4145 9.64119 6.68602 8.70151 6.68602ZM8.66951 9.27706H7.20039V7.45306H8.66951C9.21479 7.45306 9.51447 7.84506 9.51447 8.36506C9.51447 8.88506 9.21479 9.27706 8.66951 9.27706Z" fill="#FF2AA1"/>
<path d="M8 2.76221C11.4131 2.76225 14.1797 5.52877 14.1797 8.94189C14.1796 12.355 11.4131 15.1215 8 15.1216C4.58688 15.1216 1.82036 12.355 1.82031 8.94189C1.82031 5.52875 4.58685 2.76221 8 2.76221ZM8 3.60205C5.05075 3.60205 2.66016 5.99264 2.66016 8.94189C2.6602 11.8911 5.05078 14.2817 8 14.2817C10.9492 14.2817 13.3398 11.8911 13.3398 8.94189C13.3398 5.99267 10.9492 3.60209 8 3.60205Z" fill="#FF2AA1" stroke="#FF2AA1" stroke-width="0.2"/>
</mask>
<g mask="url(#mask1_345_5373)">
<rect y="0.941406" width="16" height="16" fill="url(#paint0_linear_345_5373)"/>
</g>
</g>
</g>
</mask>
<g mask="url(#mask0_345_5373)">
<rect y="0.941406" width="16" height="16" fill="url(#paint1_linear_345_5373)"/>
</g>
<defs>
<linearGradient id="paint0_linear_345_5373" x1="16" y1="8.86934" x2="-1.84886e-07" y2="8.86934" gradientUnits="userSpaceOnUse">
<stop stop-color="#FF2AA1"/>
<stop offset="1" stop-color="#AB31D3"/>
</linearGradient>
<linearGradient id="paint1_linear_345_5373" x1="0" y1="0.941406" x2="16" y2="16.9414" gradientUnits="userSpaceOnUse">
<stop stop-color="#FF8D4E"/>
<stop offset="1" stop-color="#EA2CE2"/>
</linearGradient>
<clipPath id="clip0_345_5373">
<rect width="16" height="16" fill="white" transform="translate(0 0.941406)"/>
</clipPath>
<clipPath id="clip1_345_5373">
<rect width="16" height="16" fill="white" transform="translate(0 0.941406)"/>
</clipPath>
</defs>
</svg>
