<svg width="20" height="20" viewBox="0 0 20 20" fill="none" xmlns="http://www.w3.org/2000/svg">
<mask id="mask0_646_34953" style="mask-type:alpha" maskUnits="userSpaceOnUse" x="0" y="0" width="20" height="20">
<g clipPath="url(#clip0_646_34953)">
<path d="M2 17.9997H18M2 17.9997V13.9997L10 5.99975M2 17.9997L6 17.9997L14 9.99974M10 5.99975L12.8686 3.1311L12.8704 3.1294C13.2652 2.73451 13.463 2.53672 13.691 2.46264C13.8919 2.39738 14.1082 2.39738 14.3091 2.46264C14.5369 2.53667 14.7345 2.73424 15.1288 3.12856L16.8686 4.86836C17.2646 5.26437 17.4627 5.46247 17.5369 5.6908C17.6022 5.89164 17.6021 6.10799 17.5369 6.30883C17.4628 6.537 17.265 6.7348 16.8695 7.13025L16.8686 7.1311L14 9.99974M10 5.99975L14 9.99974" stroke="#FF2AA1" strokeWidth="1.5" strokeLinecap="round" strokeLinejoin="round"/>
</g>
</mask>
<g mask="url(#mask0_646_34953)">
<rect width="20" height="20" fill="#767676"/>
</g>
<defs>
<clipPath id="clip0_646_34953">
<rect width="20" height="20" fill="white"/>
</clipPath>
</defs>
</svg>
