<svg width="80" height="80" viewBox="0 0 80 80" fill="none" xmlns="http://www.w3.org/2000/svg">
<mask id="mask0_726_29701" style="mask-type:alpha" maskUnits="userSpaceOnUse" x="-2" y="1" width="55" height="59">
<rect x="-1.5" y="1" width="54.5" height="58.5" fill="#D9D9D9"/>
</mask>
<g mask="url(#mask0_726_29701)">
<path d="M10.9561 -2.00293H85.5439C85.5456 -2.00293 85.5477 -2.00169 85.5479 -2L90.4551 51C90.4552 51.0013 90.455 51.0014 90.4551 51.001L90.4531 51.0029H6.04688L6.04492 51.001C6.04504 51.0014 6.04483 51.0013 6.04492 51L10.9521 -2C10.9523 -2.00167 10.9544 -2.00293 10.9561 -2.00293Z" fill="white" stroke="#363636" stroke-width="0.993504"/>
<path d="M90.2119 50.9971L90.2139 50.999C90.2138 50.9994 90.2134 51 90.2129 51.001L83.9365 64.251C83.936 64.2521 83.9348 64.2529 83.9336 64.2529H14.2842C14.2831 64.2529 14.2819 64.2528 14.2812 64.252L6.37793 51.002L6.37598 51L6.37793 50.998V50.9971H90.2119Z" fill="white" stroke="#363636" stroke-width="0.993504"/>
<rect x="17.4968" y="5.49675" width="43.5065" height="6.5065" rx="0.993504" fill="#363636" stroke="#363636" stroke-width="0.993504"/>
<rect x="17.4968" y="16.4968" width="26.5065" height="29.5065" rx="0.993504" fill="white" stroke="#363636" stroke-width="0.993504"/>
<rect x="20.7111" y="19.4968" width="20.0774" height="16.5065" rx="0.993504" fill="white" stroke="#363636" stroke-width="0.993504"/>
<mask id="path-7-inside-1_726_29701" fill="white">
<rect x="27.6001" y="24.7002" width="6.3" height="5.1" rx="0.894154"/>
</mask>
<rect x="27.6001" y="24.7002" width="6.3" height="5.1" rx="0.894154" fill="#363636" stroke="#363636" stroke-width="1.99" mask="url(#path-7-inside-1_726_29701)"/>
<path d="M38.2744 22L36.0005 24.274" stroke="#363636" stroke-width="0.995" stroke-linecap="round"/>
<path d="M38.2744 33.2734L36.0005 30.9995" stroke="#363636" stroke-width="0.995" stroke-linecap="round"/>
<path d="M23.5 22L25.774 24.274" stroke="#363636" stroke-width="0.995" stroke-linecap="round"/>
<path d="M23.5 33.2734L25.774 30.9995" stroke="#363636" stroke-width="0.995" stroke-linecap="round"/>
</g>
<path d="M64.8733 47.7681C64.0846 49.0456 60.9144 53.6804 59.9814 54.9383C58.715 56.6455 54.3663 63.19 53.3171 64.987C55.4068 68.0144 57.8174 68.7028 59.7241 69.4478C61.9771 70.328 65.0503 69.2687 67.124 68.6651C68.5007 68.2644 72.3324 66.3247 73.3399 65.0763C75.7101 62.1395 77.2073 59.1747 76.6509 55.313C76.1922 52.1295 74.5249 48.373 72.3648 46.0099C71.7688 45.3579 71.0302 44.6328 70.2434 44.2149C67.7643 42.8981 63.7143 40.9157 60.9983 39.9222C59.9661 39.5447 57.6456 38.7625 56.7822 40.1752C56.2438 41.0564 56.7502 42.2157 57.5863 42.9571C59.9524 45.0552 62.4538 46.0328 64.8733 47.7681Z" fill="#FCE8C3" stroke="#363636" stroke-width="1.51107" stroke-linecap="round"/>
<rect x="32.1489" y="47.8125" width="4.53322" height="9.38398" rx="2.26661" transform="rotate(-75 32.1489 47.8125)" fill="#FCE8C3" stroke="#363636" stroke-width="1.51107" stroke-linecap="round"/>
<rect x="32.3021" y="35.551" width="22.6661" height="42.31" rx="2.26661" transform="rotate(-30 32.3021 35.551)" fill="white" stroke="#363636" stroke-width="1.51107"/>
<rect x="43.205" y="45.2221" width="5.37724" height="5.37724" rx="0.614542" transform="rotate(-30 43.205 45.2221)" stroke="#363636" stroke-width="0.69136"/>
<rect x="44.7983" y="45.6777" width="3.0343" height="3.0343" rx="0.0768178" transform="rotate(-30 44.7983 45.6777)" fill="#363636"/>
<rect x="50.0571" y="41.2661" width="5.37724" height="5.37724" rx="0.614542" transform="rotate(-30 50.0571 41.2661)" stroke="#363636" stroke-width="0.69136"/>
<rect x="51.6504" y="41.7217" width="3.0343" height="3.0343" rx="0.0768178" transform="rotate(-30 51.6504 41.7217)" fill="#363636"/>
<rect x="47.123" y="52.0082" width="5.37724" height="5.37724" rx="0.614542" transform="rotate(-30 47.123 52.0082)" stroke="#363636" stroke-width="0.69136"/>
<rect x="48.7163" y="52.4629" width="3.0343" height="3.0343" rx="0.0768178" transform="rotate(-30 48.7163 52.4629)" fill="#363636"/>
<rect x="53.6675" y="48.0254" width="1.46266" height="1.46266" rx="0.069136" transform="rotate(-30 53.6675 48.0254)" fill="#363636"/>
<rect x="55.1304" y="50.5586" width="1.46266" height="1.46266" rx="0.069136" transform="rotate(-30 55.1304 50.5586)" fill="#363636"/>
<rect x="55.6655" y="48.5605" width="1.46266" height="1.46266" rx="0.069136" transform="rotate(-30 55.6655 48.5605)" fill="#363636"/>
<rect x="57.1284" y="51.0938" width="1.46266" height="1.46266" rx="0.069136" transform="rotate(-30 57.1284 51.0938)" fill="#363636"/>
<rect x="56.2012" y="46.5625" width="1.46266" height="1.46266" rx="0.069136" transform="rotate(-30 56.2012 46.5625)" fill="#363636"/>
<rect x="57.6636" y="49.0967" width="1.46266" height="1.46266" rx="0.069136" transform="rotate(-30 57.6636 49.0967)" fill="#363636"/>
<rect x="58.1987" y="47.0986" width="1.46266" height="1.46266" rx="0.069136" transform="rotate(-30 58.1987 47.0986)" fill="#363636"/>
<rect x="59.6616" y="49.6318" width="1.46266" height="1.46266" rx="0.069136" transform="rotate(-30 59.6616 49.6318)" fill="#363636"/>
<rect x="38.292" y="33.8379" width="10.5775" height="2.26661" rx="1.1333" transform="rotate(-30 38.292 33.8379)" fill="#363636"/>
<path d="M60.9982 39.9225C59.966 39.5449 57.6455 38.7628 56.7822 40.1755C56.2437 41.0566 56.7502 42.2159 57.5863 42.9573C59.9523 45.0554 65.2772 48.278 67.6967 50.0133L70.2434 44.2152C67.7642 42.8983 63.7143 40.916 60.9982 39.9225Z" fill="#FCE8C3"/>
<path d="M67.1806 49.8751C64.7612 48.1397 59.9523 45.0554 57.5863 42.9573C56.7502 42.2159 56.2437 41.0566 56.7822 40.1755C57.6455 38.7628 59.966 39.5449 60.9982 39.9225C63.7143 40.916 67.7642 42.8983 70.2434 44.2152" stroke="#363636" stroke-width="1.51107" stroke-linecap="round"/>
<rect x="39.248" y="59.6709" width="4.53322" height="8.3109" rx="2.26661" transform="rotate(-75 39.248 59.6709)" fill="#FCE8C3" stroke="#363636" stroke-width="1.51107" stroke-linecap="round"/>
<rect x="36.8804" y="54.0586" width="4.53322" height="7.02318" rx="2.26661" transform="rotate(-75 36.8804 54.0586)" fill="#FCE8C3" stroke="#363636" stroke-width="1.51107" stroke-linecap="round"/>
<rect x="43.6802" y="65.8359" width="4.53322" height="6.34546" rx="2.26661" transform="rotate(-75 43.6802 65.8359)" fill="#FCE8C3" stroke="#363636" stroke-width="1.51107" stroke-linecap="round"/>
<path d="M61.4175 17.8428L57.1435 22.1167" stroke="#363636" stroke-width="1.51107" stroke-linecap="round"/>
<path d="M53.6714 14.9043L52.6029 19.1783" stroke="#363636" stroke-width="1.51107" stroke-linecap="round"/>
<path d="M64.0889 25.3223L59.8149 26.3908" stroke="#363636" stroke-width="1.51107" stroke-linecap="round"/>
</svg>
