<svg width="80" height="80" viewBox="0 0 80 80" fill="none" xmlns="http://www.w3.org/2000/svg">
<rect x="14.2038" y="3.58951" width="43.4568" height="13.8364" rx="0.679012" fill="white"/>
<rect x="14.2038" y="3.58951" width="43.4568" height="13.8364" rx="0.679012" stroke="#363636" strokeWidth="0.679012"/>
<path d="M30.8903 8.11719V5.99831H31.2325L31.934 7.24319L32.1553 7.69169H32.1697C32.1525 7.47319 32.1266 7.21731 32.1266 6.98731V5.99831H32.4428V8.11719H32.1007L31.3992 6.86944L31.1778 6.42669H31.1635C31.1807 6.64519 31.2066 6.88956 31.2066 7.11956V8.11719H30.8903ZM33.7779 8.15456C33.3093 8.15456 32.9902 7.89869 32.9902 7.20869V5.99831H33.3237V7.23169C33.3237 7.70894 33.5134 7.86419 33.7779 7.86419C34.0453 7.86419 34.2408 7.70894 34.2408 7.23169V5.99831H34.5628V7.20869C34.5628 7.89869 34.2465 8.15456 33.7779 8.15456ZM35.1102 8.11719V5.99831H35.4925L35.8807 7.07069C35.9295 7.21156 35.9727 7.35531 36.0215 7.49619H36.0359C36.0848 7.35531 36.125 7.21156 36.1739 7.07069L36.5563 5.99831H36.9415V8.11719H36.631V7.07069C36.631 6.88094 36.6569 6.60781 36.6742 6.41519H36.6627L36.493 6.90394L36.125 7.91306H35.918L35.5472 6.90394L35.3804 6.41519H35.3689C35.3833 6.60781 35.4092 6.88094 35.4092 7.07069V8.11719H35.1102ZM37.4966 8.11719V5.99831H38.1521C38.5863 5.99831 38.8996 6.13919 38.8996 6.52156C38.8996 6.72281 38.7875 6.91544 38.5978 6.97869V6.99306C38.8393 7.04481 39.0146 7.20869 39.0146 7.49619C39.0146 7.91594 38.6725 8.11719 38.2039 8.11719H37.4966ZM37.8301 6.88381H38.1148C38.4368 6.88381 38.5719 6.76306 38.5719 6.56469C38.5719 6.34331 38.4224 6.25994 38.1234 6.25994H37.8301V6.88381ZM37.8301 7.85556H38.1665C38.4971 7.85556 38.6869 7.73769 38.6869 7.47894C38.6869 7.24031 38.5029 7.13394 38.1665 7.13394H37.8301V7.85556ZM39.4143 8.11719V5.99831H40.6649V6.28006H39.7478V6.86944H40.524V7.15119H39.7478V7.83544H40.6965V8.11719H39.4143ZM41.1381 8.11719V5.99831H41.831C42.268 5.99831 42.5958 6.15644 42.5958 6.61356C42.5958 6.94131 42.4204 7.13681 42.153 7.22019L42.6705 8.11719H42.2939L41.8138 7.26331H41.4716V8.11719H41.1381ZM41.4716 6.99594H41.7908C42.0984 6.99594 42.2651 6.86944 42.2651 6.61356C42.2651 6.35769 42.0984 6.26856 41.7908 6.26856H41.4716V6.99594Z" fill="#363636"/>
<path d="M24.3296 12.5849C24.1177 12.5849 23.9208 12.5482 23.7388 12.4749C23.5569 12.3988 23.3966 12.2942 23.2581 12.1612C23.1223 12.0253 23.015 11.8692 22.9362 11.6926C22.8602 11.5134 22.8222 11.3205 22.8222 11.1141C22.8222 10.9077 22.8602 10.7162 22.9362 10.5397C23.015 10.3604 23.1223 10.2042 23.2581 10.0712C23.3966 9.93535 23.5569 9.83078 23.7388 9.75745C23.9208 9.6814 24.1177 9.64337 24.3296 9.64337C24.5414 9.64337 24.7383 9.6814 24.9203 9.75745C25.105 9.83078 25.2653 9.93535 25.4011 10.0712C25.5396 10.2042 25.6469 10.3604 25.7229 10.5397C25.799 10.7162 25.837 10.9077 25.837 11.1141C25.837 11.3205 25.799 11.5134 25.7229 11.6926C25.6469 11.8692 25.5396 12.0253 25.4011 12.1612C25.2653 12.2942 25.105 12.3988 24.9203 12.4749C24.7383 12.5482 24.5414 12.5849 24.3296 12.5849ZM24.3296 12.043C24.4599 12.043 24.5794 12.0199 24.6881 11.9737C24.7967 11.9249 24.8918 11.8597 24.9733 11.7782C25.0548 11.694 25.1186 11.5949 25.1648 11.4808C25.2109 11.3667 25.234 11.2445 25.234 11.1141C25.234 10.981 25.2109 10.8588 25.1648 10.7474C25.1186 10.6334 25.0548 10.5356 24.9733 10.4541C24.8918 10.3699 24.7967 10.3047 24.6881 10.2586C24.5794 10.2097 24.4599 10.1852 24.3296 10.1852C24.2019 10.1852 24.0838 10.2097 23.9751 10.2586C23.8665 10.3047 23.7714 10.3699 23.6899 10.4541C23.6085 10.5356 23.5446 10.6334 23.4985 10.7474C23.4523 10.8588 23.4292 10.9797 23.4292 11.11C23.4292 11.2431 23.4523 11.3667 23.4985 11.4808C23.5446 11.5949 23.6085 11.694 23.6899 11.7782C23.7714 11.8597 23.8665 11.9249 23.9751 11.9737C24.0838 12.0199 24.2019 12.043 24.3296 12.043ZM27.6437 12.5849C27.4319 12.5849 27.235 12.5482 27.053 12.4749C26.871 12.3988 26.7108 12.2942 26.5723 12.1612C26.4365 12.0253 26.3292 11.8692 26.2504 11.6926C26.1744 11.5134 26.1363 11.3205 26.1363 11.1141C26.1363 10.9077 26.1744 10.7162 26.2504 10.5397C26.3292 10.3604 26.4365 10.2042 26.5723 10.0712C26.7108 9.93535 26.871 9.83078 27.053 9.75745C27.235 9.6814 27.4319 9.64337 27.6437 9.64337C27.8556 9.64337 28.0525 9.6814 28.2345 9.75745C28.4192 9.83078 28.5794 9.93535 28.7152 10.0712C28.8537 10.2042 28.961 10.3604 29.0371 10.5397C29.1131 10.7162 29.1511 10.9077 29.1511 11.1141C29.1511 11.3205 29.1131 11.5134 29.0371 11.6926C28.961 11.8692 28.8537 12.0253 28.7152 12.1612C28.5794 12.2942 28.4192 12.3988 28.2345 12.4749C28.0525 12.5482 27.8556 12.5849 27.6437 12.5849ZM27.6437 12.043C27.7741 12.043 27.8936 12.0199 28.0023 11.9737C28.1109 11.9249 28.206 11.8597 28.2874 11.7782C28.3689 11.694 28.4327 11.5949 28.4789 11.4808C28.5251 11.3667 28.5482 11.2445 28.5482 11.1141C28.5482 10.981 28.5251 10.8588 28.4789 10.7474C28.4327 10.6334 28.3689 10.5356 28.2874 10.4541C28.206 10.3699 28.1109 10.3047 28.0023 10.2586C27.8936 10.2097 27.7741 10.1852 27.6437 10.1852C27.5161 10.1852 27.3979 10.2097 27.2893 10.2586C27.1806 10.3047 27.0856 10.3699 27.0041 10.4541C26.9226 10.5356 26.8588 10.6334 26.8126 10.7474C26.7665 10.8588 26.7434 10.9797 26.7434 11.11C26.7434 11.2431 26.7665 11.3667 26.8126 11.4808C26.8588 11.5949 26.9226 11.694 27.0041 11.7782C27.0856 11.8597 27.1806 11.9249 27.2893 11.9737C27.3979 12.0199 27.5161 12.043 27.6437 12.043ZM30.9579 12.5849C30.746 12.5849 30.5491 12.5482 30.3672 12.4749C30.1852 12.3988 30.0249 12.2942 29.8864 12.1612C29.7506 12.0253 29.6433 11.8692 29.5646 11.6926C29.4885 11.5134 29.4505 11.3205 29.4505 11.1141C29.4505 10.9077 29.4885 10.7162 29.5646 10.5397C29.6433 10.3604 29.7506 10.2042 29.8864 10.0712C30.0249 9.93535 30.1852 9.83078 30.3672 9.75745C30.5491 9.6814 30.746 9.64337 30.9579 9.64337C31.1698 9.64337 31.3667 9.6814 31.5486 9.75745C31.7333 9.83078 31.8936 9.93535 32.0294 10.0712C32.1679 10.2042 32.2752 10.3604 32.3512 10.5397C32.4273 10.7162 32.4653 10.9077 32.4653 11.1141C32.4653 11.3205 32.4273 11.5134 32.3512 11.6926C32.2752 11.8692 32.1679 12.0253 32.0294 12.1612C31.8936 12.2942 31.7333 12.3988 31.5486 12.4749C31.3667 12.5482 31.1698 12.5849 30.9579 12.5849ZM30.9579 12.043C31.0883 12.043 31.2078 12.0199 31.3164 11.9737C31.4251 11.9249 31.5201 11.8597 31.6016 11.7782C31.6831 11.694 31.7469 11.5949 31.7931 11.4808C31.8393 11.3667 31.8623 11.2445 31.8623 11.1141C31.8623 10.981 31.8393 10.8588 31.7931 10.7474C31.7469 10.6334 31.6831 10.5356 31.6016 10.4541C31.5201 10.3699 31.4251 10.3047 31.3164 10.2586C31.2078 10.2097 31.0883 10.1852 30.9579 10.1852C30.8302 10.1852 30.7121 10.2097 30.6035 10.2586C30.4948 10.3047 30.3998 10.3699 30.3183 10.4541C30.2368 10.5356 30.173 10.6334 30.1268 10.7474C30.0806 10.8588 30.0575 10.9797 30.0575 11.11C30.0575 11.2431 30.0806 11.3667 30.1268 11.4808C30.173 11.5949 30.2368 11.694 30.3183 11.7782C30.3998 11.8597 30.4948 11.9249 30.6035 11.9737C30.7121 12.0199 30.8302 12.043 30.9579 12.043ZM34.2721 12.5849C34.0602 12.5849 33.8633 12.5482 33.6813 12.4749C33.4993 12.3988 33.3391 12.2942 33.2006 12.1612C33.0648 12.0253 32.9575 11.8692 32.8787 11.6926C32.8027 11.5134 32.7647 11.3205 32.7647 11.1141C32.7647 10.9077 32.8027 10.7162 32.8787 10.5397C32.9575 10.3604 33.0648 10.2042 33.2006 10.0712C33.3391 9.93535 33.4993 9.83078 33.6813 9.75745C33.8633 9.6814 34.0602 9.64337 34.2721 9.64337C34.4839 9.64337 34.6808 9.6814 34.8628 9.75745C35.0475 9.83078 35.2077 9.93535 35.3435 10.0712C35.4821 10.2042 35.5893 10.3604 35.6654 10.5397C35.7414 10.7162 35.7795 10.9077 35.7795 11.1141C35.7795 11.3205 35.7414 11.5134 35.6654 11.6926C35.5893 11.8692 35.4821 12.0253 35.3435 12.1612C35.2077 12.2942 35.0475 12.3988 34.8628 12.4749C34.6808 12.5482 34.4839 12.5849 34.2721 12.5849ZM34.2721 12.043C34.4024 12.043 34.5219 12.0199 34.6306 11.9737C34.7392 11.9249 34.8343 11.8597 34.9158 11.7782C34.9972 11.694 35.0611 11.5949 35.1072 11.4808C35.1534 11.3667 35.1765 11.2445 35.1765 11.1141C35.1765 10.981 35.1534 10.8588 35.1072 10.7474C35.0611 10.6334 34.9972 10.5356 34.9158 10.4541C34.8343 10.3699 34.7392 10.3047 34.6306 10.2586C34.5219 10.2097 34.4024 10.1852 34.2721 10.1852C34.1444 10.1852 34.0263 10.2097 33.9176 10.2586C33.809 10.3047 33.7139 10.3699 33.6324 10.4541C33.551 10.5356 33.4871 10.6334 33.441 10.7474C33.3948 10.8588 33.3717 10.9797 33.3717 11.11C33.3717 11.2431 33.3948 11.3667 33.441 11.4808C33.4871 11.5949 33.551 11.694 33.6324 11.7782C33.7139 11.8597 33.809 11.9249 33.9176 11.9737C34.0263 12.0199 34.1444 12.043 34.2721 12.043ZM37.5862 12.5849C37.3744 12.5849 37.1775 12.5482 36.9955 12.4749C36.8135 12.3988 36.6533 12.2942 36.5147 12.1612C36.3789 12.0253 36.2717 11.8692 36.1929 11.6926C36.1168 11.5134 36.0788 11.3205 36.0788 11.1141C36.0788 10.9077 36.1168 10.7162 36.1929 10.5397C36.2717 10.3604 36.3789 10.2042 36.5147 10.0712C36.6533 9.93535 36.8135 9.83078 36.9955 9.75745C37.1775 9.6814 37.3744 9.64337 37.5862 9.64337C37.7981 9.64337 37.995 9.6814 38.177 9.75745C38.3617 9.83078 38.5219 9.93535 38.6577 10.0712C38.7962 10.2042 38.9035 10.3604 38.9796 10.5397C39.0556 10.7162 39.0936 10.9077 39.0936 11.1141C39.0936 11.3205 39.0556 11.5134 38.9796 11.6926C38.9035 11.8692 38.7962 12.0253 38.6577 12.1612C38.5219 12.2942 38.3617 12.3988 38.177 12.4749C37.995 12.5482 37.7981 12.5849 37.5862 12.5849ZM37.5862 12.043C37.7166 12.043 37.8361 12.0199 37.9447 11.9737C38.0534 11.9249 38.1485 11.8597 38.2299 11.7782C38.3114 11.694 38.3752 11.5949 38.4214 11.4808C38.4676 11.3667 38.4907 11.2445 38.4907 11.1141C38.4907 10.981 38.4676 10.8588 38.4214 10.7474C38.3752 10.6334 38.3114 10.5356 38.2299 10.4541C38.1485 10.3699 38.0534 10.3047 37.9447 10.2586C37.8361 10.2097 37.7166 10.1852 37.5862 10.1852C37.4586 10.1852 37.3404 10.2097 37.2318 10.2586C37.1231 10.3047 37.0281 10.3699 36.9466 10.4541C36.8651 10.5356 36.8013 10.6334 36.7551 10.7474C36.7089 10.8588 36.6859 10.9797 36.6859 11.11C36.6859 11.2431 36.7089 11.3667 36.7551 11.4808C36.8013 11.5949 36.8651 11.694 36.9466 11.7782C37.0281 11.8597 37.1231 11.9249 37.2318 11.9737C37.3404 12.0199 37.4586 12.043 37.5862 12.043ZM40.9004 12.5849C40.6885 12.5849 40.4916 12.5482 40.3097 12.4749C40.1277 12.3988 39.9674 12.2942 39.8289 12.1612C39.6931 12.0253 39.5858 11.8692 39.5071 11.6926C39.431 11.5134 39.393 11.3205 39.393 11.1141C39.393 10.9077 39.431 10.7162 39.5071 10.5397C39.5858 10.3604 39.6931 10.2042 39.8289 10.0712C39.9674 9.93535 40.1277 9.83078 40.3097 9.75745C40.4916 9.6814 40.6885 9.64337 40.9004 9.64337C41.1122 9.64337 41.3092 9.6814 41.4911 9.75745C41.6758 9.83078 41.8361 9.93535 41.9719 10.0712C42.1104 10.2042 42.2177 10.3604 42.2937 10.5397C42.3698 10.7162 42.4078 10.9077 42.4078 11.1141C42.4078 11.3205 42.3698 11.5134 42.2937 11.6926C42.2177 11.8692 42.1104 12.0253 41.9719 12.1612C41.8361 12.2942 41.6758 12.3988 41.4911 12.4749C41.3092 12.5482 41.1122 12.5849 40.9004 12.5849ZM40.9004 12.043C41.0308 12.043 41.1503 12.0199 41.2589 11.9737C41.3676 11.9249 41.4626 11.8597 41.5441 11.7782C41.6256 11.694 41.6894 11.5949 41.7356 11.4808C41.7818 11.3667 41.8048 11.2445 41.8048 11.1141C41.8048 10.981 41.7818 10.8588 41.7356 10.7474C41.6894 10.6334 41.6256 10.5356 41.5441 10.4541C41.4626 10.3699 41.3676 10.3047 41.2589 10.2586C41.1503 10.2097 41.0308 10.1852 40.9004 10.1852C40.7727 10.1852 40.6546 10.2097 40.5459 10.2586C40.4373 10.3047 40.3422 10.3699 40.2608 10.4541C40.1793 10.5356 40.1155 10.6334 40.0693 10.7474C40.0231 10.8588 40 10.9797 40 11.11C40 11.2431 40.0231 11.3667 40.0693 11.4808C40.1155 11.5949 40.1793 11.694 40.2608 11.7782C40.3422 11.8597 40.4373 11.9249 40.5459 11.9737C40.6546 12.0199 40.7727 12.043 40.9004 12.043ZM44.2146 12.5849C44.0027 12.5849 43.8058 12.5482 43.6238 12.4749C43.4418 12.3988 43.2816 12.2942 43.1431 12.1612C43.0073 12.0253 42.9 11.8692 42.8212 11.6926C42.7452 11.5134 42.7071 11.3205 42.7071 11.1141C42.7071 10.9077 42.7452 10.7162 42.8212 10.5397C42.9 10.3604 43.0073 10.2042 43.1431 10.0712C43.2816 9.93535 43.4418 9.83078 43.6238 9.75745C43.8058 9.6814 44.0027 9.64337 44.2146 9.64337C44.4264 9.64337 44.6233 9.6814 44.8053 9.75745C44.99 9.83078 45.1502 9.93535 45.286 10.0712C45.4246 10.2042 45.5318 10.3604 45.6079 10.5397C45.6839 10.7162 45.722 10.9077 45.722 11.1141C45.722 11.3205 45.6839 11.5134 45.6079 11.6926C45.5318 11.8692 45.4246 12.0253 45.286 12.1612C45.1502 12.2942 44.99 12.3988 44.8053 12.4749C44.6233 12.5482 44.4264 12.5849 44.2146 12.5849ZM44.2146 12.043C44.3449 12.043 44.4644 12.0199 44.5731 11.9737C44.6817 11.9249 44.7768 11.8597 44.8583 11.7782C44.9397 11.694 45.0036 11.5949 45.0497 11.4808C45.0959 11.3667 45.119 11.2445 45.119 11.1141C45.119 10.981 45.0959 10.8588 45.0497 10.7474C45.0036 10.6334 44.9397 10.5356 44.8583 10.4541C44.7768 10.3699 44.6817 10.3047 44.5731 10.2586C44.4644 10.2097 44.3449 10.1852 44.2146 10.1852C44.0869 10.1852 43.9688 10.2097 43.8601 10.2586C43.7515 10.3047 43.6564 10.3699 43.5749 10.4541C43.4934 10.5356 43.4296 10.6334 43.3834 10.7474C43.3373 10.8588 43.3142 10.9797 43.3142 11.11C43.3142 11.2431 43.3373 11.3667 43.3834 11.4808C43.4296 11.5949 43.4934 11.694 43.5749 11.7782C43.6564 11.8597 43.7515 11.9249 43.8601 11.9737C43.9688 12.0199 44.0869 12.043 44.2146 12.043ZM47.5287 12.5849C47.3169 12.5849 47.12 12.5482 46.938 12.4749C46.756 12.3988 46.5958 12.2942 46.4572 12.1612C46.3214 12.0253 46.2142 11.8692 46.1354 11.6926C46.0593 11.5134 46.0213 11.3205 46.0213 11.1141C46.0213 10.9077 46.0593 10.7162 46.1354 10.5397C46.2142 10.3604 46.3214 10.2042 46.4572 10.0712C46.5958 9.93535 46.756 9.83078 46.938 9.75745C47.12 9.6814 47.3169 9.64337 47.5287 9.64337C47.7406 9.64337 47.9375 9.6814 48.1195 9.75745C48.3042 9.83078 48.4644 9.93535 48.6002 10.0712C48.7387 10.2042 48.846 10.3604 48.9221 10.5397C48.9981 10.7162 49.0361 10.9077 49.0361 11.1141C49.0361 11.3205 48.9981 11.5134 48.9221 11.6926C48.846 11.8692 48.7387 12.0253 48.6002 12.1612C48.4644 12.2942 48.3042 12.3988 48.1195 12.4749C47.9375 12.5482 47.7406 12.5849 47.5287 12.5849ZM47.5287 12.043C47.6591 12.043 47.7786 12.0199 47.8872 11.9737C47.9959 11.9249 48.0909 11.8597 48.1724 11.7782C48.2539 11.694 48.3177 11.5949 48.3639 11.4808C48.4101 11.3667 48.4332 11.2445 48.4332 11.1141C48.4332 10.981 48.4101 10.8588 48.3639 10.7474C48.3177 10.6334 48.2539 10.5356 48.1724 10.4541C48.0909 10.3699 47.9959 10.3047 47.8872 10.2586C47.7786 10.2097 47.6591 10.1852 47.5287 10.1852C47.4011 10.1852 47.2829 10.2097 47.1743 10.2586C47.0656 10.3047 46.9706 10.3699 46.8891 10.4541C46.8076 10.5356 46.7438 10.6334 46.6976 10.7474C46.6514 10.8588 46.6283 10.9797 46.6283 11.11C46.6283 11.2431 46.6514 11.3667 46.6976 11.4808C46.7438 11.5949 46.8076 11.694 46.8891 11.7782C46.9706 11.8597 47.0656 11.9249 47.1743 11.9737C47.2829 12.0199 47.4011 12.043 47.5287 12.043Z" fill="#363636"/>
<rect x="3.99675" y="7.88542" width="22.6022" height="29.3083" rx="0.993504" fill="white" stroke="#363636" strokeWidth="0.993504"/>
<path d="M4.99023 7.88574H25.6055C26.1541 7.88577 26.5986 8.33023 26.5986 8.87891V14.0947H3.99707V8.87891C3.99708 8.33023 4.44155 7.88575 4.99023 7.88574Z" fill="#FF2AA1" stroke="#363636" strokeWidth="0.993504"/>
<rect x="8.37014" y="17.9717" width="5.37724" height="5.37724" rx="0.614542" stroke="#363636" strokeWidth="0.69136"/>
<rect x="9.52246" y="19.1621" width="3.0343" height="3.0343" rx="0.0768178" fill="#363636"/>
<rect x="16.2822" y="17.9717" width="5.37724" height="5.37724" rx="0.614542" stroke="#363636" strokeWidth="0.69136"/>
<rect x="17.4346" y="19.1621" width="3.0343" height="3.0343" rx="0.0768178" fill="#363636"/>
<rect x="8.37014" y="25.8067" width="5.37724" height="5.37724" rx="0.614542" stroke="#363636" strokeWidth="0.69136"/>
<rect x="9.52246" y="26.998" width="3.0343" height="3.0343" rx="0.0768178" fill="#363636"/>
<rect x="16.0293" y="25.6309" width="1.46266" height="1.46266" rx="0.069136" fill="#363636"/>
<rect x="16.0293" y="28.5566" width="1.46266" height="1.46266" rx="0.069136" fill="#363636"/>
<rect x="17.4917" y="27.0928" width="1.46266" height="1.46266" rx="0.069136" fill="#363636"/>
<rect x="17.4917" y="30.0186" width="1.46266" height="1.46266" rx="0.069136" fill="#363636"/>
<rect x="18.9546" y="25.6309" width="1.46266" height="1.46266" rx="0.069136" fill="#363636"/>
<rect x="18.9546" y="28.5566" width="1.46266" height="1.46266" rx="0.069136" fill="#363636"/>
<rect x="20.417" y="27.0928" width="1.46266" height="1.46266" rx="0.069136" fill="#363636"/>
<rect x="20.417" y="30.0186" width="1.46266" height="1.46266" rx="0.069136" fill="#363636"/>
<path d="M62.7167 53.3222C61.1221 54.1812 55.0144 57.1112 53.2808 57.8626C50.928 58.8824 42.4369 63.0968 40.2568 64.3413C40.614 68.7648 42.7172 70.938 44.2599 72.8664C46.0828 75.1451 49.9326 75.8921 52.4631 76.5123C54.1432 76.9241 59.3165 77.2089 61.1221 76.5123C65.3699 74.8737 68.7225 72.6793 70.4705 68.309C71.9115 64.7065 72.4354 59.776 71.6041 56.0042C71.3747 54.9635 71.0404 53.7604 70.4705 52.8493C68.6747 49.9781 65.6392 45.464 63.4008 42.7877C62.5501 41.7706 60.5976 39.5538 58.8435 40.509C57.7493 41.1047 57.5792 42.6214 58.0055 43.9004C59.2119 47.5196 61.2357 50.0498 62.7167 53.3222Z" fill="#FCE8C3" stroke="#363636" strokeWidth="1.82295" strokeLinecap="round"/>
<rect x="28.5" y="33.6289" width="5.46884" height="11.3208" rx="2.73442" transform="rotate(-45 28.5 33.6289)" fill="#FCE8C3" stroke="#363636" strokeWidth="1.82295" strokeLinecap="round"/>
<rect x="36.0565" y="20.9115" width="27.3442" height="51.0425" rx="2.73442" fill="white" stroke="#363636" strokeWidth="1.82295"/>
<path d="M47.4729 44.2341C48.0535 44.2341 48.4229 43.7063 48.4229 42.8301C48.4229 41.991 48.0535 41.4895 47.4729 41.4895C46.8923 41.4895 46.5229 41.991 46.5229 42.8301C46.5229 43.7063 46.8923 44.2341 47.4729 44.2341ZM48.7343 45.8597C47.9374 45.8597 47.3832 45.4322 47.114 44.8411C46.2801 44.6827 45.7259 43.9438 45.7259 42.8301C45.7259 41.5582 46.4384 40.8192 47.4729 40.8192C48.5074 40.8192 49.2199 41.5634 49.2199 42.8301C49.2199 43.8963 48.7132 44.6141 47.9374 44.8147C48.1168 45.1102 48.4704 45.2316 48.8241 45.2316C48.993 45.2316 49.1407 45.2052 49.2516 45.1683L49.3941 45.7436C49.2569 45.8069 49.0194 45.8597 48.7343 45.8597ZM49.9827 44.7988V40.8879H51.3445C52.1625 40.8879 52.8117 41.1781 52.8117 42.0754C52.8117 42.6613 52.5162 43.0254 52.0675 43.1996L52.9806 44.7988H52.1098L51.3075 43.321H50.7639V44.7988H49.9827ZM50.7639 42.7035H51.2706C51.772 42.7035 52.0517 42.4924 52.0517 42.0754C52.0517 41.6532 51.772 41.5107 51.2706 41.5107H50.7639V42.7035ZM43.8688 50.8727C43.3463 50.8727 42.8237 50.6669 42.4437 50.3027L42.8924 49.7643C43.1721 50.023 43.5415 50.1971 43.8846 50.1971C44.291 50.1971 44.5074 50.023 44.5074 49.7485C44.5074 49.4582 44.2699 49.3685 43.9216 49.2207L43.399 48.999C43.0032 48.8354 42.6073 48.5187 42.6073 47.9487C42.6073 47.3101 43.1668 46.8192 43.9585 46.8192C44.4124 46.8192 44.8663 46.9987 45.183 47.3206L44.7871 47.8115C44.5391 47.6057 44.2805 47.4895 43.9585 47.4895C43.6154 47.4895 43.399 47.6426 43.399 47.9012C43.399 48.181 43.6735 48.2812 44.006 48.4132L44.518 48.6296C44.993 48.8249 45.3044 49.1257 45.3044 49.6905C45.3044 50.3291 44.7713 50.8727 43.8688 50.8727ZM47.5899 50.8727C46.6029 50.8727 45.8006 50.1655 45.8006 48.8618C45.8006 47.574 46.6293 46.8192 47.6163 46.8192C48.1124 46.8192 48.5082 47.0568 48.7616 47.3206L48.3552 47.8168C48.1546 47.6268 47.9277 47.4895 47.6321 47.4895C47.041 47.4895 46.5976 47.9962 46.5976 48.8354C46.5976 49.6852 46.9987 50.1971 47.6163 50.1971C47.954 50.1971 48.2127 50.0388 48.4238 49.8118L48.8355 50.2974C48.5135 50.6722 48.0966 50.8727 47.5899 50.8727ZM50.3145 48.7615L50.1984 49.189H51.1273L51.0112 48.7615C50.8898 48.3551 50.7842 47.9065 50.6734 47.4843H50.647C50.5467 47.9118 50.4306 48.3551 50.3145 48.7615ZM48.9633 50.7988L50.2142 46.8879H51.1326L52.3887 50.7988H51.5706L51.2962 49.796H50.0295L49.755 50.7988H48.9633ZM52.8459 50.7988V46.8879H53.6429L54.7777 48.9727L55.1682 49.8171H55.1946C55.1577 49.4107 55.0944 48.8935 55.0944 48.4501V46.8879H55.8333V50.7988H55.0416L53.9121 48.7088L53.5162 47.8696H53.4898C53.5268 48.2918 53.5849 48.7826 53.5849 49.2313V50.7988H52.8459Z" fill="#363636"/>
<rect x="43.3481" y="22.7344" width="12.7606" height="2.73442" rx="1.36721" fill="#363636"/>
<path d="M63.4008 42.7878C62.5501 41.7707 60.5975 39.5538 58.8434 40.509C57.7493 41.1048 57.5791 42.6215 58.0055 43.9004C59.2119 47.5196 62.8313 54.0984 64.3123 57.3709L70.4705 52.8493C68.6746 49.9781 65.6392 45.4641 63.4008 42.7878Z" fill="#FCE8C3"/>
<path d="M63.8566 56.9151C62.3755 53.6427 59.2119 47.5196 58.0055 43.9004C57.5791 42.6215 57.7493 41.1048 58.8434 40.509C60.5975 39.5538 62.5501 41.7707 63.4008 42.7878C65.6392 45.4641 68.6746 49.9781 70.4705 52.8493" stroke="#363636" strokeWidth="1.82295" strokeLinecap="round"/>
<rect x="28.7646" y="50.2998" width="5.46884" height="10.0262" rx="2.73442" transform="rotate(-45 28.7646 50.2998)" fill="#FCE8C3" stroke="#363636" strokeWidth="1.82295" strokeLinecap="round"/>
<rect x="29.6758" y="43.0078" width="5.46884" height="8.47271" rx="2.73442" transform="rotate(-45 29.6758 43.0078)" fill="#FCE8C3" stroke="#363636" strokeWidth="1.82295" strokeLinecap="round"/>
<rect x="29.6758" y="59.4141" width="5.46884" height="7.65512" rx="2.73442" transform="rotate(-45 29.6758 59.4141)" fill="#FCE8C3" stroke="#363636" strokeWidth="1.82295" strokeLinecap="round"/>
<path d="M71.9175 13.8428L67.6435 18.1167" stroke="#363636" strokeWidth="1.51107" strokeLinecap="round"/>
<path d="M64.1714 10.9043L63.1029 15.1783" stroke="#363636" strokeWidth="1.51107" strokeLinecap="round"/>
<path d="M74.5889 21.3223L70.3149 22.3908" stroke="#363636" strokeWidth="1.51107" strokeLinecap="round"/>
</svg>
