<svg width="22" height="22" viewBox="0 0 22 22" fill="none" xmlns="http://www.w3.org/2000/svg">
<mask id="mask0_646_433" style="mask-type:alpha" maskUnits="userSpaceOnUse" x="1" y="1" width="18" height="18">
<rect x="1.57459" y="1.57459" width="6.61743" height="6.61743" rx="0.756278" stroke="black" strokeWidth="0.850812"/>
<rect x="2.99219" y="3.04004" width="3.73412" height="3.73412" rx="0.0945347" fill="black"/>
<rect x="11.3109" y="1.57459" width="6.61743" height="6.61743" rx="0.756278" stroke="black" strokeWidth="0.850812"/>
<rect x="12.7305" y="3.04004" width="3.73412" height="3.73412" rx="0.0945347" fill="black"/>
<path d="M11.4297 13.2971V11.7137C11.4297 11.5309 11.5778 11.3828 11.7606 11.3828H13.2967" stroke="black" strokeWidth="0.850812" strokeLinecap="round"/>
<path d="M11.4297 16.0857V17.6691C11.4297 17.8519 11.5778 18 11.7606 18H13.2967" stroke="black" strokeWidth="0.850812" strokeLinecap="round"/>
<path d="M18 13.2971V11.7137C18 11.5309 17.8519 11.3828 17.6691 11.3828H16.1329" stroke="black" strokeWidth="0.850812" strokeLinecap="round"/>
<path d="M18 16.0857V17.6691C18 17.8519 17.8519 18 17.6691 18H16.1329" stroke="black" strokeWidth="0.850812" strokeLinecap="round"/>
<rect x="1.57459" y="11.2172" width="6.61743" height="6.61743" rx="0.756278" stroke="black" strokeWidth="0.850812"/>
<rect x="2.99219" y="12.6826" width="3.73412" height="3.73412" rx="0.0945347" fill="black"/>
</mask>
<g mask="url(#mask0_646_433)">
<rect width="20" height="20" fill="#AB31D3"/>
</g>
</svg>
