<svg width="81" height="81" viewBox="0 0 81 81" fill="none" xmlns="http://www.w3.org/2000/svg">
<path d="M23.7324 3.29465C29.8063 2.26653 35.723 4.12698 39.7158 7.9343C44.8127 4.94214 51.5271 4.50919 57.6875 7.11887L58.4033 7.43723C65.4532 10.7237 69.9955 17.3902 70.0723 24.3474C77.1062 29.6105 80.1902 38.9004 76.7031 47.1335V47.1345C73.4687 54.769 65.6374 58.98 57.6074 58.4382C53.6127 61.2648 48.5504 62.5131 43.4678 61.8376C39.1026 66.8384 31.3232 68.4561 24.1416 65.987C17.3344 63.6465 12.3871 58.1003 11.5557 51.8972C5.51365 49.3142 1.21314 43.4315 0.939453 36.5046L0.925781 35.8015C0.926132 29.8403 3.90969 24.5803 8.45215 21.4236C7.65271 12.1411 15.3701 4.71049 23.7324 3.29465ZM39.1367 46.0984C38.2571 46.0985 37.4972 46.4175 36.8574 47.0544C36.2442 47.6916 35.9366 48.4541 35.9365 49.3405C35.9366 49.7835 36.017 50.199 36.1768 50.5866C36.3633 50.9744 36.6033 51.3077 36.8965 51.5847C37.1897 51.8616 37.5234 52.0835 37.8965 52.2497C38.2964 52.4159 38.7102 52.4987 39.1367 52.4988C40.0167 52.4988 40.7636 52.1799 41.377 51.5427C42.0168 50.9056 42.3368 50.1439 42.3369 49.2575C42.3368 48.3712 42.0168 47.6228 41.377 47.0134C40.737 46.404 39.9899 46.0984 39.1367 46.0984ZM39.665 18.5144C38.1293 18.5144 36.7213 18.7384 35.4414 19.1863C34.1615 19.6022 33.0252 20.2264 32.0332 21.0583C31.0732 21.8903 30.2887 22.9147 29.6807 24.1306C29.5168 24.4497 29.368 24.782 29.2344 25.1267C28.6081 26.7426 29.9265 28.3236 31.6543 28.4587C33.3042 28.5874 34.6654 27.2623 35.6465 25.9294C35.7876 25.7376 35.9438 25.5544 36.1133 25.3786C36.9772 24.4508 38.081 23.9862 39.4248 23.9861C40.6726 23.9861 41.6971 24.3865 42.4971 25.1863C43.329 25.9542 43.7451 26.9628 43.7451 28.2107C43.7451 29.4905 43.3448 30.5309 42.5449 31.3308L38.8486 35.0739C38.3687 35.5859 37.9535 36.0347 37.6016 36.4187C37.2817 36.7706 37.0091 37.1542 36.7852 37.57C36.5932 37.954 36.4495 38.4029 36.3535 38.9148C36.2896 39.3946 36.2569 39.9865 36.2568 40.6902C36.2568 42.1481 37.4395 43.3307 38.8975 43.3308H39.1367C40.7273 43.3308 41.851 42.0289 42.0723 40.4538C42.0951 40.2913 42.1244 40.1298 42.1611 39.9704C42.2571 39.5225 42.4008 39.138 42.5928 38.8181C42.8168 38.4662 43.0892 38.1302 43.4092 37.8103C43.7292 37.4903 44.1136 37.1227 44.5615 36.7068C45.2654 36.0348 45.9214 35.3948 46.5293 34.7868C47.1693 34.1789 47.729 33.5379 48.209 32.8659C48.6889 32.194 49.0734 31.4578 49.3613 30.6579C49.6491 29.8582 49.7929 28.9303 49.793 27.8747C49.7929 26.3709 49.5373 25.0423 49.0254 23.8904C48.5134 22.7066 47.7931 21.7305 46.8652 20.9626C45.9694 20.1628 44.8972 19.5544 43.6494 19.1384C42.4335 18.7225 41.1049 18.5144 39.665 18.5144Z" fill="white"/>
<circle cx="68" cy="67.0459" r="6" fill="white"/>
</svg>
