<svg width="20" height="20" viewBox="0 0 20 20" fill="none" xmlns="http://www.w3.org/2000/svg">
<mask id="mask0_2_78965" style="mask-type:alpha" maskUnits="userSpaceOnUse" x="0" y="0" width="20" height="20">
<g clip-path="url(#clip0_2_78965)">
<g clip-path="url(#clip1_2_78965)">
<path fill-rule="evenodd" clip-rule="evenodd" d="M10 1.9977e-07C12.7581 -0.000546476 15.2644 1.12094 17.0709 2.92883C18.879 4.73527 20.0006 7.24191 20 10C20.0006 12.7581 18.879 15.2647 17.0709 17.0711C15.2644 18.879 12.7581 20.0006 10 20C7.24191 20.0006 4.73539 18.879 2.92899 17.0711C1.12094 15.2647 -0.000546476 12.7581 1.99769e-07 10C-0.000546476 7.24191 1.12094 4.73527 2.92899 2.92883C4.73527 1.12094 7.24191 -0.000546476 10 1.9977e-07ZM7.98504 6.77106C7.38361 6.94111 6.8996 6.77186 6.66567 6.58683C6.41776 6.39074 6.33674 5.8922 6.3334 5.73989C6.33101 5.60197 6.39074 5.47021 6.49659 5.37921C6.49659 5.37921 6.76813 4.96619 7.39814 4.61137C8.02531 4.25509 8.85663 3.99746 9.85706 4.00001C10.6688 4.00001 11.4166 4.22016 12.0363 4.58081C12.6561 4.9433 13.1565 5.4426 13.4758 6.04231C13.6879 6.44154 13.818 6.89171 13.8184 7.36519C13.8191 7.8325 13.7402 8.26916 13.595 8.65749C13.45 9.04541 13.2409 9.38209 13.0046 9.66227C12.5289 10.2231 11.9651 10.5626 11.501 10.813C11.3409 10.8985 11.1904 10.9739 11.0589 11.0398C10.936 11.1014 10.8296 11.1547 10.7473 11.2002C10.6308 11.2639 10.5676 11.317 10.5364 11.3519C10.5054 11.3887 10.4949 11.4037 10.4763 11.4641C10.4652 11.5037 10.4538 11.5674 10.4538 11.6657V12.1617C10.4538 12.6535 9.41586 12.7868 9.41586 12.7868C9.41586 12.7868 8.3776 12.6535 8.3776 12.1617V11.6657C8.3776 11.4106 8.40761 11.1606 8.47403 10.9215C8.53983 10.6835 8.64327 10.4571 8.77564 10.2599C9.04061 9.86037 9.39973 9.59429 9.73863 9.40867C9.88156 9.33097 10.0238 9.25967 10.1632 9.18973C10.3138 9.11426 10.4611 9.04039 10.6028 8.96179C10.8752 8.8115 11.1184 8.6481 11.2974 8.47123C11.4175 8.35331 11.5106 8.23177 11.5819 8.09421C11.6758 7.91081 11.7408 7.69499 11.7423 7.36527C11.7427 7.26776 11.7143 7.13933 11.6365 6.99263C11.5592 6.84637 11.4331 6.68773 11.2646 6.54506C10.9252 6.2579 10.4275 6.04791 9.85696 6.049C9.20294 6.05121 8.76529 6.20259 8.42789 6.39074C8.09217 6.58 7.98504 6.77106 7.98504 6.77106ZM8.28597 15.0651C8.28597 14.3461 8.86907 13.7631 9.58813 13.7631C10.3066 13.7631 10.8895 14.3461 10.8895 15.0651C10.8895 15.7833 10.3066 16.3667 9.58813 16.3667C8.86907 16.3667 8.28597 15.7833 8.28597 15.0651Z" fill="white"/>
</g>
</g>
</mask>
<g mask="url(#mask0_2_78965)">
<rect width="20" height="20" fill="#969696"/>
</g>
<defs>
<clipPath id="clip0_2_78965">
<rect width="20" height="20" fill="white"/>
</clipPath>
<clipPath id="clip1_2_78965">
<rect width="20" height="20" fill="white"/>
</clipPath>
</defs>
</svg>
