<svg width="36" height="33" viewBox="0 0 36 33" fill="none" xmlns="http://www.w3.org/2000/svg">
<path d="M10.6328 0.369874C13.4649 -0.109575 16.2244 0.757573 18.0859 2.53296C20.4621 1.13841 23.5921 0.936482 26.4639 2.15308C29.9401 3.62603 32.2004 6.83335 32.2373 10.1853C35.5166 12.6391 36.954 16.9699 35.3281 20.8084C33.8196 24.369 30.167 26.3323 26.4219 26.0779C24.5596 27.3946 22.2019 27.977 19.833 27.6619C17.798 29.9935 14.1724 30.7494 10.8242 29.5984C7.6506 28.5072 5.34367 25.921 4.95605 23.0291C2.13943 21.8248 0.134591 19.0824 0.00683594 15.8533L0 15.5251C0.000119909 12.7461 1.39127 10.2938 3.50879 8.82202C3.13607 4.49446 6.73425 1.03002 10.6328 0.369874ZM17.8145 20.3259C17.4045 20.326 17.0501 20.4745 16.752 20.7712C16.4661 21.0683 16.3233 21.4244 16.3232 21.8376C16.3233 22.0441 16.3601 22.238 16.4346 22.4187C16.5216 22.5995 16.6338 22.7544 16.7705 22.8835C16.9073 23.0127 17.0633 23.1156 17.2373 23.1931C17.4235 23.2704 17.6158 23.3093 17.8145 23.3093C18.2246 23.3093 18.5735 23.1611 18.8594 22.864C19.1575 22.567 19.3066 22.2117 19.3066 21.7986C19.3066 21.3853 19.1577 21.0358 18.8594 20.7517C18.5611 20.4677 18.2121 20.326 17.8145 20.3259ZM18.0615 7.46558C17.3455 7.46558 16.6885 7.57025 16.0918 7.77905C15.4952 7.97297 14.9653 8.26436 14.5029 8.6521C14.0556 9.03988 13.6896 9.51708 13.4062 10.0837C13.3299 10.2325 13.2605 10.3879 13.1982 10.5486C12.9064 11.3018 13.5208 12.0382 14.3262 12.1013C15.0954 12.1613 15.7311 11.544 16.1885 10.9226C16.2542 10.8334 16.3264 10.7475 16.4053 10.6658C16.808 10.2333 17.3228 10.0174 17.9492 10.0173C18.5309 10.0174 19.0089 10.2031 19.3818 10.5759C19.7697 10.9339 19.9638 11.4044 19.9639 11.9861C19.9639 12.5827 19.7771 13.0682 19.4043 13.4412L17.6807 15.1863C17.457 15.4248 17.2627 15.6343 17.0986 15.8132C16.9497 15.9771 16.8231 16.1567 16.7188 16.3503C16.6294 16.5292 16.5623 16.7379 16.5176 16.9763C16.4877 17.2 16.4727 17.4763 16.4727 17.8044C16.4727 18.4841 17.0235 19.0348 17.7031 19.0349H17.8154C18.5568 19.0347 19.0804 18.4283 19.1836 17.6941C19.1942 17.6184 19.2075 17.5427 19.2246 17.4685C19.2694 17.2598 19.3373 17.0805 19.4268 16.9314C19.5311 16.7675 19.6577 16.6107 19.8066 16.4617C19.9558 16.3125 20.135 16.1409 20.3438 15.947C20.6719 15.6338 20.9783 15.3349 21.2617 15.0515C21.5599 14.7682 21.8213 14.4701 22.0449 14.157C22.2686 13.8438 22.4478 13.5005 22.582 13.1277C22.7162 12.7549 22.7832 12.3219 22.7832 11.8298C22.7832 11.1288 22.6634 10.5094 22.4248 9.97241C22.1861 9.42047 21.8506 8.96521 21.418 8.60718C21.0003 8.23427 20.5007 7.95053 19.9189 7.75659C19.3521 7.56268 18.7327 7.46561 18.0615 7.46558Z" fill="white"/>
<circle cx="31.2699" cy="30.0922" r="2.79727" fill="white"/>
</svg>
