<svg width="20" height="20" viewBox="0 0 20 20" fill="none" xmlns="http://www.w3.org/2000/svg">
<mask id="mask0_443_11406" style="mask-type:alpha" maskUnits="userSpaceOnUse" x="0" y="-1" width="20" height="21">
<path d="M2.7002 3.9801L4.5171 17.7886C4.62185 18.5847 5.30044 19.1798 6.1034 19.1798H13.9967C14.7997 19.1798 15.4783 18.5847 15.583 17.7886L17.3999 3.9801" stroke="#767676" stroke-width="1.19998" stroke-linecap="round"/>
<path d="M0.900391 3.88049H19.1001" stroke="#767676" stroke-width="1.19998" stroke-linecap="round"/>
<mask id="path-3-outside-1_443_11406" maskUnits="userSpaceOnUse" x="5.90039" y="-0.819702" width="8" height="6" fill="black">
<rect fill="white" x="5.90039" y="-0.819702" width="8" height="6"/>
<path d="M11.9003 3.18026C11.9003 2.91762 11.8486 2.65755 11.7481 2.41491C11.6476 2.17226 11.5003 1.95179 11.3145 1.76607C11.1288 1.58036 10.9084 1.43304 10.6657 1.33254C10.4231 1.23203 10.163 1.1803 9.90035 1.1803C9.63771 1.1803 9.37765 1.23203 9.135 1.33254C8.89235 1.43304 8.67188 1.58036 8.48617 1.76607C8.30045 1.95179 8.15314 2.17226 8.05263 2.41491C7.95212 2.65756 7.90039 2.91762 7.90039 3.18026L9.90035 3.18026H11.9003Z"/>
</mask>
<path d="M11.9003 3.18026C11.9003 2.91762 11.8486 2.65755 11.7481 2.41491C11.6476 2.17226 11.5003 1.95179 11.3145 1.76607C11.1288 1.58036 10.9084 1.43304 10.6657 1.33254C10.4231 1.23203 10.163 1.1803 9.90035 1.1803C9.63771 1.1803 9.37765 1.23203 9.135 1.33254C8.89235 1.43304 8.67188 1.58036 8.48617 1.76607C8.30045 1.95179 8.15314 2.17226 8.05263 2.41491C7.95212 2.65756 7.90039 2.91762 7.90039 3.18026L9.90035 3.18026H11.9003Z" stroke="#767676" stroke-width="2.39996" mask="url(#path-3-outside-1_443_11406)"/>
<path d="M12.8005 8.67932L7.60059 13.8792" stroke="#767676" stroke-width="1.19998" stroke-linecap="round"/>
<path d="M7.5999 8.67932L12.7998 13.8792" stroke="#767676" stroke-width="1.19998" stroke-linecap="round"/>
</mask>
<g mask="url(#mask0_443_11406)">
<rect width="20" height="20" fill="#767676"/>
</g>
</svg>
