<svg width="141" height="96" viewBox="0 0 141 96" fill="none" xmlns="http://www.w3.org/2000/svg">
<path d="M46.2808 56.0307C47.9715 55.8102 49.4983 55.9866 50.8537 56.5894C52.209 57.1923 53.294 58.178 54.0684 59.5193C55.2682 61.5973 55.635 63.5518 55.1688 65.3826C54.7135 67.2324 53.4805 68.9266 51.4808 70.4842L49.1799 68.2862C51.8547 66.2381 52.4302 63.9159 50.9251 61.3089C49.4199 58.7018 48.7558 59.2112 46.9041 59.3231C47.4835 63.2203 47.439 66.4198 46.7924 68.9593C46.1273 71.5095 45.0192 73.2072 43.4714 74.1008C41.9236 74.9945 41.1199 74.8791 39.8887 74.4061C38.639 73.9437 37.5506 72.9097 36.6236 71.3039C35.6965 69.6981 35.5038 68.7262 35.4534 67.3196C35.4029 65.913 35.6717 64.5487 36.2706 63.2458C35.8396 62.8397 34.9231 61.9331 33.5613 60.5531L36.2191 58.263C37.0367 59.1259 37.7159 59.7917 38.2601 60.3087C39.1694 59.3304 40.2396 58.4606 41.4925 57.7372C42.7455 57.0138 42.5169 57.171 42.955 56.9936C42.733 56.0135 42.4893 54.9955 42.165 53.9233L45.4882 52.7855C45.7436 53.696 46.0016 54.7812 46.2992 56.02L46.2808 56.0307ZM43.3782 69.3436C41.7366 68.0748 40.2819 66.8744 38.9848 65.7341C38.6867 67.0901 38.8921 68.3821 39.612 69.6289C40.3318 70.8757 40.5044 70.8768 40.9621 71.1164C41.4198 71.3559 41.853 71.3828 42.2215 71.1701C42.7006 70.8935 43.0898 70.291 43.3597 69.3543L43.3782 69.3436ZM43.5483 60.4042C43.493 60.4361 43.4193 60.4787 43.3456 60.5212C43.2534 60.5744 43.1982 60.6063 43.1429 60.6382C42.1295 61.2234 41.3029 61.8769 40.6633 62.5988C41.5949 63.4463 42.6874 64.4025 43.919 65.4294C43.9539 63.8727 43.8278 62.2075 43.5776 60.4125L43.5483 60.4042Z" fill="white"/>
<path d="M54.7922 52.7732L53.3572 50.2879L57.6568 47.8055C57.4597 47.2127 57.157 46.4371 56.7776 45.4866L59.9929 43.8495C60.2022 44.3378 60.4732 45.0586 60.7953 45.9935L69.8117 40.7879L71.2466 43.2732L61.6316 48.8245C61.8629 49.8118 62.0263 50.7652 62.1535 51.7395L62.1716 51.7291C63.2592 50.6382 64.3586 49.7354 65.4834 49.086C67.352 48.0072 69.0068 47.5635 70.4477 47.755C71.8887 47.9464 73.001 48.7418 73.7923 50.1125C74.5836 51.4831 74.6012 53.1055 73.7364 54.75C72.8823 56.4127 71.2745 57.9014 68.9524 59.2421C66.6302 60.5828 65.3198 61.1201 63.5047 61.705L62.5777 58.9264C64.4911 58.2603 66.1387 57.5527 67.5174 56.7567C68.8962 55.9607 69.7674 55.1653 70.2837 54.2581C70.8 53.3508 70.8433 52.546 70.4213 51.815C69.7566 50.6637 68.53 50.5922 66.734 51.6291C64.938 52.666 65.0194 52.7652 64.3659 53.4349C63.7125 54.1046 63.089 54.9519 62.4954 55.9768L59.0745 56.5874C58.9915 54.223 58.7734 52.2534 58.4462 50.6392L54.7816 52.755L54.7922 52.7732Z" fill="white"/>
<path d="M81.9328 36.4764L84.327 34.1995C85.397 35.1473 86.0084 35.6889 86.1613 35.8243C86.6488 35.4186 87.1127 35.1011 87.5608 34.8424C88.7556 34.1526 89.92 33.9276 91.0326 34.1301C92.156 34.3513 93.0351 35.0117 93.6592 36.0926C94.2833 37.1736 94.5103 38.5584 94.0684 39.733C93.6264 40.9077 92.6734 41.93 91.2172 42.7708C89.761 43.6115 89.9341 43.437 89.2908 43.6593L88.2768 41.2131C89.0026 40.9182 89.5095 40.6753 89.8269 40.492C90.387 40.1687 90.7597 39.7795 90.9343 39.306C91.109 38.8324 91.0726 38.3813 90.8035 37.9153C90.5345 37.4494 90.2238 37.256 89.8039 37.1754C89.3653 37.1056 88.8792 37.2123 88.3378 37.5248C87.7964 37.8374 88.3005 37.5464 88.2445 37.5787C88.1885 37.6111 88.1511 37.6326 88.1325 37.6434C88.5401 38.0045 89.0309 38.4666 89.5942 39.0111L87.3385 41.1832C87.0221 40.8938 86.5126 40.4424 85.8287 39.8184C85.7116 39.9605 85.4933 40.186 85.2032 40.5026C84.913 40.8192 84.6681 41.0849 84.5058 41.278C86.6967 43.2187 88.7805 45.1467 90.736 47.0246L88.224 49.2701C86.6252 47.7082 84.654 45.8891 82.3289 43.8021C82.1214 44.0462 81.7702 44.4726 81.2725 45.0333C80.7855 45.6127 80.397 46.0607 80.0882 46.3881L77.8556 44.7199C78.1723 44.3631 78.5874 43.8749 79.1304 43.2632C79.6733 42.6516 80.0245 42.2251 80.2507 41.9703C78.7653 40.6908 77.8805 39.9343 77.607 39.7194L79.969 37.3865L82.4305 39.4942C82.5849 39.3305 82.8111 39.0756 83.1199 38.7482C83.4287 38.4208 83.6471 38.1954 83.7828 38.0424C83.6005 37.8992 83.3056 37.647 82.8872 37.2673C82.4688 36.8876 82.1445 36.6276 81.9299 36.4284L81.9328 36.4764Z" fill="white"/>
<path d="M112.986 13.5677L109.762 14.9384L106.841 13.1187L107.13 16.5561L104.443 18.7695L106.218 19.1666L93.7995 26.3365L95.4027 29.1132L107.952 21.8677C109.227 24.8096 109.395 27.4338 108.437 29.7037C107.478 31.9735 105.316 34.276 101.922 36.6035L104.099 38.9503C108.656 35.829 111.451 32.5485 112.471 29.0904C113.304 26.2561 112.963 23.1181 111.432 19.6873L114.332 19.4841L112.064 16.895L112.956 13.5601L112.986 13.5677ZM111.681 18.3911L110.846 18.4564L110.125 18.5046L109.319 19.8284L108.77 18.4041L107.853 18.1979L107.278 18.0645L108.478 17.0772L108.349 15.558L109.646 16.3785L111.069 15.7773L110.676 17.2551L111.681 18.3911Z" fill="white"/>
<path d="M120.799 21.0993L115.854 12.5342L119.369 10.5047L124.314 19.0697L120.799 21.0993ZM126.102 6.6174L129.71 4.53418L132.765 9.8255C134.655 13.0993 135.161 16.0808 134.295 18.789C133.439 21.5163 131.161 24.1002 127.495 26.5978L125.261 24.2328C128.218 22.0945 129.998 20.1529 130.544 18.3915C131.089 16.6301 130.651 14.4973 129.201 11.9849L126.102 6.6174Z" fill="white"/>
<path d="M28.533 82.5785L12.3275 91.9348C12.0116 92.1172 11.633 92.0194 11.4539 91.7092L1.08611 73.7516C0.906993 73.4413 1.01161 73.0646 1.32755 72.8822L17.533 63.526C17.8489 63.3436 18.2275 63.4413 18.4066 63.7516L28.7744 81.7092C28.9536 82.0194 28.8303 82.4069 28.533 82.5785ZM12.2715 90.5072L27.3619 81.7947L17.6262 64.9321L2.53584 73.6446L12.2715 90.5072Z" fill="white"/>
<path d="M31.4551 83.2012L14.8693 92.777C14.6673 92.8936 14.4067 92.824 14.2902 92.6223C14.1738 92.4206 14.2438 92.1601 14.4458 92.0435L30.6643 82.6798L20.2995 64.7274C20.183 64.5257 20.2531 64.2653 20.4551 64.1486C20.6572 64.032 20.9177 64.1016 21.0342 64.3033L31.6107 82.6223C31.7272 82.824 31.6572 83.0845 31.4551 83.2012Z" fill="white"/>
<path d="M34.187 83.9326L17.6012 93.5084C17.3992 93.6251 17.1387 93.5557 17.0223 93.3541C16.906 93.1526 16.9761 92.8923 17.1782 92.7756L33.3966 83.4119L23.0312 65.4585C22.9149 65.257 22.985 64.9967 23.187 64.8801C23.3891 64.7634 23.6496 64.8328 23.7659 65.0344L34.3323 83.3358C34.4486 83.5373 34.3785 83.7976 34.1765 83.9143L34.187 83.9326Z" fill="white"/>
<path d="M24.9869 80.0067L12.7398 87.0775C12.5354 87.1956 12.2716 87.1249 12.1536 86.9205L5.08276 74.6734C4.96473 74.469 5.03542 74.2052 5.23985 74.0872L17.4869 67.0164C17.6913 66.8983 17.9551 66.969 18.0731 67.1734L25.144 79.4205C25.262 79.6249 25.1913 79.8887 24.9869 80.0067ZM12.6823 86.1196L24.186 79.478L17.5444 67.9743L6.04072 74.6159L12.6823 86.1196Z" fill="white"/>
<path d="M16.4208 80.3343C16.0005 80.3598 15.5593 80.3491 15.0781 80.3133C14.616 80.2664 14.1522 80.1723 13.6884 80.0781C13.2246 79.984 12.7975 79.8204 12.3896 79.6457C11.9817 79.4711 11.6314 79.2631 11.309 79.015C10.997 78.7849 10.7618 78.5105 10.5842 78.2029C10.4066 77.8952 10.2727 77.4417 10.2783 77.0525C10.2838 76.6632 10.408 76.302 10.5914 75.9548C10.8044 75.6147 11.0784 75.3359 11.4431 75.1253C11.8077 74.9148 12.0118 74.8694 12.3327 74.8047C12.6344 74.7512 12.9692 74.7992 13.2969 74.9236C13.353 74.5775 13.4789 74.2636 13.6953 74.018C13.9117 73.7724 14.1491 73.563 14.4178 73.4079C14.6865 73.2528 15.1801 73.0884 15.562 73.085C15.9631 73.0706 16.3292 73.1729 16.6691 73.3627C17.009 73.5525 17.293 73.8229 17.5124 74.2029C17.7318 74.5829 17.7804 74.8444 17.8341 75.2477C17.8774 75.6329 17.8928 76.0583 17.8209 76.51C17.7682 76.9506 17.6771 77.4133 17.546 77.851C17.4252 78.3067 17.2453 78.7484 17.0548 79.1721C16.8644 79.5957 16.653 79.9831 16.4016 80.3454L16.4208 80.3343Z" fill="white"/>
</svg>
