<svg width="16" height="15" viewBox="0 0 16 15" fill="none" xmlns="http://www.w3.org/2000/svg">
<g clipPath="url(#clip0_2_78869)">
<path d="M4.79994 6.69996L10.9714 3.9571C10.7428 3.61424 10.6285 3.27139 10.5142 2.92853L4.22852 5.67139C4.45709 5.89996 4.68566 6.24281 4.79994 6.69996Z" fill="black"/>
<path d="M4.79997 8.29995C4.68569 8.64281 4.45711 8.98567 4.11426 9.21424L10.4 12.1857C10.4 11.7285 10.5143 11.3857 10.7428 11.0428L4.68569 8.18567L4.79997 8.29995Z" fill="black"/>
<path d="M12.9142 1.21427C13.5999 1.21427 14.2856 1.7857 14.2856 2.5857C14.2856 3.3857 13.7142 3.95713 12.9142 3.95713C12.1142 3.95713 12.3428 3.84284 11.9999 3.61427L10.8571 4.07141C11.3142 4.64284 11.9999 5.09998 12.7999 5.09998C14.1714 5.09998 15.3142 3.95713 15.3142 2.5857C15.3142 1.21427 14.1714 0.0714111 12.7999 0.0714111C11.4285 0.0714111 10.2856 1.21427 10.2856 2.5857C10.2856 3.95713 10.2856 2.92855 10.2856 3.04284L11.4285 2.5857C11.4285 1.89998 11.9999 1.32855 12.7999 1.32855L12.9142 1.21427Z" fill="#222222"/>
<path d="M12.1142 3.5C11.8856 3.27142 11.657 2.92857 11.657 2.47142L10.5142 2.92857C10.5142 3.27142 10.7427 3.61428 10.9713 3.95714L12.1142 3.5Z" fill="#222222"/>
<path d="M2.51426 8.8714C1.94283 8.8714 1.48569 8.52854 1.25711 7.95711L0.228544 7.49997L1.25711 7.04283C1.48569 6.58568 1.94283 6.12854 2.51426 6.12854C3.08569 6.12854 2.85712 6.12854 3.08569 6.12854L4.34283 5.55711C3.88569 5.09997 3.31426 4.8714 2.62854 4.8714C1.25711 4.8714 0.114258 6.01426 0.114258 7.38568C0.114258 8.75711 1.25711 9.89997 2.62854 9.89997C3.99997 9.89997 3.88569 9.6714 4.34283 9.21426L3.08569 8.64283C2.9714 8.64283 2.74283 8.64283 2.62854 8.64283L2.51426 8.8714Z" fill="#222222"/>
<path d="M3.77148 7.49998C3.77148 7.61427 3.77148 7.72855 3.77148 7.84284L4.80006 8.29998C4.80006 8.07141 4.91434 7.72855 4.91434 7.38569C4.91434 7.04284 4.91434 6.81426 4.80006 6.58569L3.77148 7.04284C3.77148 7.04284 3.77148 7.27141 3.77148 7.38569V7.49998Z" fill="#222222"/>
<path d="M3.77119 7.1571L4.79976 6.69996C4.68548 6.3571 4.45691 6.01424 4.22833 5.67139L2.97119 6.24282C3.31405 6.3571 3.65691 6.69996 3.77119 7.1571Z" fill="#222222"/>
<path d="M1.25709 7.04285L0.228516 7.49999L1.25709 7.95713C1.25709 7.84285 1.25709 7.61428 1.25709 7.49999C1.25709 7.3857 1.25709 7.15713 1.25709 7.04285Z" fill="#222222"/>
<path d="M4.79976 8.29998L3.77119 7.84283C3.65691 8.29998 3.31405 8.52855 2.97119 8.75712L4.22833 9.32855C4.57119 9.09998 4.68548 8.75712 4.91405 8.41426L4.79976 8.29998Z" fill="#222222"/>
<path d="M12.9142 10.0143C11.9999 10.0143 11.1999 10.4714 10.7428 11.2714L11.7714 11.7286C11.9999 11.3857 12.3428 11.1571 12.7999 11.1571C13.4856 11.1571 14.1714 11.7286 14.1714 12.5286C14.1714 13.3286 13.5999 13.9 12.7999 13.9C11.9999 13.9 11.7714 13.5571 11.5428 12.9857L10.2856 12.4143C10.2856 12.4143 10.2856 12.4143 10.2856 12.5286C10.2856 13.9 11.4285 15.0429 12.7999 15.0429C14.1714 15.0429 15.3142 13.9 15.3142 12.5286C15.3142 11.1571 14.1714 10.0143 12.7999 10.0143H12.9142Z" fill="#222222"/>
<path d="M11.5428 12.4142C11.5428 12.0714 11.657 11.8428 11.7713 11.6142L10.7428 11.1571C10.5142 11.5 10.3999 11.8428 10.3999 12.3L11.657 12.8714C11.657 12.7571 11.657 12.6428 11.657 12.5285L11.5428 12.4142Z" fill="#222222"/>
</g>
<defs>
<clipPath id="clip0_2_78869">
<rect width="16" height="14.8571" fill="white" transform="translate(0 0.0714111)"/>
</clipPath>
</defs>
</svg>
