<svg width="59" height="26" viewBox="0 0 59 26" fill="none" xmlns="http://www.w3.org/2000/svg">
<g clip-path="url(#clip0_155_41975)">
<path fill-rule="evenodd" clip-rule="evenodd" d="M58.5511 14.865H50.6383C50.8248 16.7598 52.209 17.3684 53.7799 17.3684C55.3506 17.3684 56.6858 17.0052 57.7559 16.4357V19.6951C56.4011 20.4805 54.8401 20.8536 53.2791 20.7751C49.3423 20.7751 46.5739 18.3208 46.5739 13.4316C46.5739 9.31813 48.9202 6.04893 52.7588 6.04893C56.5975 6.04893 58.61 9.26906 58.61 13.412C58.61 13.8047 58.5707 14.649 58.5511 14.865ZM52.7392 9.34759C51.728 9.34759 50.6088 10.0643 50.6088 11.8805H54.7812C54.7812 10.0643 53.7308 9.34759 52.7392 9.34759ZM40.2023 20.7751C38.7886 20.7751 37.9247 20.186 37.3553 19.7541L37.3356 24.2995L33.2909 25.1537V6.314H36.9823L37.0608 7.31539C37.9149 6.50054 39.0537 6.04893 40.2317 6.04893C43.0789 6.04893 45.7491 8.60146 45.7491 13.3138C45.7491 18.4483 43.0985 20.7751 40.2023 20.7751ZM39.2697 9.63229C38.3371 9.63229 37.7579 9.96608 37.3356 10.4275L37.3553 16.4357C37.748 16.8678 38.3174 17.2016 39.2697 17.2016C40.762 17.2016 41.7633 15.5816 41.7633 13.4022C41.7633 11.2227 40.7423 9.63229 39.2697 9.63229ZM27.7244 6.314H31.779V20.4904H27.7244V6.314ZM27.7244 1.69982L31.779 0.845703V4.14435L27.7244 5.00829V1.70964V1.69982ZM23.4833 10.8791V20.4904H19.4385V6.314H23.071L23.1887 7.51173C24.1705 5.77405 26.2027 6.12748 26.7427 6.314V10.0348C26.2321 9.86791 24.4944 9.61267 23.4833 10.8791ZM15.0893 15.513C15.0893 17.8985 17.6419 17.1622 18.1524 16.9463V20.2449C17.6124 20.5395 16.6406 20.7751 15.3152 20.7751C13.067 20.8437 11.1919 19.0668 11.1231 16.8187C11.1231 16.7499 11.1231 16.6813 11.1231 16.6125V3.68294L15.0796 2.83864V6.314H18.1622V9.77956H15.0893V15.5227V15.513ZM10.269 16.2001C10.269 19.1159 8.0012 20.7751 4.64364 20.7751C3.14157 20.7751 1.64932 20.4609 0.265071 19.8621V16.0039C1.61988 16.7401 3.30847 17.2899 4.64364 17.2899C5.54684 17.2899 6.1457 17.0543 6.1457 16.3081C6.1457 14.3643 0 15.0908 0 10.614C0 7.75716 2.23837 6.04893 5.51739 6.04893C6.85256 6.04893 8.18773 6.24529 9.53272 6.78524V10.5944C8.2859 9.93664 6.91146 9.58321 5.50757 9.55376C4.66327 9.55376 4.09387 9.79919 4.09387 10.4373C4.09387 12.2535 10.269 11.3896 10.269 16.21V16.2001Z" fill="#040000"/>
</g>
<defs>
<clipPath id="clip0_155_41975">
<rect width="58.61" height="24.7464" fill="white" transform="translate(0 0.626953)"/>
</clipPath>
</defs>
</svg>
