<svg width="32" height="32" viewBox="0 0 32 32" fill="none" xmlns="http://www.w3.org/2000/svg">
<g clipPath="url(#clip0_667_25595)">
<g clipPath="url(#clip1_667_25595)">
<g clipPath="url(#clip2_667_25595)">
<g filter="url(#filter0_d_667_25595)">
<path d="M16 31.3996C24.5052 31.3996 31.4 24.5048 31.4 15.9996C31.4 7.49442 24.5052 0.599609 16 0.599609C7.49479 0.599609 0.599976 7.49442 0.599976 15.9996C0.599976 24.5048 7.49479 31.3996 16 31.3996Z" fill="white"/>
<path d="M16 31.3996C24.5052 31.3996 31.4 24.5048 31.4 15.9996C31.4 7.49442 24.5052 0.599609 16 0.599609C7.49479 0.599609 0.599976 7.49442 0.599976 15.9996C0.599976 24.5048 7.49479 31.3996 16 31.3996Z" stroke="#DCDCDC" strokeWidth="0.75"/>
</g>
<path d="M10 16H22" stroke="#363636" strokeWidth="1.25"/>
<path d="M10 16H22" stroke="black" stroke-opacity="0.2" strokeWidth="1.25"/>
<path d="M10 16H22" stroke="black" stroke-opacity="0.2" strokeWidth="1.25"/>
<path d="M10 16H22" stroke="black" stroke-opacity="0.2" strokeWidth="1.25"/>
</g>
</g>
</g>
<defs>
<filter id="filter0_d_667_25595" x="-3.77502" y="-2.77539" width="39.55" height="39.5498" filterUnits="userSpaceOnUse" color-interpolation-filters="sRGB">
<feFlood flood-opacity="0" result="BackgroundImageFix"/>
<feColorMatrix in="SourceAlpha" type="matrix" values="0 0 0 0 0 0 0 0 0 0 0 0 0 0 0 0 0 0 127 0" result="hardAlpha"/>
<feOffset dy="1"/>
<feGaussianBlur stdDeviation="2"/>
<feComposite in2="hardAlpha" operator="out"/>
<feColorMatrix type="matrix" values="0 0 0 0 0 0 0 0 0 0 0 0 0 0 0 0 0 0 0.15 0"/>
<feBlend mode="normal" in2="BackgroundImageFix" result="effect1_dropShadow_667_25595"/>
<feBlend mode="normal" in="SourceGraphic" in2="effect1_dropShadow_667_25595" result="shape"/>
</filter>
<clipPath id="clip0_667_25595">
<rect width="32" height="32" fill="white"/>
</clipPath>
<clipPath id="clip1_667_25595">
<rect width="32" height="32" fill="white"/>
</clipPath>
<clipPath id="clip2_667_25595">
<rect width="32" height="32" fill="white"/>
</clipPath>
</defs>
</svg>
