<svg width="32" height="31" viewBox="0 0 32 31" fill="none" xmlns="http://www.w3.org/2000/svg">
<path d="M22.5049 8.94116C27.7027 8.94134 31.9159 13.1545 31.916 18.3523C31.916 23.5502 27.7027 27.7642 22.5049 27.7644C17.3069 27.7644 13.0928 23.5503 13.0928 18.3523C13.0929 13.1544 17.307 8.94116 22.5049 8.94116ZM18.626 13.5525L21.2783 18.8132H19.9375V20.0671H21.6816V21.033H19.9375V22.2869H21.6816V23.8425H23.6992V22.2869H25.4287V21.033H23.6992V20.0671H25.4287V18.8132H24.0596L26.7549 13.5525H24.5498L22.6904 17.7898L20.8457 13.5525H18.626Z" fill="#F86A84"/>
<mask id="mask0_443_4430" style="mask-type:alpha" maskUnits="userSpaceOnUse" x="2" y="0" width="20" height="20">
<path d="M12.3086 0.313721C17.5065 0.313872 21.7197 4.52791 21.7197 9.72583C21.7196 14.9236 17.5064 19.1368 12.3086 19.137C7.11068 19.137 2.89664 14.9237 2.89648 9.72583C2.89648 4.52782 7.11058 0.313721 12.3086 0.313721ZM8.42969 4.92603L11.082 10.1858H9.74121V11.4397H11.4854V12.4055H9.74121V13.6594H11.4854V15.2161H13.5029V13.6594H15.2324V12.4055H13.5029V11.4397H15.2324V10.1858H13.8633L16.5586 4.92603H14.3535L12.4941 9.16333L10.6494 4.92603H8.42969Z" fill="#F86A84"/>
</mask>
<g mask="url(#mask0_443_4430)">
<path d="M12.3086 -0.470581C17.407 -0.470513 21.6302 3.27183 22.3838 8.1593C16.8084 8.22406 12.3087 12.7619 12.3086 18.3527C12.3086 18.8849 12.3491 19.4079 12.4277 19.9181C12.3881 19.9185 12.3484 19.922 12.3086 19.922C6.67746 19.922 2.11238 15.3568 2.1123 9.72571C2.1123 4.09453 6.67742 -0.470581 12.3086 -0.470581Z" fill="#F86A84"/>
</g>
<mask id="mask1_443_4430" style="mask-type:alpha" maskUnits="userSpaceOnUse" x="0" y="11" width="20" height="20">
<path d="M9.95605 11.6857C15.1539 11.6858 19.3672 15.8999 19.3672 21.0978C19.3671 26.2956 15.1539 30.5088 9.95605 30.5089C4.75812 30.5089 0.544066 26.2957 0.543945 21.0978C0.543945 15.8998 4.75804 11.6857 9.95605 11.6857ZM6.07715 16.298L8.72949 21.5577H7.38867V22.8116H9.13281V23.7775H7.38867V25.0314H9.13281V26.588H11.1504V25.0314H12.8799V23.7775H11.1504V22.8116H12.8799V21.5577H11.5107L14.2061 16.298H12.001L10.1416 20.5343L8.29688 16.298H6.07715Z" fill="#F86A84"/>
</mask>
<g mask="url(#mask1_443_4430)">
<path d="M2.9248 13.7169C4.47855 17.3633 8.09572 19.92 12.3096 19.92C12.3492 19.92 12.3892 19.9176 12.4287 19.9171C12.9384 23.224 15.0376 26.005 17.9209 27.4591C16.0525 29.7953 13.1801 31.2931 9.95605 31.2931C4.32502 31.2931 -0.240025 26.7288 -0.240234 21.0978C-0.240234 18.1934 0.976077 15.574 2.9248 13.7169Z" fill="#F86A84"/>
</g>
</svg>
