<svg width="81" height="81" viewBox="0 0 81 81" fill="none" xmlns="http://www.w3.org/2000/svg">
<path d="M32.0859 11.6222C35.7929 4.51134 45.0597 4.51133 48.7666 11.6222L73.7881 59.6222C77.4949 66.7332 72.8617 75.6219 65.4482 75.6222H15.4043C7.99078 75.6219 3.35763 66.7332 7.06444 59.6222L32.0859 11.6222ZM40.4267 55.759C39.2269 55.759 38.19 56.1667 37.3174 56.9826C36.481 57.7987 36.0625 58.7749 36.0625 59.9103C36.0625 60.478 36.1715 61.0103 36.3896 61.507C36.6442 62.0037 36.9721 62.4295 37.3721 62.7844C37.772 63.1391 38.2264 63.4231 38.7353 63.6359C39.2808 63.8488 39.8449 63.9553 40.4267 63.9553C41.6265 63.9552 42.6442 63.5466 43.4805 62.7306C44.3532 61.9146 44.79 60.9392 44.79 59.8039C44.79 58.6685 44.3532 57.7104 43.4805 56.9299C42.6079 56.1495 41.5901 55.7591 40.4267 55.759ZM40.4267 25.9553C37.22 25.9553 34.7194 28.733 35.0557 31.9221L36.8105 48.5656C37.0056 50.4158 38.5663 51.8205 40.4267 51.8205C42.2871 51.8203 43.8469 50.4157 44.042 48.5656L45.7969 31.9221C46.1331 28.7331 43.6333 25.9555 40.4267 25.9553Z" fill="#586B88"/>
</svg>
