<svg width="48" height="48" viewBox="0 0 48 48" fill="none" xmlns="http://www.w3.org/2000/svg">
<path d="M0 4C0 1.79086 1.79086 0 4 0H44C46.2091 0 48 1.79086 48 4V44C48 46.2091 46.2091 48 44 48H4C1.79086 48 0 46.2091 0 44V4Z" fill="#333333"/>
<mask id="mask0_2_11140" style="mask-type:luminance" maskUnits="userSpaceOnUse" x="12" y="12" width="24" height="24">
<path d="M12 36H36V12H12V36Z" fill="white"/>
</mask>
<g mask="url(#mask0_2_11140)">
<path d="M21.714 25.8436L12.78 36.001H14.898L22.656 27.1814L28.852 36.001H35.998L26.628 22.6651L35.998 12.0127H33.88L25.6881 21.3271L19.144 12.0127H11.998L21.7161 25.8436H21.714ZM24.6141 22.5476L25.564 23.8757L33.118 34.442H29.866L23.77 25.9139L22.8201 24.5858L14.896 13.5013H18.148L24.6141 22.5457V22.5476Z" fill="white"/>
</g>
</svg>
