<svg width="49" height="48" viewBox="0 0 49 48" fill="none" xmlns="http://www.w3.org/2000/svg">
<path fill-rule="evenodd" clip-rule="evenodd" d="M0.145508 0H48.1455V48H0.145508V0Z" fill="white"/>
<path fill-rule="evenodd" clip-rule="evenodd" d="M3.92506 7.41608C3.92506 7.39208 3.93706 7.36808 3.96106 7.34408C3.96106 7.34408 11.7731 3.52808 24.0731 3.52808C36.3731 3.52808 44.6171 7.38008 44.6171 7.38008L39.5651 23.8561L44.5091 40.5481C44.5091 40.5481 37.4171 44.4721 23.5691 44.4721C9.72106 44.4721 3.68506 40.8001 3.68506 40.8001L8.84506 23.8201L3.93706 7.41608H3.92506Z" fill="#0079BE"/>
<path fill-rule="evenodd" clip-rule="evenodd" d="M9.56511 23.8922L4.58511 40.0682C4.54911 40.1402 4.54911 40.2842 4.58511 40.3562C4.58511 40.3922 4.6211 40.4642 4.6931 40.5002C4.6931 40.5002 12.9491 43.7762 24.1811 43.7762C35.4131 43.7762 43.6331 40.0682 43.6331 40.0682L38.8331 23.7122L43.7051 7.96824C43.7051 7.93224 43.6691 7.82424 43.6331 7.78824C43.6331 7.78824 36.0731 4.22424 24.0011 4.22424C11.9291 4.22424 4.76511 7.86024 4.76511 7.86024C4.72911 7.89624 4.72911 8.00424 4.72911 8.07624L9.56511 23.8922Z" fill="white"/>
<path fill-rule="evenodd" clip-rule="evenodd" d="M5.96551 8.68804C5.96551 8.65204 5.92951 8.58004 5.96551 8.50804C6.00151 8.43604 6.07351 8.36404 6.14551 8.36404C6.14551 8.36404 13.3455 5.19604 24.0735 5.19604C34.8015 5.19604 42.5055 8.32804 42.5055 8.32804C42.5055 8.32804 42.5415 8.36404 42.5415 8.40004V8.61604L37.8855 23.628C37.8855 23.7 37.8135 23.808 37.8495 23.88L42.5055 39.372C42.5055 39.408 42.5055 39.444 42.4695 39.48C42.4695 39.48 35.0895 42.828 24.0015 42.828C12.9135 42.828 5.96551 39.888 5.96551 39.888C5.92951 39.888 5.85751 39.816 5.82151 39.78C5.78551 39.744 5.74951 39.708 5.74951 39.636L10.5495 24.036C10.5855 23.964 10.5495 23.856 10.5495 23.748L5.96551 8.70004V8.68804Z" fill="#0079BE"/>
<path fill-rule="evenodd" clip-rule="evenodd" d="M23.1972 11.6402C23.4492 11.6042 23.8572 11.6042 24.0372 11.5682C24.1092 11.5682 24.1812 11.4602 24.2532 11.4242C24.2532 11.3882 24.2892 11.3522 24.2892 11.3162C24.3252 11.1362 24.3252 10.9202 24.2892 10.7762C24.2892 10.7042 24.2532 10.6322 24.1812 10.5962C24.0732 10.5242 23.8932 10.4882 23.8212 10.4162C23.7972 10.3922 23.7972 10.3682 23.8212 10.3442C23.9292 10.0922 24.6972 8.30423 24.8052 8.05223C24.8412 8.01623 24.8772 7.98022 24.9492 7.94422C25.0212 7.90822 25.1652 7.90823 25.2372 7.87223C25.3092 7.83623 25.4172 7.80022 25.4532 7.72822C25.4892 7.69222 25.5252 7.62022 25.5252 7.54822C25.5612 7.40422 25.5252 7.22423 25.5252 7.08023C25.5252 6.93623 25.4892 6.97223 25.4892 6.97223C25.4532 6.90023 25.3812 6.86422 25.3092 6.82822C25.2732 6.79222 25.2012 6.79223 25.1652 6.79223C24.7692 6.75623 24.3252 6.75623 23.9292 6.75623C23.5332 6.75623 23.6772 6.75623 23.5692 6.79223C23.4972 6.79223 23.4252 6.82822 23.3892 6.86422C23.3532 6.93622 23.2812 7.04423 23.2812 7.11623C23.2452 7.26023 23.2452 7.44022 23.2812 7.54822C23.2812 7.62022 23.3532 7.76423 23.4252 7.80023C23.4972 7.87223 23.6412 7.83622 23.7132 7.90822C23.7852 7.90822 23.7852 7.94423 23.7852 7.98023C23.7492 8.12423 23.6772 8.23223 23.6412 8.37623C23.4612 8.77223 23.2092 9.32422 23.1372 9.46822C23.1372 9.50422 23.1012 9.46822 23.1012 9.46822C23.0652 9.46822 23.0292 9.50422 23.0292 9.46822C22.9572 9.36022 22.8132 9.07222 22.6692 8.84422C22.5612 8.59222 22.3812 8.26823 22.3092 8.07623C22.2732 8.04023 22.2732 8.00422 22.3092 7.96822C22.3092 7.96822 22.6332 7.89623 22.7412 7.50023C22.7412 7.10423 22.7052 6.92423 22.4892 6.84023C22.2372 6.76823 20.7852 6.84022 20.5932 6.98422C20.4132 7.09222 20.4132 7.16423 20.4492 7.56023C20.4492 7.95623 20.8812 8.02822 20.8812 8.02822C20.9172 8.06422 20.9172 8.02822 20.9172 8.06422L20.2932 9.66023L19.3812 8.24422C19.3812 8.22022 19.3932 8.20822 19.4172 8.20822C19.4172 8.20822 19.7412 8.06422 19.8132 7.88422C19.8852 7.74022 19.8852 7.15223 19.5972 7.08023C19.3452 7.00823 17.8932 7.15223 17.6652 7.29623C17.4852 7.40423 17.5572 7.87223 17.5572 7.87223L17.6652 8.19623C17.7012 8.23223 17.7732 8.26822 17.8452 8.30422C17.9532 8.30422 18.0612 8.30423 18.1692 8.34023C18.2772 8.34023 18.3132 8.37622 18.3492 8.44822L19.6572 10.5962V10.7042C19.6212 10.7402 19.6212 10.7042 19.5852 10.7402C19.5492 10.7762 19.4772 10.7762 19.4412 10.8122C19.3692 10.8482 19.2972 10.9202 19.2972 10.9922C19.2612 11.1362 19.2612 11.3522 19.2972 11.5322C19.2972 11.5322 19.2612 11.6042 19.4772 11.7842C19.7292 11.9282 21.3732 11.5682 21.3732 11.5682C21.4092 11.5682 21.4812 11.4962 21.4812 11.4602C21.5172 11.3882 21.5532 11.2442 21.5532 11.1722C21.5532 11.0282 21.5172 10.8842 21.4452 10.7402C21.4452 10.7042 21.3732 10.6682 21.3372 10.6322C21.2652 10.5962 21.1212 10.5962 21.0492 10.5242L21.5892 9.03623L22.4292 10.3802V10.4522C22.3572 10.5602 22.2132 10.5602 22.1412 10.6322C22.0692 10.7402 22.0332 10.9202 22.0332 11.0282C22.0332 11.1362 22.1052 11.3162 22.1412 11.4242C22.1412 11.4602 22.2132 11.4962 22.2492 11.5322C22.3932 11.5682 22.5372 11.6042 22.7172 11.6042H23.1852L23.1972 11.6402ZM28.6932 11.8202C28.8012 11.8202 28.9812 11.7842 29.1252 11.7122C29.2332 11.6762 29.3412 11.5682 29.4132 11.4602C29.4492 11.4242 29.4852 11.3162 29.4852 11.2802C29.5572 10.9202 29.5932 10.5842 29.6292 10.2242C29.6652 9.97222 29.6292 9.64823 29.6292 9.45623C29.5932 9.38423 29.5572 9.31223 29.5572 9.27623C29.4852 9.16823 29.3772 9.06023 29.2692 9.02422C29.1972 8.95222 29.0532 8.91623 28.9452 8.91623L26.8332 8.70023C26.7972 8.70023 26.7612 8.70022 26.7252 8.66422L26.6892 8.62822V8.16023C26.6892 8.13623 26.7012 8.11222 26.7252 8.08822C26.7612 8.05222 26.7612 8.01623 26.8332 8.01623L28.3572 8.08822C28.4652 8.12422 28.5732 8.12423 28.6812 8.16023C28.7292 8.18423 28.7652 8.22022 28.7892 8.26822C28.8252 8.41222 28.8252 8.59223 28.8972 8.70023C28.9332 8.77223 29.0772 8.80822 29.1132 8.80822H29.4012C29.4372 8.80822 29.5452 8.80823 29.5812 8.77223C29.6532 8.70023 29.6892 8.55622 29.7252 8.44822C29.7972 8.30422 29.7972 8.08822 29.7972 7.90822C29.7972 7.72822 29.7612 7.62023 29.7252 7.47623C29.7252 7.44023 29.6892 7.36823 29.6532 7.33223C29.5812 7.26023 29.5092 7.18823 29.4372 7.15223C29.3652 7.11623 29.2572 7.04422 29.1492 7.04422L26.6772 6.82822C26.6052 6.82822 26.4972 6.82822 26.3892 6.86422C26.3532 6.86422 26.2452 6.90023 26.2092 6.93623C26.1012 6.97223 26.0292 7.00823 25.9572 7.08023C25.8852 7.18823 25.8132 7.33223 25.7772 7.47623C25.7412 7.65623 25.6692 8.56822 25.6692 8.74822C25.6692 8.92822 25.7052 9.07223 25.7772 9.18023C25.8132 9.28823 25.8852 9.39622 25.9572 9.46822C26.0652 9.50422 26.1732 9.57623 26.3172 9.57623C26.5332 9.61223 27.9492 9.72023 28.4292 9.79223C28.5012 9.79223 28.5372 9.82822 28.6092 9.82822V9.86422C28.6452 9.97222 28.6452 10.0082 28.6452 10.0802C28.6452 10.2602 28.6452 10.4402 28.5732 10.5842C28.5732 10.6202 28.5372 10.6562 28.5012 10.6562L26.6772 10.5122H26.5692C26.5452 10.4882 26.5332 10.4522 26.5332 10.4042C26.4972 10.2602 26.4972 10.0442 26.4612 9.86422C26.4612 9.82822 26.3892 9.75623 26.3532 9.75623C26.2452 9.72023 26.1012 9.72023 26.0292 9.72023C25.9572 9.72023 25.8492 9.68423 25.7772 9.72023C25.7052 9.75623 25.6332 9.86423 25.5972 9.93623C25.5612 10.1162 25.5252 10.4402 25.5252 10.7042C25.5252 10.9682 25.5612 10.9922 25.5612 11.1362C25.5612 11.2802 25.5972 11.2442 25.5972 11.2802C25.6692 11.3522 25.7772 11.4602 25.8852 11.5322L28.6812 11.8202H28.6932ZM34.4292 8.47223C34.4652 8.36423 34.3932 8.22023 34.3572 8.11223C34.3212 8.04023 34.2852 7.96823 34.2492 7.93223C34.1772 7.86023 34.0332 7.75223 33.9612 7.75223L31.1652 7.28422C31.0932 7.28422 31.0572 7.32023 30.9852 7.32023C30.9492 7.35623 30.8412 7.35623 30.8052 7.39223C30.7332 7.46423 30.6252 7.53622 30.5892 7.64422C30.5172 7.75222 30.4812 7.93223 30.4452 8.07623L29.9052 11.2802C29.9052 11.3882 29.9772 11.5322 30.0132 11.6402C30.0132 11.7122 30.1572 11.8922 30.2292 11.9282L32.9172 12.3962C33.0252 12.4322 33.1692 12.4322 33.2772 12.3962C33.3492 12.3962 33.4572 12.3242 33.4932 12.2882C33.6012 12.2162 33.7092 12.1442 33.7812 12.0362C33.8172 11.9282 33.8892 11.7842 33.8892 11.6762L34.4292 8.47223ZM16.7652 12.2162C16.9812 12.2882 18.6612 12.1082 18.7692 11.8202C18.8772 11.5322 18.8412 11.6042 18.8052 11.4962C18.8052 11.3522 18.7692 11.1722 18.6972 11.0642C18.6612 10.9922 18.5172 10.9922 18.4812 10.9562C18.3372 10.9202 18.2292 10.9562 18.1212 10.8842L17.6172 10.3082L16.3452 8.67623C16.3452 8.60423 16.3812 8.60422 16.4172 8.56822C16.4532 8.53222 16.5252 8.53223 16.5612 8.49623C16.5612 8.49623 16.7772 8.24423 16.6692 7.95623C16.6692 7.70423 16.5612 7.59622 16.4172 7.52422C16.3092 7.48822 14.6772 7.70422 14.5212 7.84822C14.3772 7.95622 14.4132 7.95623 14.3772 8.17223C14.3772 8.42423 14.4852 8.67623 14.4852 8.67623C14.5212 8.74823 14.5932 8.78423 14.6652 8.82023C14.7372 8.85623 14.8092 8.82023 14.8812 8.89223C14.9172 8.89223 14.9172 8.92823 14.9172 8.96423L13.8972 11.6522C13.8252 11.7602 13.6812 11.7602 13.5732 11.8322C13.5372 11.8322 13.5012 11.9042 13.4652 11.9402C13.4652 11.9402 13.3932 12.2642 13.4652 12.3722C13.5372 12.5162 13.5372 12.6242 13.6452 12.7322C13.7532 12.8402 15.5772 12.5882 15.7212 12.3002C15.7212 12.3002 15.7572 11.6402 15.6132 11.5682C15.4692 11.4962 15.4332 11.4602 15.3612 11.4242C15.2892 11.4242 15.2172 11.4242 15.1452 11.3882C15.1212 11.3882 15.1092 11.3762 15.1092 11.3522C15.1452 11.2442 15.1452 11.1722 15.2172 11.1362L16.6332 10.8842C16.7052 10.8842 16.7772 10.8842 16.8492 10.9202C16.8852 10.9562 16.9212 10.9562 16.9572 11.0282C16.9572 11.0642 16.9932 11.0642 16.9572 11.1002C16.8492 11.2082 16.7052 11.2082 16.5972 11.3162C16.5612 11.3522 16.5252 11.4602 16.5252 11.5322C16.5252 11.5322 16.5612 12.1082 16.7772 12.2282L16.7652 12.2162ZM38.2212 8.83223C38.0412 8.97623 38.0772 8.97622 38.0412 9.04822C37.9692 9.19222 37.9332 9.37223 37.9332 9.51623C37.9332 9.66023 37.9692 9.69622 38.0052 9.76822C38.1132 9.84022 38.2572 9.87622 38.3652 9.94822C38.4012 9.98422 38.4012 10.0202 38.4012 10.0562L38.1132 11.2202C38.0772 11.2562 38.1132 11.2922 38.0772 11.3282H37.9692C37.8972 11.2922 37.8972 11.2562 37.8612 11.1842L36.8772 9.62422C36.8412 9.58822 36.8052 9.58823 36.8052 9.51623C36.8052 9.44423 36.8412 9.51623 36.8772 9.48023C36.9132 9.44423 37.0212 9.44422 37.0932 9.40822C37.1292 9.33622 37.2012 9.26423 37.2012 9.19223C37.2732 9.04823 37.2732 8.90423 37.3092 8.76023C37.3092 8.68823 37.2732 8.54423 37.1652 8.47223C37.0212 8.36423 35.4252 8.04023 35.4252 8.04023C35.3892 8.04023 35.2812 8.04023 35.2452 8.07623C35.2092 8.11223 35.1372 8.22023 35.1012 8.29223C35.0292 8.43623 35.0292 8.58022 34.9932 8.72422C34.9932 8.79622 35.0292 8.86823 35.0652 8.94023C35.0652 8.97623 35.1372 9.01222 35.1732 9.04822C35.2812 9.12022 35.3892 9.08423 35.4612 9.19223C35.5332 9.26423 35.4972 9.30023 35.4612 9.37223L34.8852 11.5202C34.8492 11.5922 34.8132 11.6282 34.7412 11.6282C34.6332 11.6642 34.5252 11.6282 34.4172 11.6282C34.3092 11.6282 34.3092 11.6282 34.3092 11.6642C34.2732 11.7002 34.2012 11.7362 34.2012 11.7722C34.1652 11.8442 34.0932 11.9882 34.0932 12.0602C34.0572 12.2042 34.0572 12.3482 34.0932 12.4562C34.0932 12.5282 34.2012 12.6002 34.2372 12.6002C34.4172 12.6722 34.6692 12.7442 34.8612 12.8162C35.1852 12.8882 35.7012 12.9962 35.8812 13.0322C35.9172 13.0322 36.0612 12.9962 36.0972 12.9602C36.1692 12.8882 36.2412 12.7802 36.2772 12.6722C36.3132 12.5642 36.3492 12.4202 36.3492 12.3122C36.3492 12.2042 36.3132 12.1682 36.2772 12.1322C36.2412 12.0962 36.1692 12.0242 36.1332 12.0242C36.0612 11.9882 35.9892 11.9882 35.9172 11.9522C35.8812 11.9162 35.8812 11.8802 35.8452 11.8442V11.7362C35.8812 11.5562 36.1332 10.6442 36.2052 10.5002C36.2052 10.4762 36.2172 10.4642 36.2412 10.4642C36.2652 10.4642 36.2892 10.4882 36.3132 10.5362L37.4412 12.2762C37.4412 12.3002 37.4292 12.3242 37.4052 12.3482C37.3332 12.3842 37.2612 12.3482 37.1892 12.4202C37.1172 12.4562 37.0452 12.5642 37.0092 12.6362C36.9732 12.7802 36.9012 12.9242 36.9012 13.0682C36.9012 13.2122 36.9732 13.2842 37.0092 13.3202L38.7132 13.8242C38.7852 13.8242 38.8572 13.7882 38.9292 13.7522C38.9652 13.7522 39.0372 13.6802 39.0372 13.6082C39.1092 13.4642 39.1812 13.2842 39.2172 13.1402C39.2172 13.0682 39.1812 12.9962 39.1452 12.9602C39.1092 12.8882 39.0012 12.8162 38.9292 12.7802C38.9292 12.7802 38.8572 12.7802 38.8572 12.7442C38.8092 12.7202 38.7732 12.6842 38.7492 12.6362V12.4922L39.3252 10.4162C39.3612 10.3802 39.3612 10.3442 39.3972 10.3082C39.4332 10.2722 39.4692 10.2722 39.5412 10.2722C39.6492 10.2362 39.7212 10.2722 39.8292 10.2722C39.9372 10.2722 39.9372 10.2362 39.9372 10.2362C40.0092 10.1642 40.0812 10.0922 40.1172 10.0202C40.1532 9.91223 40.2252 9.73222 40.2252 9.58822C40.2252 9.44422 40.2252 9.44423 40.1532 9.33623C40.1172 9.26423 38.5212 8.60423 38.2212 8.83223ZM9.09723 10.2962C9.16923 10.3322 9.20523 10.3682 9.20523 10.4042C9.27723 10.6202 9.74523 12.4082 9.78123 12.6242C9.78123 12.6602 9.78123 12.6962 9.70923 12.7322C9.70923 12.7322 9.27723 12.8402 9.27723 13.1642C9.31323 13.4882 9.52923 13.8242 9.52923 13.8242C9.60123 13.8602 9.70923 13.8962 9.74523 13.8962L13.0212 13.0562C13.0932 13.0202 13.2012 12.9842 13.2732 12.9122C13.3092 12.8402 13.3452 12.6962 13.3452 12.5882C13.3092 12.4082 13.0572 11.4962 12.9852 11.2802C12.9852 11.2802 12.9132 10.9922 12.4812 11.1002C12.0852 11.2082 12.0852 11.4602 12.0852 11.4602C12.1212 11.6402 12.1932 11.7842 12.1932 11.9642C12.1932 12.1442 12.1932 12.0362 12.1572 12.0722L10.9572 12.4322C10.9212 12.4322 10.8852 12.3962 10.8492 12.3962C10.8252 12.3722 10.8132 12.3482 10.8132 12.3242L10.1892 10.1042C10.1892 10.0682 10.1892 10.0322 10.2252 9.99623C10.2252 9.99623 10.7292 9.92423 10.6932 9.37223C10.6572 8.79623 10.1892 8.83223 10.1892 8.83223L8.55723 9.26423C8.55723 9.26423 8.41323 9.30023 8.37723 9.48023C8.30523 9.69623 8.48523 10.1402 8.62923 10.2482C8.73723 10.3562 9.09723 10.2842 9.09723 10.2842V10.2962ZM33.1572 8.68822C33.2652 8.68822 33.3372 8.72423 33.4092 8.79623C33.4452 8.83223 33.4812 8.94023 33.4452 9.01223L33.0492 11.1602C33.0492 11.1962 33.0132 11.2682 32.9772 11.3042C32.9412 11.3402 32.8692 11.3402 32.7972 11.3402L31.0572 11.0522C30.9852 11.0162 30.9132 10.9802 30.8772 10.9082C30.8412 10.8002 30.8772 10.7282 30.8772 10.6562L31.2732 8.50822C31.3092 8.47222 31.3452 8.43623 31.3812 8.40023L33.1572 8.68822ZM15.8532 9.60023C15.9252 9.63623 15.9612 9.70823 16.0332 9.74423C16.0692 9.81623 16.0692 9.88823 16.1052 9.96023C16.1052 9.99623 16.1412 10.0322 16.1052 10.0322C15.9972 10.1042 15.8172 10.1402 15.6732 10.1402H15.6012C15.5652 10.1042 15.5292 10.1042 15.5292 10.0682V9.88822C15.5652 9.78022 15.6012 9.67223 15.6372 9.60023C15.6732 9.56423 15.7092 9.56422 15.7452 9.56422C15.7812 9.56422 15.8172 9.56423 15.8532 9.60023Z" fill="white"/>
<path fill-rule="evenodd" clip-rule="evenodd" d="M18.9492 33.6001C18.9492 33.6001 19.0572 34.0681 19.5732 34.3681C20.6292 34.8721 27.8292 34.6201 28.6212 34.3681C29.3892 34.1161 29.3532 33.7441 29.3532 33.7441C29.3532 33.7441 30.0852 25.2721 29.4612 22.3681C29.1732 20.4361 27.2052 18.8761 27.2052 18.8761C27.1692 18.8401 27.1692 18.7681 27.1692 18.6961C27.1692 18.6241 27.2772 18.6601 27.3132 18.6601C27.4212 18.6241 27.4932 18.6601 27.6372 18.6961C27.7092 18.6961 27.7452 18.7681 27.7812 18.8041C27.8532 18.8401 27.8892 18.9121 27.9612 18.9481C27.9972 18.9841 28.1052 19.0201 28.1412 18.9841C28.2132 18.9841 28.2852 18.9121 28.3212 18.8401C28.3932 18.8041 28.3932 18.6961 28.4652 18.6241C28.5012 18.5521 28.5732 18.5521 28.6452 18.5161C28.7172 18.4441 28.8252 18.3361 28.8612 18.2281C28.8972 18.1561 28.8612 18.0481 28.8612 17.9761C28.8252 17.8681 28.7892 17.7961 28.7172 17.7241C28.5732 17.5441 28.3932 17.4001 28.2852 17.2201C28.2852 17.1841 28.2852 17.1121 28.3212 17.0761C28.3572 16.8961 28.6092 16.2361 28.7532 15.8401C28.8612 15.5521 28.9692 15.2641 29.0772 14.9641C29.1132 14.8921 29.1132 14.7841 29.1132 14.6761C29.1132 14.5681 29.1132 14.4961 29.0772 14.4241C29.0412 14.3161 28.9692 14.2081 28.8972 14.1361C28.7892 14.0641 28.7172 14.0281 28.6092 13.9921C28.3212 13.8841 28.0332 13.7761 27.7332 13.7041C27.2292 13.5961 26.6772 13.5241 26.1732 13.4161C25.8132 13.3801 25.4412 13.3441 25.0812 13.3441C24.6132 13.3081 24.1332 13.3441 23.6652 13.3441C23.1972 13.3441 23.1972 13.3441 22.9692 13.3801C22.4652 13.4161 21.9132 13.4881 21.3732 13.5961C20.9412 13.6681 20.4612 13.8121 20.0652 13.9561C19.9572 13.9921 19.8492 14.0281 19.7412 14.1001C19.6692 14.1721 19.5972 14.2801 19.5612 14.3521C19.4892 14.4601 19.4532 14.5681 19.4532 14.6761C19.4892 14.8561 19.5612 15.0721 19.5972 15.3001C19.6692 15.4801 19.7772 15.6601 19.8492 15.8401C19.9212 16.0561 19.9932 16.2721 20.0652 16.5001C20.1372 16.7161 20.2452 16.9681 20.2812 17.1241C20.2812 17.1961 20.2452 17.3041 20.2092 17.3401C20.1012 17.5201 19.9212 17.6281 19.8132 17.8081C19.7412 17.8441 19.7052 17.9161 19.7052 17.9881C19.6692 18.0601 19.7052 18.1681 19.7052 18.2401C19.7052 18.3121 19.7412 18.4201 19.8132 18.4561C19.8852 18.5281 19.9932 18.5641 20.0652 18.6001C20.1012 18.6721 20.1372 18.7081 20.2092 18.7801C20.2092 18.8161 20.2092 18.9241 20.2452 18.9601C20.3172 18.9961 20.3892 19.0321 20.4612 18.9961C20.5332 18.9961 20.6412 18.9241 20.7132 18.8881C20.7492 18.8521 20.7852 18.7801 20.8572 18.7441C20.8932 18.7441 20.9292 18.7081 20.9652 18.7081C21.1092 18.6721 21.1812 18.7081 21.2892 18.7081C21.3972 18.7081 21.3972 18.7801 21.3972 18.7801C21.4332 18.8521 21.3612 18.8521 21.3612 18.8881C21.3612 18.8881 19.4652 20.3761 19.0332 22.4521C18.6012 24.5281 18.9252 33.6121 18.9252 33.6121L18.9492 33.6001ZM26.5812 18.2521C26.6172 18.2521 26.6172 18.2881 26.6532 18.3241V18.5041C26.6172 18.5041 26.6172 18.5401 26.5812 18.5401H22.0332C21.9972 18.5401 21.9612 18.5041 21.9612 18.5041C21.9252 18.4321 21.9252 18.3601 21.9252 18.3241C21.9612 18.2881 21.9972 18.2521 22.0332 18.2521H26.5812ZM21.8892 16.1881C21.9252 16.2241 21.9252 16.2601 21.9252 16.2961L21.9612 17.2441L21.6372 17.8201C21.6012 17.8921 21.6372 18.0001 21.5652 18.0721H21.1692C21.1332 18.0361 21.0972 17.9641 21.0972 17.8921L20.5572 16.2601L20.0172 14.6281V14.5561C20.0172 14.5561 21.6132 13.7521 24.0852 13.7161C26.0892 13.6801 27.7212 14.1121 27.7212 14.1121L28.5612 14.4721C28.5972 14.5081 28.6332 14.5441 28.6332 14.5801L27.4692 18.0721H27.0732C27.0492 18.0721 27.0252 18.0601 27.0012 18.0361C27.0012 17.9641 27.0012 17.8561 26.9652 17.7841L26.6772 17.4601V16.3321L26.9292 15.7561C26.8932 15.6841 26.8572 15.6481 26.8212 15.6481C26.6772 15.5761 26.5692 15.5761 26.4612 15.5761C25.9572 15.5401 25.4052 15.5041 24.9012 15.5041C24.3972 15.5041 23.6652 15.4681 23.0412 15.5041C22.6812 15.5041 22.0932 15.5761 21.9132 15.6121C21.8412 15.6121 21.7692 15.6841 21.7332 15.7561L21.9132 16.1881H21.8892ZM20.4732 18.0361C20.4732 18.0601 20.4612 18.0721 20.4372 18.0721C20.4372 18.0361 20.4012 18.0361 20.4012 18.0001C20.4012 17.9641 20.3652 17.9641 20.4012 17.9281C20.4372 17.9281 20.5092 17.8921 20.5092 17.9281C20.5452 17.9641 20.5092 18.0361 20.4732 18.0361ZM28.2132 18.0361C28.2132 18.0361 28.1772 18.0721 28.1412 18.0721C28.1052 18.0721 28.1052 18.0361 28.0692 18.0001V17.9281C28.1052 17.9281 28.1412 17.9281 28.1772 17.9641C28.2132 17.9641 28.2132 18.0001 28.2132 18.0361Z" fill="white"/>
<path fill-rule="evenodd" clip-rule="evenodd" d="M38.4375 35.6758C38.4375 35.6038 38.4015 35.5678 38.4375 35.4958C38.4375 35.4598 38.4375 35.4238 38.4735 35.3878C38.5815 35.3158 38.6895 35.3159 38.7615 35.2439C38.8335 35.2079 38.8695 35.1359 38.9055 35.0639V34.8119C38.8695 34.6679 38.8335 34.4878 38.7615 34.3798C38.7255 34.3438 38.4375 34.2719 38.4015 34.2719L36.6975 34.7398C36.6255 34.7758 36.5895 34.9199 36.5895 34.9919C36.5895 35.1359 36.6255 35.2799 36.6975 35.3519C36.6975 35.4599 36.7695 35.5678 36.8415 35.6398C36.9135 35.6758 37.0215 35.6759 37.0935 35.7119C37.2015 35.7119 37.3095 35.6758 37.4175 35.6758C37.5255 35.6758 37.4535 35.7118 37.4535 35.7478C37.4895 35.8918 37.7415 36.9119 37.7775 37.0919C37.7775 37.1279 37.8135 37.1278 37.7775 37.1278C37.7415 37.1638 37.7055 37.1638 37.6695 37.1278L35.7735 36.1439C35.7495 36.1439 35.7375 36.1318 35.7375 36.1078C35.7375 36.0718 35.7735 36.1079 35.7735 36.0719C35.8095 36.0359 35.8815 35.9998 35.9535 35.9278C35.9535 35.8558 35.9895 35.7839 35.9895 35.7119C35.9535 35.5319 35.8815 35.2798 35.8095 35.1358C35.8095 35.0998 35.7015 35.0638 35.6655 35.0278H35.4135L33.9615 35.3878C33.9255 35.4238 33.8535 35.4598 33.8175 35.4598C33.7815 35.4958 33.7095 35.5679 33.6735 35.6039V35.9278C33.7095 36.0718 33.7455 36.2518 33.8175 36.3598C33.8535 36.3958 33.9615 36.4318 34.0335 36.4678H34.4295C34.4535 36.4678 34.4655 36.4799 34.4655 36.5039L35.0055 38.9758C34.9335 39.0478 34.7895 39.0478 34.6815 39.1198C34.6455 39.1558 34.6095 39.1918 34.5735 39.2278V39.6239C34.6095 39.7319 34.6815 39.8759 34.7175 39.9839C34.7535 40.0199 34.8255 40.0558 34.8615 40.0558C34.8975 40.0918 34.9695 40.0919 35.0055 40.0919L36.6015 39.7319C36.6375 39.6959 36.7095 39.6599 36.7455 39.6239C36.7815 39.6239 36.8175 39.5518 36.8175 39.5158V39.0478C36.7815 38.9758 36.7455 38.8678 36.7095 38.7958C36.6735 38.7598 36.5655 38.6878 36.5295 38.6878C36.3855 38.6878 36.2055 38.7238 36.0615 38.6878C36.0255 38.6878 36.0255 38.6518 35.9895 38.6158C35.9535 38.4358 35.7015 37.4518 35.6655 37.3078C35.6655 37.2718 35.6655 37.2358 35.7015 37.2358C35.7255 37.2118 35.7495 37.2118 35.7735 37.2358L37.6335 38.1839C37.7055 38.2199 37.7055 38.2559 37.7055 38.2919C37.7415 38.3279 37.7055 38.3278 37.7055 38.3278C37.6695 38.3998 37.5615 38.4359 37.5615 38.5439C37.5255 38.6159 37.5255 38.7238 37.5615 38.7958C37.5615 38.9398 37.6335 39.0838 37.7055 39.2278C37.7415 39.2638 37.7775 39.3358 37.8135 39.3358C37.9215 39.3718 38.0655 39.3718 38.1735 39.3358L39.6615 38.8678C39.6975 38.8678 39.7695 38.7959 39.8055 38.7239C39.8415 38.6159 39.8055 38.4719 39.8055 38.3639C39.7695 38.2559 39.7335 38.1119 39.6615 38.0039C39.6615 37.9679 39.5895 37.8958 39.5535 37.8958C39.4095 37.8598 39.1935 37.8958 39.0495 37.8598C39.0135 37.8598 39.0135 37.8238 38.9775 37.7878L38.4375 35.6758ZM9.20551 36.2878V36.6119C9.24151 36.6839 9.24151 36.7919 9.27751 36.8639C9.38551 36.9719 9.49351 37.1159 9.60151 37.1519C9.85351 37.2239 11.6415 37.7279 11.8575 37.8119C11.8935 37.8119 11.8935 37.8479 11.9295 37.8839C11.9295 37.9199 11.9655 37.9559 11.9655 37.9919C11.9295 38.1719 11.8935 38.3158 11.8215 38.4598C11.7855 38.5318 11.7855 38.6038 11.7135 38.6398C11.6055 38.6758 11.5695 38.6399 11.4615 38.6039L9.90151 38.2078C9.82951 38.1718 9.79351 38.1718 9.75751 38.0998C9.73351 38.0758 9.72151 38.0518 9.72151 38.0278C9.72151 37.8838 9.79351 37.7758 9.79351 37.6678C9.79351 37.5598 9.79351 37.5238 9.75751 37.4878C9.75751 37.4158 9.68551 37.3799 9.61351 37.3439C9.50551 37.2719 9.36151 37.2358 9.25351 37.2358C9.18151 37.1998 9.07351 37.2359 9.03751 37.2719C9.00151 37.3079 8.92951 37.3799 8.89351 37.4519C8.85751 37.6319 8.74951 37.9198 8.71351 38.1478C8.67751 38.2558 8.64151 38.3638 8.67751 38.5078C8.67751 38.6158 8.71351 38.7599 8.74951 38.8319C8.82151 38.9399 8.92951 39.0838 9.03751 39.1198L11.5095 39.8158C11.6535 39.8158 11.7975 39.8518 11.9415 39.8158C12.0495 39.8158 12.1575 39.7798 12.2655 39.7078C12.3735 39.6358 12.4815 39.5278 12.5175 39.4198L12.9495 37.5239C12.9135 37.4519 12.8775 37.3078 12.8415 37.2358C12.7695 37.1638 12.6615 37.0558 12.5895 37.0198L10.2975 36.3598C10.2615 36.3598 10.2255 36.3599 10.2255 36.3239C10.1895 36.2159 10.1895 36.1439 10.2255 36.0719C10.2615 35.9279 10.2975 35.8558 10.3335 35.7478C10.3695 35.7118 10.3695 35.6758 10.4055 35.6758C10.4415 35.6398 10.4775 35.6038 10.5135 35.6398L12.1455 36.0719C12.2175 36.0719 12.2535 36.1078 12.2895 36.1078C12.3615 36.1438 12.3975 36.1438 12.3975 36.2158C12.4335 36.3238 12.3615 36.4679 12.3975 36.6119C12.3975 36.6839 12.4335 36.7559 12.5055 36.7919C12.6135 36.8639 12.7935 36.8998 12.9375 36.9358C13.0095 36.9358 13.0815 36.8999 13.1175 36.8639C13.1535 36.8279 13.2255 36.7559 13.2615 36.6839C13.2975 36.5399 13.3695 36.3598 13.4055 36.1798C13.4415 36.0718 13.4775 35.9278 13.4775 35.8198C13.4775 35.7118 13.4415 35.6398 13.4055 35.5678C13.3695 35.4958 13.3335 35.4239 13.2975 35.3519C13.2615 35.3159 13.1895 35.2438 13.1535 35.2078L10.6095 34.4758C10.5015 34.4398 10.3575 34.4398 10.2495 34.4398C10.1415 34.4398 10.0695 34.4758 9.99751 34.4758C9.92551 34.5118 9.85351 34.5118 9.81751 34.5478C9.78151 34.6198 9.67351 34.6919 9.63751 34.7639L9.20551 36.2878ZM16.0695 40.7278C16.1055 40.7278 16.2135 40.6918 16.2495 40.6558C16.2855 40.6198 16.3575 40.5478 16.3935 40.4758C16.4655 40.3318 16.4655 40.1878 16.5015 40.0798C16.5015 39.9718 16.4655 39.8639 16.4295 39.7919C16.3935 39.7559 16.3215 39.7199 16.2855 39.6839C16.2135 39.6479 16.1055 39.6479 16.0335 39.6119C15.9975 39.5759 15.9975 39.5399 15.9975 39.5039C15.9735 39.4799 15.9615 39.4559 15.9615 39.4319L16.3575 37.3558C16.3935 37.2478 16.3935 37.1758 16.4655 37.0678C16.5015 37.0318 16.5375 37.0319 16.6095 37.0319C16.7895 37.0679 17.0775 37.1398 17.2695 37.1758C17.2935 37.1758 17.3055 37.1879 17.3055 37.2119C17.3415 37.3199 17.3055 37.4639 17.3055 37.5719V37.9319C17.3415 38.0039 17.4135 38.0759 17.4495 38.1119C17.5575 38.1479 17.6655 38.1478 17.7735 38.1478C17.8095 38.1838 17.9175 38.1838 17.9895 38.1478C18.0255 38.1118 18.1335 38.0039 18.1335 37.9319C18.2055 37.7519 18.3135 37.3558 18.3855 37.0558C18.4215 36.9118 18.4215 36.7318 18.4215 36.5878V36.4078C18.3855 36.3358 18.3135 36.2278 18.2775 36.2278L14.4255 35.4598C14.2815 35.4238 14.1735 35.4598 14.0295 35.4598L13.9575 35.4958C13.8855 35.5678 13.8135 35.6398 13.7775 35.7478C13.7415 35.9278 13.6335 36.6598 13.5615 37.0558C13.5615 37.1278 13.5615 37.2359 13.5975 37.2719C13.5975 37.3439 13.7055 37.4158 13.7415 37.4158C13.8135 37.4518 13.9575 37.4878 14.0655 37.4878C14.1735 37.4878 14.2095 37.4879 14.2455 37.4519C14.3175 37.3799 14.3895 37.2359 14.4615 37.1639C14.4975 37.0199 14.5335 36.8759 14.5695 36.7319L14.6055 36.6958H14.7135C14.8935 36.7318 15.2175 36.8038 15.4095 36.8398C15.4335 36.8398 15.4455 36.8518 15.4455 36.8758L15.0495 39.0598C15.0135 39.1318 15.0135 39.2399 14.9775 39.3119C14.9775 39.3359 14.9655 39.3478 14.9415 39.3478C14.7975 39.3838 14.6175 39.3838 14.4735 39.4198C14.4375 39.4198 14.3655 39.4558 14.3655 39.4558C14.2935 39.5998 14.2575 39.7439 14.2215 39.8519C14.1855 39.9599 14.1855 40.0678 14.2215 40.1398C14.2215 40.2118 14.2575 40.3198 14.2935 40.3558L16.0695 40.7158V40.7278ZM33.4575 36.1439C33.4215 36.0719 33.3495 35.9638 33.3135 35.9278C33.2775 35.8558 33.1695 35.7838 33.0975 35.7478C32.9895 35.7118 32.8455 35.6758 32.7375 35.6398L30.1935 36.0358C30.0495 36.0718 29.8695 36.1438 29.7615 36.2158C29.6895 36.2518 29.6535 36.3238 29.6175 36.3598C29.5815 36.4678 29.5095 36.5759 29.4735 36.6839C29.4735 36.8639 29.4735 37.0798 29.5095 37.2598L29.9775 40.2719C29.9775 40.4159 30.0855 40.5599 30.1935 40.6319C30.2655 40.7039 30.4095 40.7758 30.5175 40.7758L33.6855 40.2719C33.7215 40.2719 33.7935 40.1999 33.7935 40.1639C33.8655 40.0919 33.9375 39.9839 33.9375 39.9119C33.9735 39.7679 34.0095 39.6238 33.9735 39.4798L33.4695 36.1319L33.4575 36.1439ZM22.3335 41.1958C22.3695 41.1598 22.4055 41.0878 22.4055 41.0158C22.4415 40.9078 22.4775 40.7279 22.4415 40.5839C22.4415 40.5119 22.4055 40.4038 22.3695 40.3678C22.3695 40.3318 22.2975 40.2958 22.2255 40.2598C22.1535 40.2238 22.0095 40.2598 21.9375 40.1878C21.8295 40.0798 21.7935 39.9719 21.7575 39.8639L20.7735 37.6439C20.7375 37.5719 20.7735 37.5718 20.7735 37.4998H20.8095C20.8815 37.4638 20.9535 37.4638 21.0255 37.4278C21.0615 37.3918 21.1695 37.3559 21.1695 37.2839C21.2415 37.1759 21.2775 36.9598 21.2775 36.8158C21.2775 36.6718 21.2055 36.5998 21.1695 36.5278C21.1695 36.4918 21.0615 36.4198 21.0255 36.4198L19.2015 36.2758C19.1295 36.3118 19.0575 36.4199 19.0215 36.4919C18.9855 36.5999 18.9495 36.7439 18.9495 36.8519C18.9495 36.9599 18.9855 37.0678 19.0215 37.1758C19.0575 37.2118 19.0935 37.2839 19.1655 37.2839C19.2015 37.3559 19.2735 37.3199 19.3095 37.3919C19.3455 37.4279 19.3095 37.4279 19.3095 37.4639L17.6775 39.8278C17.6775 39.8278 17.6415 39.8279 17.6055 39.8639C17.4615 39.8639 17.2815 39.8638 17.1375 39.8998C17.0655 39.9358 17.0295 40.0799 16.9935 40.1519C16.9575 40.2599 16.9215 40.3678 16.9215 40.4758C16.9215 40.5838 16.9935 40.6919 17.0295 40.7639C17.0295 40.7999 17.1015 40.8718 17.1735 40.9078L18.9495 41.0519C19.0215 41.0519 19.0935 40.9798 19.0935 40.9078C19.1655 40.7638 19.2015 40.5838 19.2375 40.4398C19.2375 40.3678 19.2015 40.2599 19.1655 40.2239C19.1295 40.1519 19.0215 40.0799 18.9495 40.0439C18.9135 40.0079 18.8415 40.0439 18.8415 39.9719C18.8055 39.9359 18.8055 39.8999 18.8415 39.8639C18.8775 39.7919 18.9135 39.7558 18.9855 39.7198C19.0575 39.6478 19.0935 39.6478 19.2015 39.6478C19.3815 39.6838 20.5095 39.7559 20.6535 39.7919C20.7255 39.8279 20.7255 39.8999 20.7615 39.9719C20.7975 40.0439 20.8335 40.0438 20.7975 40.1158C20.7975 40.1398 20.7855 40.1519 20.7615 40.1519C20.6175 40.2239 20.4375 40.2238 20.3295 40.2598C20.2575 40.2958 20.2215 40.4038 20.2215 40.4398C20.1855 40.6198 20.1855 40.8358 20.2215 41.0158C20.2215 41.0878 20.3295 41.1959 20.4015 41.2319L22.3335 41.1958ZM29.3415 40.7998C29.3775 40.6558 29.3775 40.4038 29.3415 40.2598C29.3415 40.1878 29.2695 40.0438 29.1975 40.0078C29.0535 39.9358 28.8375 39.9718 28.6935 39.9358V39.8639L28.4775 37.6439C28.4775 37.5719 28.4775 37.4998 28.5135 37.4278C28.5135 37.3918 28.5495 37.3918 28.5855 37.3558C28.6935 37.3198 28.8375 37.2838 28.9455 37.2478C28.9815 37.2118 29.0535 37.1758 29.0535 37.1398C29.0895 37.0678 29.1255 36.9599 29.1255 36.8519C29.1255 36.7439 29.0895 36.5998 29.0535 36.4558C29.0535 36.4198 29.0175 36.3479 28.9455 36.3119C28.9095 36.2759 28.8015 36.2398 28.6935 36.2398L27.0255 36.4198C26.9895 36.4198 26.9175 36.4918 26.8815 36.5278C26.8455 36.5998 26.8095 36.7439 26.8095 36.8519C26.8455 36.9959 26.8815 37.1759 26.9175 37.2839C26.9175 37.3559 27.0255 37.3919 27.0615 37.3919C27.2055 37.4639 27.3495 37.4278 27.4575 37.4998C27.5295 37.4998 27.5295 37.5358 27.5295 37.6078L27.7095 39.8639C27.7095 39.9359 27.6735 39.9718 27.6375 40.0078V40.0439C27.4935 40.1159 27.3495 40.1158 27.2415 40.1878C27.2055 40.1878 27.1335 40.2959 27.1335 40.3319C27.0975 40.4399 27.1335 40.5839 27.1335 40.6919C27.1335 40.7999 27.0975 40.8359 27.2415 41.0519C27.3855 41.3039 29.4255 41.0158 29.3535 40.7998H29.3415ZM25.0575 41.2678C25.0935 41.2678 25.1295 41.2318 25.1655 41.1958C25.2015 41.1598 25.2735 41.0879 25.3095 41.0519C25.3455 40.9799 25.3455 40.8719 25.3455 40.7639C25.3455 40.6559 25.3095 40.4758 25.2735 40.3678C25.2375 40.3318 25.2015 40.2958 25.1655 40.2598C25.0215 40.2238 24.8775 40.2238 24.7335 40.1878C24.7095 40.1638 24.6975 40.1278 24.6975 40.0798L24.7695 37.5719C24.9495 37.5359 25.4295 37.5359 25.5735 37.5719C25.6095 37.5719 25.6095 37.6078 25.6095 37.6798C25.6455 37.8598 25.6455 38.1479 25.7175 38.3039C25.7535 38.3759 25.8615 38.4118 25.9335 38.4478C26.0055 38.4838 26.1135 38.4478 26.2215 38.4478C26.3295 38.4478 26.2935 38.4119 26.3295 38.4119C26.3655 38.3759 26.4375 38.3038 26.4735 38.2678L26.5455 36.7798C26.5455 36.7078 26.5095 36.6358 26.4735 36.5998C26.4375 36.5638 26.4015 36.4919 26.3655 36.4919L22.2615 36.4198C22.2255 36.4198 22.1535 36.4198 22.1175 36.4558C22.0455 36.4918 21.9735 36.5638 21.9375 36.6358C21.9375 36.6718 21.9015 36.7438 21.9015 36.7798V38.0878C21.9015 38.1598 21.9375 38.2679 21.9735 38.3039C22.0095 38.3399 22.0815 38.4119 22.1175 38.4119C22.2615 38.4479 22.4055 38.4479 22.5135 38.4119C22.5855 38.3759 22.7295 38.3039 22.7295 38.2319C22.8015 38.0879 22.8015 37.7998 22.8375 37.6078V37.5719C22.9815 37.5359 23.1615 37.5358 23.3415 37.5358C23.5215 37.5358 23.5575 37.5359 23.6655 37.5719C23.6895 37.5719 23.7015 37.5838 23.7015 37.6078V39.7558C23.7015 39.8998 23.7375 40.0078 23.6655 40.1158C23.6655 40.1518 23.6295 40.1518 23.5935 40.1878C23.4495 40.2598 23.2695 40.2599 23.1615 40.3319C23.0895 40.4039 23.0535 40.5839 23.0535 40.6919C23.0535 40.7999 23.0895 40.9799 23.1255 41.1239C23.1615 41.1599 23.2335 41.2318 23.2695 41.2678H25.0455H25.0575ZM30.9855 39.7078C30.9495 39.7078 30.7695 39.6718 30.7695 39.6358L30.4455 37.3798C30.4095 37.3438 30.4095 37.2718 30.4455 37.1998C30.4455 37.1638 30.4815 37.0919 30.5175 37.0919L32.4495 36.7678H32.5935C32.6295 36.8038 32.6655 36.8398 32.7015 36.8758L33.0255 39.1678C33.0255 39.2398 32.9895 39.3119 32.9895 39.3839C32.9535 39.4199 32.9535 39.4558 32.9175 39.4558L30.9855 39.7078ZM20.0775 38.2558C20.1495 38.3998 20.2215 38.5799 20.2575 38.7239C20.2575 38.7599 20.2935 38.8319 20.2575 38.8319C20.1495 38.8679 19.9695 38.8678 19.8615 38.8678C19.7535 38.8678 19.7175 38.8679 19.6455 38.8319C19.6095 38.7959 19.5735 38.7599 19.5735 38.7239C19.6095 38.6519 19.6455 38.5799 19.7175 38.4719C19.7535 38.4359 19.7895 38.3639 19.8255 38.2919C19.8615 38.2559 19.9335 38.2198 19.9695 38.2198C20.0055 38.2198 20.0415 38.2198 20.0775 38.2558Z" fill="white"/>
</svg>
