<svg width="73" height="48" viewBox="0 0 73 48" fill="none" xmlns="http://www.w3.org/2000/svg">
<path d="M7.31988 27.6299C7.31988 27.5872 7.27717 27.5445 7.23447 27.5445H3.64727C1.72556 27.5445 0.145508 25.9644 0.145508 24.0427C0.145508 22.121 0.444425 22.1637 1.1704 21.4377L20.8145 1.02491C22.1811 -0.341633 24.4017 -0.341633 25.811 1.02491L30.3804 5.46619H39.6046C40.2024 1.66548 45.1562 0 48.5298 0C54.1669 0 58.8644 3.92883 60.0601 9.1815C60.0601 9.26691 60.1028 9.35231 60.1028 9.43772C60.1028 9.48042 60.1028 9.52314 60.1882 9.56584C64.2451 11.7865 67.0636 15.9715 67.448 20.7971C67.448 20.8399 67.448 20.9253 67.5334 20.9253C67.5334 20.9253 67.5761 20.9253 67.6188 20.968C70.8644 22.9324 72.9996 26.4342 72.9996 30.4911C72.9996 34.548 70.1811 39.1174 66.1242 40.7829C66.1242 40.7829 66.0814 40.8256 66.0814 40.8683V44.4982C66.0814 46.4199 64.5014 48 62.5796 48H10.8644C8.89995 48 7.36257 46.4199 7.36257 44.4982V27.5872L7.31988 27.6299Z" fill="white"/>
<path d="M35.505 26.7332C36.7435 26.7332 37.7684 25.7083 37.7684 24.4698V16.2278C37.7684 14.9894 36.7435 13.9645 35.505 13.9645C34.2666 13.9645 33.2417 14.9894 33.2417 16.2278V24.4698C33.2417 25.7083 34.2666 26.7332 35.505 26.7332Z" fill="#023886"/>
<path d="M53.3127 26.7332C54.5511 26.7332 55.576 25.7083 55.576 24.4698V16.2278C55.576 14.9894 54.5511 13.9645 53.3127 13.9645C52.0742 13.9645 51.0493 14.9894 51.0493 16.2278V24.4698C51.0493 25.7083 52.0742 26.7332 53.3127 26.7332Z" fill="#023886"/>
<path d="M28.2451 31.9431C28.2451 31.8577 28.2024 31.815 28.117 31.815H27.5192C26.4942 31.815 25.6401 30.9609 25.6401 29.936C25.6401 28.9111 26.4942 28.057 27.5192 28.057H32.8572C33.8821 28.057 34.7362 28.9111 34.7362 29.936C34.7362 30.9609 33.8821 31.815 32.8572 31.815H32.5583C32.4729 31.815 32.4302 31.8577 32.4302 31.9431V38.6905C32.4302 39.8435 31.4907 40.783 30.3376 40.783C29.1846 40.783 28.2451 39.8435 28.2451 38.6905V31.9431Z" fill="#023886"/>
<path d="M47.4198 13.9645C46.224 13.9645 45.2418 14.9467 45.2418 16.1424V17.7652C45.2418 17.7652 45.2418 17.8079 45.1991 17.8079L43.2347 14.9894C42.8504 14.4342 42.1671 14.0499 41.4411 14.0499C40.2454 14.0499 39.2632 15.0321 39.2632 16.2278V24.5552C39.2632 25.751 40.2454 26.7332 41.4411 26.7332C42.6368 26.7332 43.6191 25.751 43.6191 24.5552V22.9324C43.6191 22.9324 43.6191 22.8897 43.6618 22.8897L45.5835 25.7082C45.9678 26.3061 46.6511 26.6905 47.4198 26.6905C48.6155 26.6905 49.5977 25.7083 49.5977 24.5125V16.1851C49.5977 14.9894 48.6155 14.0072 47.4198 14.0072" fill="#023886"/>
<path d="M29.5259 13.9642C28.8426 13.9642 28.2021 14.2631 27.775 14.7756L25.3409 17.5087C25.3409 17.5087 25.3409 17.5514 25.2554 17.5514C25.17 17.5514 25.1273 17.5087 25.1273 17.5087L22.6504 14.7756C22.2234 14.2631 21.6255 13.9215 20.8996 13.9215C19.6611 13.9215 18.6362 14.9464 18.6362 16.1849V24.5123C18.6362 25.708 19.6184 26.6902 20.8142 26.6902C22.0099 26.6902 22.9921 25.708 22.9921 24.5123V21.5229C23.0348 21.5229 23.0775 21.4802 23.1202 21.4802C23.1629 21.4802 23.1202 21.4802 23.1629 21.4802L25.1273 23.6582C25.1273 23.6582 25.17 23.7436 25.2554 23.7436C25.3409 23.7436 25.3836 23.6582 25.3836 23.6582L27.2198 21.4375C27.2198 21.4375 27.2199 21.4375 27.2626 21.4375C27.2626 21.4375 27.348 21.4375 27.348 21.4802V24.5123C27.3907 25.708 28.3729 26.6902 29.5686 26.6902C30.7643 26.6902 31.7466 25.708 31.7466 24.5123V16.1849C31.7466 14.9464 30.7216 13.9215 29.4832 13.9215" fill="#023886"/>
<path d="M53.5689 33.2667H52.4586C52.4586 33.2667 52.3732 33.2667 52.3732 33.1813V31.345C52.3732 31.345 52.3732 31.3023 52.4586 31.3023H53.5689C54.1241 31.3023 54.5511 31.7293 54.5511 32.2845C54.5511 32.8397 54.1241 33.2667 53.5689 33.2667ZM53.5689 28.0567H49.2984C48.5725 28.0567 47.9746 28.6546 47.9746 29.3806V38.6048C47.9746 39.8005 48.9568 40.7827 50.1952 40.7827C51.4337 40.7827 52.3732 39.8005 52.3732 38.6048V36.4696C52.3732 36.4696 52.3732 36.3841 52.4586 36.3841H53.4408C56.5155 36.3841 57.9675 34.3343 57.9675 32.2418C57.9675 30.1493 56.0031 28.014 53.5689 28.014" fill="#023886"/>
<path d="M62.4513 24.7687C65.4406 25.0676 67.7894 27.5872 67.7894 30.6192C67.7894 33.6512 65.5261 36.0854 62.6222 36.427C61.5972 36.5552 60.8286 37.3666 60.8286 38.4342V42.6619C60.8286 42.7473 60.7431 42.8327 60.6577 42.8327H12.7004C12.615 42.8327 12.5296 42.7473 12.5296 42.6619V24.1281C12.5296 23.1032 11.6755 22.2918 10.6933 22.2918H7.83213C7.83213 22.2918 7.83211 22.2918 7.78941 22.2918V22.2064L23.2058 6.23488H23.2912L27.946 10.7189C28.5866 11.3594 29.7823 11.4021 30.4656 10.7189C31.1489 10.0356 31.1489 8.88257 30.4656 8.19929L24.4869 2.34876C23.8037 1.66549 22.6506 1.66549 21.9673 2.34876L2.19511 22.8897C1.93888 23.2313 1.76807 23.6157 1.76807 24.0854C1.76807 25.1103 2.62215 25.9217 3.60436 25.9217H8.81433C8.89974 25.9217 8.98513 26.0071 8.98513 26.0925V44.6263C8.98513 45.6513 9.79654 46.4626 10.8215 46.4626H62.5367C63.5616 46.4626 64.373 45.6513 64.373 44.6263V39.8861C64.373 39.8434 64.373 39.8007 64.4584 39.8007C68.3873 38.6904 71.2912 35.0605 71.2912 30.7473C71.2912 26.4342 69.1559 23.8719 66.0812 22.2918C66.0385 22.2918 65.9531 22.2491 65.9104 22.2064C65.825 22.2064 65.7823 22.121 65.7823 22.0356C65.7823 17.1246 62.8357 12.8968 58.6933 10.9324C58.6506 10.9324 58.6079 10.847 58.5652 10.7616C57.9246 5.72242 53.6542 1.83631 48.4442 1.83631C43.2342 1.83631 44.0883 2.56228 42.3801 3.84342C41.5688 4.44129 41.3552 5.55161 41.9531 6.363C42.5083 7.17439 43.6613 7.38791 44.4727 6.79004C45.583 5.93595 46.9922 5.42349 48.4869 5.42349C51.0919 5.42349 53.3125 6.91815 54.3802 9.05338C54.8072 9.95018 55.2343 11.1886 55.2343 13.3238C55.2343 15.4591 55.277 13.452 55.3624 13.4947C55.4905 13.4947 55.5759 13.5374 55.704 13.5801C58.9923 14.4769 61.5545 17.2954 62.1097 20.7118C62.1951 21.1815 62.3232 22.4199 62.3232 24.726C62.3232 27.032 62.3659 24.8541 62.4513 24.8968" fill="#023886"/>
<path d="M25.4693 36.7686C25.4693 39.16 23.5476 41.0818 21.1561 41.0818C18.7647 41.0818 18.2522 40.4412 17.27 39.3736C16.9711 39.0746 16.8003 38.6049 16.8003 38.1351C16.8003 37.1102 17.6117 36.2988 18.6366 36.2988C19.6615 36.2988 19.5334 36.5124 19.7896 36.6405C19.9177 36.7259 20.5583 37.1529 20.8145 37.1529C21.0707 37.1529 21.1561 36.9821 21.1561 36.8113C21.1561 36.6405 20.8145 36.3415 20.6437 36.2561C18.8074 35.3166 17.0992 34.0782 17.0992 31.8149C17.0992 29.5515 18.722 27.7152 21.327 27.7152C23.932 27.7152 23.932 28.3558 24.8288 29.2953C25.085 29.5942 25.2558 29.9785 25.2558 30.4056C25.2558 31.3024 24.5298 32.0284 23.633 32.0284C22.7362 32.0284 22.2238 31.5159 22.1384 31.4732C21.9248 31.3451 21.8394 31.2597 21.6259 31.2597C21.4124 31.2597 21.2416 31.4305 21.2416 31.644C21.2416 31.8576 21.5832 32.1565 22.3946 32.5835C24.6152 33.6511 25.4266 35.2312 25.4266 36.854" fill="#023886"/>
<path d="M40.5013 36.982C39.0921 36.982 37.8963 35.829 37.8963 34.377C37.8963 32.9251 39.0494 31.772 40.5013 31.772C41.9533 31.772 43.1063 32.9251 43.1063 34.377C43.1063 35.829 41.9533 36.982 40.5013 36.982ZM40.5013 27.7578C36.8714 27.7578 33.9248 30.7471 33.9248 34.4197C33.9248 38.0923 36.8714 41.0816 40.5013 41.0816C44.1312 41.0816 47.0778 38.0923 47.0778 34.4197C47.0778 30.7471 44.1312 27.7578 40.5013 27.7578Z" fill="#023886"/>
</svg>
